<svg xmlns="http://www.w3.org/2000/svg" xmlns:xlink="http://www.w3.org/1999/xlink" viewBox="0 0 288.28 102.7"><defs><style>.cls-1{isolation:isolate;}.cls-2,.cls-3{opacity:0.54;}.cls-2{fill:url(#linear-gradient);}.cls-4{fill:url(#linear-gradient-2);}.cls-5{fill:url(#linear-gradient-3);}.cls-6{fill:url(#linear-gradient-4);}.cls-7{fill:url(#linear-gradient-5);}.cls-8{fill:url(#linear-gradient-6);}.cls-9{fill:url(#linear-gradient-7);}.cls-10{fill:url(#linear-gradient-8);}.cls-11{fill:url(#linear-gradient-9);}.cls-12{fill:url(#linear-gradient-10);}.cls-13{fill:url(#linear-gradient-11);}.cls-14{fill:url(#linear-gradient-12);}.cls-15{fill:url(#linear-gradient-13);}.cls-16{fill:url(#linear-gradient-14);}.cls-17{fill:url(#linear-gradient-15);}.cls-18{fill:url(#linear-gradient-16);}.cls-19{fill:url(#linear-gradient-17);}.cls-20{fill:url(#linear-gradient-18);}.cls-21{fill:url(#linear-gradient-19);}.cls-22{fill:url(#linear-gradient-20);}.cls-23{fill:url(#linear-gradient-21);}.cls-24{fill:url(#linear-gradient-22);}.cls-25{fill:url(#linear-gradient-23);}.cls-26{fill:url(#linear-gradient-24);}.cls-27{fill:url(#linear-gradient-25);}.cls-28{fill:url(#linear-gradient-26);}.cls-29{fill:url(#linear-gradient-27);}.cls-30{fill:url(#linear-gradient-28);}.cls-31{fill:url(#linear-gradient-29);}.cls-32{fill:url(#linear-gradient-30);}.cls-33{fill:url(#linear-gradient-31);}.cls-34{fill:url(#linear-gradient-32);}.cls-35{fill:url(#linear-gradient-33);}.cls-36{fill:url(#linear-gradient-34);}.cls-37{fill:url(#linear-gradient-35);}.cls-38{fill:url(#linear-gradient-36);}.cls-39{fill:url(#linear-gradient-37);}.cls-40{fill:url(#linear-gradient-38);}.cls-41{fill:url(#linear-gradient-39);}.cls-42{fill:url(#linear-gradient-40);}.cls-43{fill:url(#linear-gradient-41);}.cls-44{fill:url(#linear-gradient-42);}.cls-45{fill:url(#linear-gradient-43);}.cls-46{fill:url(#linear-gradient-44);}.cls-47{fill:url(#linear-gradient-45);}.cls-48{fill:url(#linear-gradient-46);}.cls-49{fill:url(#linear-gradient-47);}.cls-50{fill:url(#linear-gradient-48);}.cls-51{fill:url(#linear-gradient-49);}.cls-52{fill:url(#linear-gradient-50);}.cls-53{fill:url(#linear-gradient-51);}.cls-54{fill:url(#linear-gradient-52);}.cls-55{fill:url(#linear-gradient-53);}.cls-56{fill:url(#linear-gradient-54);}.cls-57{fill:url(#linear-gradient-55);}.cls-58{fill:url(#linear-gradient-56);}.cls-59{fill:url(#linear-gradient-57);}.cls-60{fill:url(#linear-gradient-58);}.cls-61{fill:url(#linear-gradient-59);}.cls-62{fill:url(#linear-gradient-60);}.cls-63{fill:url(#linear-gradient-61);}.cls-64{fill:url(#linear-gradient-62);}.cls-65{fill:url(#linear-gradient-63);}.cls-66{fill:url(#linear-gradient-64);}.cls-67{fill:url(#linear-gradient-65);}.cls-68{mix-blend-mode:multiply;fill:url(#Névtelen_színátmenet_104);}</style><linearGradient id="linear-gradient" x1="0.17" y1="144.18" x2="288.18" y2="144.18" gradientTransform="matrix(1, 0, 0, -1, -0.14, 288.22)" gradientUnits="userSpaceOnUse"><stop offset="0" stop-color="#f4f4f4"/><stop offset="1" stop-color="#f6f6f6"/></linearGradient><linearGradient id="linear-gradient-2" x1="-930.67" y1="1201.63" x2="-928.99" y2="1199.96" gradientTransform="translate(33735.44 -16730.41) rotate(0.06) scale(36 14)" gradientUnits="userSpaceOnUse"><stop offset="0" stop-color="#b3b3b3"/><stop offset="1" stop-color="#7d7d7d"/></linearGradient><linearGradient id="linear-gradient-3" x1="-927.7" y1="1204.45" x2="-926.03" y2="1202.78" gradientTransform="translate(20664.31 -19195.61) rotate(0.06) scale(22 16)" gradientUnits="userSpaceOnUse"><stop offset="0" stop-color="#868686"/><stop offset="1" stop-color="#909090"/></linearGradient><linearGradient id="linear-gradient-4" x1="-924.06" y1="1211.05" x2="-922.39" y2="1209.38" gradientTransform="matrix(11, 0.01, -0.02, 23, 10335.64, -27767.02)" gradientUnits="userSpaceOnUse"><stop offset="0" stop-color="#e5e5e5"/><stop offset="1" stop-color="#c8c8c8"/></linearGradient><linearGradient id="linear-gradient-5" x1="-919.12" y1="1206.65" x2="-917.45" y2="1204.98" gradientTransform="translate(7532.18 -21664.86) rotate(0.06) scale(8 18)" gradientUnits="userSpaceOnUse"><stop offset="0" stop-color="#a7a7a7"/><stop offset="1" stop-color="#a8a8a8"/></linearGradient><linearGradient id="linear-gradient-6" x1="-931.92" y1="1191.61" x2="-930.25" y2="1189.94" gradientTransform="translate(24288.39 -11840.95) rotate(0.06) scale(26 10)" gradientUnits="userSpaceOnUse"><stop offset="0" stop-color="#dedede"/><stop offset="1" stop-color="#e3e3e3"/></linearGradient><linearGradient id="linear-gradient-7" x1="-930.84" y1="1215.67" x2="-929.18" y2="1214.01" gradientTransform="translate(29030.6 -42489.87) rotate(0.06) scale(31 35)" gradientUnits="userSpaceOnUse"><stop offset="0" stop-color="#9e9e9e"/><stop offset="1" stop-color="#b6b6b6"/></linearGradient><linearGradient id="linear-gradient-8" x1="-931.12" y1="1198.54" x2="-929.45" y2="1196.86" gradientTransform="translate(29004.15 -15535.87) rotate(0.06) scale(31 13)" gradientUnits="userSpaceOnUse"><stop offset="0" stop-color="#a3a3a3"/><stop offset="1" stop-color="#a7a7a7"/></linearGradient><linearGradient id="linear-gradient-9" x1="-932.87" y1="1217.11" x2="-931.21" y2="1215.45" gradientTransform="matrix(35, 0.03, -0.04, 41, 32704.09, -49823.37)" gradientUnits="userSpaceOnUse"><stop offset="0" stop-color="#949494"/><stop offset="1" stop-color="#bfbfbf"/></linearGradient><linearGradient id="linear-gradient-10" x1="-932.89" y1="1211.71" x2="-931.22" y2="1210.03" gradientTransform="matrix(26, 0.03, -0.02, 24, 24254.21, -28980.55)" gradientUnits="userSpaceOnUse"><stop offset="0" stop-color="#bababa"/><stop offset="1" stop-color="#929292"/></linearGradient><linearGradient id="linear-gradient-11" x1="-933.05" y1="1208.26" x2="-931.36" y2="1206.58" gradientTransform="translate(32678.84 -24094.55) rotate(0.06) scale(35 20)" gradientUnits="userSpaceOnUse"><stop offset="0" stop-color="#929292"/><stop offset="1" stop-color="#afafaf"/></linearGradient><linearGradient id="linear-gradient-12" x1="-931.81" y1="1216.37" x2="-930.13" y2="1214.69" gradientTransform="translate(19600.88 -39978.76) rotate(0.06) scale(21 33)" gradientUnits="userSpaceOnUse"><stop offset="0" stop-color="#f7f7f7"/><stop offset="1" stop-color="#fafafa"/></linearGradient><linearGradient id="linear-gradient-13" x1="-931.15" y1="1213.72" x2="-929.48" y2="1212.06" gradientTransform="matrix(28, 0.03, -0.03, 28, 26205.67, -33877.36)" gradientUnits="userSpaceOnUse"><stop offset="0" stop-color="#d0d0d0"/><stop offset="1" stop-color="#cbcbcb"/></linearGradient><linearGradient id="linear-gradient-14" x1="-929.98" y1="1193.78" x2="-928.31" y2="1192.1" gradientTransform="translate(20597.31 -13082.76) rotate(0.06) scale(22 11)" gradientUnits="userSpaceOnUse"><stop offset="0" stop-color="#b3b3b3"/><stop offset="1" stop-color="#b4b4b4"/></linearGradient><linearGradient id="linear-gradient-15" x1="-925.37" y1="1213.43" x2="-923.7" y2="1211.76" gradientTransform="matrix(12, 0.01, -0.03, 28, 11271.48, -33892.02)" gradientUnits="userSpaceOnUse"><stop offset="0" stop-color="#e0e0e0"/><stop offset="1" stop-color="#c4c4c4"/></linearGradient><linearGradient id="linear-gradient-16" x1="-928.88" y1="1204.18" x2="-927.22" y2="1202.51" gradientTransform="translate(18735.67 -19205.5) rotate(0.06) scale(20 16)" gradientUnits="userSpaceOnUse"><stop offset="0" stop-color="#a1a1a1"/><stop offset="1" stop-color="#a5a5a5"/></linearGradient><linearGradient id="linear-gradient-17" x1="-931.22" y1="1206.46" x2="-929.56" y2="1204.79" gradientTransform="matrix(35, 0.03, -0.02, 18, 32776.44, -21640.08)" gradientUnits="userSpaceOnUse"><stop offset="0" stop-color="#aeaeae"/><stop offset="1" stop-color="#a8a8a8"/></linearGradient><linearGradient id="linear-gradient-18" x1="-931.15" y1="1195.12" x2="-929.49" y2="1193.45" gradientTransform="translate(32768.01 -13055.81) rotate(0.06) scale(35 11)" gradientUnits="userSpaceOnUse"><stop offset="0" stop-color="#b6b6b6"/><stop offset="1" stop-color="#bbb"/></linearGradient><linearGradient id="linear-gradient-19" x1="-924.53" y1="1201.38" x2="-922.86" y2="1199.71" gradientTransform="matrix(14, 0.01, -0.01, 14, 13169.31, -16750.59)" gradientUnits="userSpaceOnUse"><stop offset="0" stop-color="silver"/><stop offset="1" stop-color="#959595"/></linearGradient><linearGradient id="linear-gradient-20" x1="-921.06" y1="1176.93" x2="-919.39" y2="1175.26" gradientTransform="matrix(11, 0.01, -0.01, 7, 10362.43, -8188.07)" gradientUnits="userSpaceOnUse"><stop offset="0" stop-color="#6a6a6a"/><stop offset="1" stop-color="#8c8c8c"/></linearGradient><linearGradient id="linear-gradient-21" x1="-932.16" y1="1177.29" x2="-930.48" y2="1175.61" gradientTransform="matrix(25, 0.02, -0.01, 7, 23324.97, -8170.35)" gradientUnits="userSpaceOnUse"><stop offset="0" stop-color="#ccc"/><stop offset="1" stop-color="#dadada"/></linearGradient><linearGradient id="linear-gradient-22" x1="-927.72" y1="1216.32" x2="-926.05" y2="1214.65" gradientTransform="matrix(11, 0.01, -0.04, 36, 10292.26, -43677.45)" gradientUnits="userSpaceOnUse"><stop offset="0" stop-color="#f2f2f2"/><stop offset="1" stop-color="#ececec"/></linearGradient><linearGradient id="linear-gradient-23" x1="-922.86" y1="1191.99" x2="-921.19" y2="1190.31" gradientTransform="translate(6525.73 -11858.38) rotate(0.06) scale(7 10)" gradientUnits="userSpaceOnUse"><stop offset="0" stop-color="#dfdfdf"/><stop offset="1" stop-color="#e7e7e7"/></linearGradient><linearGradient id="linear-gradient-24" x1="-933.54" y1="1211.56" x2="-931.87" y2="1209.89" gradientTransform="matrix(40, 0.04, -0.02, 24, 37351.75, -28967.69)" gradientUnits="userSpaceOnUse"><stop offset="0" stop-color="#9c9c9c"/><stop offset="1" stop-color="#d5d5d5"/></linearGradient><linearGradient id="linear-gradient-25" x1="-933.21" y1="1216.74" x2="-931.54" y2="1215.08" gradientTransform="matrix(40, 0.04, -0.04, 36, 37366.16, -43650.88)" gradientUnits="userSpaceOnUse"><stop offset="0" stop-color="#f1f1f1"/><stop offset="1" stop-color="#f4f4f4"/></linearGradient><linearGradient id="linear-gradient-26" x1="-933.04" y1="1217.02" x2="-931.37" y2="1215.35" gradientTransform="matrix(41, 0.04, -0.04, 41, 38325.04, -49817.86)" gradientUnits="userSpaceOnUse"><stop offset="0" stop-color="#828282"/><stop offset="1" stop-color="#bababa"/></linearGradient><linearGradient id="linear-gradient-27" x1="-931.3" y1="1211.93" x2="-929.63" y2="1210.26" gradientTransform="translate(24306.44 -30227.68) rotate(0.06) scale(26 25)" gradientUnits="userSpaceOnUse"><stop offset="0" stop-color="#ccc"/><stop offset="1" stop-color="#c6c6c6"/></linearGradient><linearGradient id="linear-gradient-28" x1="-928.98" y1="1213.77" x2="-927.32" y2="1212.11" gradientTransform="translate(27255.14 -37589.88) rotate(0.06) scale(29 31)" gradientUnits="userSpaceOnUse"><stop offset="0" stop-color="#969696"/><stop offset="1" stop-color="#6a6a6a"/></linearGradient><linearGradient id="linear-gradient-29" x1="-932.22" y1="1218.42" x2="-930.55" y2="1216.75" gradientTransform="translate(54379.59 -59567.6) rotate(0.06) scale(58 49)" xlink:href="#linear-gradient-28"/><linearGradient id="linear-gradient-30" x1="-928.79" y1="1210.86" x2="-927.12" y2="1209.19" gradientTransform="matrix(26, 0.03, -0.02, 24, 24416.24, -29009.39)" gradientUnits="userSpaceOnUse"><stop offset="0" stop-color="#707070"/><stop offset="1" stop-color="#373737"/></linearGradient><linearGradient id="linear-gradient-31" x1="-928.7" y1="1213.37" x2="-927.04" y2="1211.7" gradientTransform="matrix(26, 0.03, -0.03, 28, 24421.04, -33894.11)" xlink:href="#linear-gradient-28"/><linearGradient id="linear-gradient-32" x1="-926.24" y1="1196.42" x2="-924.57" y2="1194.74" gradientTransform="matrix(20, 0.02, -0.01, 12, 18798.88, -14324.7)" xlink:href="#linear-gradient-28"/><linearGradient id="linear-gradient-33" x1="-929.26" y1="1213.01" x2="-927.58" y2="1211.34" gradientTransform="matrix(29, 0.03, -0.03, 28, 27244.51, -33891.34)" xlink:href="#linear-gradient-28"/><linearGradient id="linear-gradient-34" x1="-927.4" y1="1189.86" x2="-925.73" y2="1188.18" gradientTransform="translate(20686.12 -11867.49) rotate(0.06) scale(22 10)" xlink:href="#linear-gradient-28"/><linearGradient id="linear-gradient-35" x1="-933.32" y1="1215.45" x2="-931.66" y2="1213.78" gradientTransform="translate(49550.06 -38738.19) rotate(0.06) scale(53 32)" gradientUnits="userSpaceOnUse"><stop offset="0" stop-color="#efefef"/><stop offset="1" stop-color="#e6e6e6"/></linearGradient><linearGradient id="linear-gradient-36" x1="-933.49" y1="1213.97" x2="-931.82" y2="1212.3" gradientTransform="translate(49544.03 -32593.28) rotate(0.06) scale(53 27)" gradientUnits="userSpaceOnUse"><stop offset="0" stop-color="#f3f3f3"/><stop offset="1" stop-color="#efefef"/></linearGradient><linearGradient id="linear-gradient-37" x1="-932.62" y1="1215.71" x2="-930.95" y2="1214.04" gradientTransform="translate(39279.21 -39981.45) rotate(0.06) scale(42 33)" gradientUnits="userSpaceOnUse"><stop offset="0" stop-color="#eaeaea"/><stop offset="1" stop-color="#dcdcdc"/></linearGradient><linearGradient id="linear-gradient-38" x1="-932.26" y1="1214.41" x2="-930.59" y2="1212.74" gradientTransform="translate(36470.5 -32606.11) rotate(0.06) scale(39 27)" gradientUnits="userSpaceOnUse"><stop offset="0" stop-color="#fafafa"/><stop offset="1" stop-color="#ebebeb"/></linearGradient><linearGradient id="linear-gradient-39" x1="-931.31" y1="1215.51" x2="-929.64" y2="1213.84" gradientTransform="translate(26211.67 -39994.27) rotate(0.06) scale(28 33)" gradientUnits="userSpaceOnUse"><stop offset="0" stop-color="#ddd"/><stop offset="1" stop-color="#ddd"/></linearGradient><linearGradient id="linear-gradient-40" x1="-927.91" y1="1211.46" x2="-926.24" y2="1209.79" gradientTransform="translate(14995.53 -26506.26) rotate(0.06) scale(16 22)" gradientUnits="userSpaceOnUse"><stop offset="0" stop-color="#f4f4f4"/><stop offset="1" stop-color="#e8e8e8"/></linearGradient><linearGradient id="linear-gradient-41" x1="-929.37" y1="1211.46" x2="-927.7" y2="1209.78" gradientTransform="matrix(17, 0.02, -0.02, 25, 15911.02, -30235.92)" gradientUnits="userSpaceOnUse"><stop offset="0" stop-color="#bfbfbf"/><stop offset="1" stop-color="#bfbfbf"/></linearGradient><linearGradient id="linear-gradient-42" x1="-929.79" y1="1186.36" x2="-928.13" y2="1184.7" gradientTransform="matrix(20, 0.02, -0.01, 9, 18696.27, -10649.26)" gradientUnits="userSpaceOnUse"><stop offset="0" stop-color="#afafaf"/><stop offset="1" stop-color="#a9a9a9"/></linearGradient><linearGradient id="linear-gradient-43" x1="-930.35" y1="1207.43" x2="-928.68" y2="1205.76" gradientTransform="matrix(23, 0.02, -0.02, 19, 21520.75, -22879.31)" gradientUnits="userSpaceOnUse"><stop offset="0" stop-color="#c1c1c1"/><stop offset="1" stop-color="#adadad"/></linearGradient><linearGradient id="linear-gradient-44" x1="-925.7" y1="1198.55" x2="-924.03" y2="1196.88" gradientTransform="matrix(12, 0.01, -0.01, 13, 11239.48, -15553.31)" gradientUnits="userSpaceOnUse"><stop offset="0" stop-color="#bcbcbc"/><stop offset="1" stop-color="#b2b2b2"/></linearGradient><linearGradient id="linear-gradient-45" x1="-927.19" y1="1202.44" x2="-925.5" y2="1200.75" gradientTransform="translate(13111.53 -17990.83) rotate(0.06) scale(14 15)" gradientUnits="userSpaceOnUse"><stop offset="0" stop-color="#aaa"/><stop offset="1" stop-color="#aaa"/></linearGradient><linearGradient id="linear-gradient-46" x1="-932.84" y1="1204.45" x2="-931.17" y2="1202.78" gradientTransform="translate(24244.61 -19192.09) rotate(0.06) scale(26 16)" gradientUnits="userSpaceOnUse"><stop offset="0" stop-color="#b3b3b3"/><stop offset="1" stop-color="#a8a8a8"/></linearGradient><linearGradient id="linear-gradient-47" x1="-930.42" y1="1207.55" x2="-928.74" y2="1205.87" gradientTransform="translate(13042.33 -22889.63) rotate(0.06) scale(14 19)" gradientUnits="userSpaceOnUse"><stop offset="0" stop-color="#b1b1b1"/><stop offset="1" stop-color="#b2b2b2"/></linearGradient><linearGradient id="linear-gradient-48" x1="-932.13" y1="1215.54" x2="-930.46" y2="1213.87" gradientTransform="translate(43991.78 -42475.19) rotate(0.06) scale(47 35)" gradientUnits="userSpaceOnUse"><stop offset="0" stop-color="#777"/><stop offset="1" stop-color="#8d8d8d"/></linearGradient><linearGradient id="linear-gradient-49" x1="-930.39" y1="1216.75" x2="-928.72" y2="1215.09" gradientTransform="translate(29066.39 -47375.58) rotate(0.06) scale(31 39)" gradientUnits="userSpaceOnUse"><stop offset="0" stop-color="#969696"/><stop offset="1" stop-color="#8c8c8c"/></linearGradient><linearGradient id="linear-gradient-50" x1="-928.16" y1="1216.67" x2="-926.5" y2="1215.01" gradientTransform="translate(20672.97 -47383.81) rotate(0.06) scale(22 39)" gradientUnits="userSpaceOnUse"><stop offset="0" stop-color="#8a8a8a"/><stop offset="1" stop-color="#7e7e7e"/></linearGradient><linearGradient id="linear-gradient-51" x1="-929.46" y1="1214.73" x2="-927.78" y2="1213.05" gradientTransform="translate(26273.51 -38809.03) rotate(0.06) scale(28 32)" gradientUnits="userSpaceOnUse"><stop offset="0" stop-color="#919191"/><stop offset="1" stop-color="#747474"/></linearGradient><linearGradient id="linear-gradient-52" x1="-926.38" y1="1196.74" x2="-924.71" y2="1195.06" gradientTransform="translate(13119.68 -13051.1) rotate(0.06) scale(14 11)" gradientUnits="userSpaceOnUse"><stop offset="0" stop-color="#dbdbdb"/><stop offset="1" stop-color="#ddd"/></linearGradient><linearGradient id="linear-gradient-53" x1="-926.71" y1="1196.97" x2="-925.04" y2="1195.3" gradientTransform="translate(13119.67 -13042.1) rotate(0.06) scale(14 11)" gradientUnits="userSpaceOnUse"><stop offset="0" stop-color="#dcdcdc"/><stop offset="1" stop-color="#e4e4e4"/></linearGradient><linearGradient id="linear-gradient-54" x1="-923.78" y1="1215.5" x2="-922.11" y2="1213.83" gradientTransform="translate(10346.45 -38782.66) rotate(0.06) scale(11 32)" gradientUnits="userSpaceOnUse"><stop offset="0" stop-color="#d4d4d4"/><stop offset="1" stop-color="#c9c9c9"/></linearGradient><linearGradient id="linear-gradient-55" x1="-929.2" y1="1216.41" x2="-927.53" y2="1214.74" gradientTransform="translate(20633.69 -39964.75) rotate(0.06) scale(22 33)" gradientUnits="userSpaceOnUse"><stop offset="0" stop-color="#eaeaea"/><stop offset="1" stop-color="#e7e7e7"/></linearGradient><linearGradient id="linear-gradient-56" x1="-931.2" y1="1215.06" x2="-929.53" y2="1213.4" gradientTransform="translate(29985.76 -38763.39) rotate(0.06) scale(32)" gradientUnits="userSpaceOnUse"><stop offset="0" stop-color="#d2d2d2"/><stop offset="1" stop-color="#dedede"/></linearGradient><linearGradient id="linear-gradient-57" x1="-931.32" y1="1216.25" x2="-929.66" y2="1214.59" gradientTransform="translate(32791.41 -39952.81) rotate(0.06) scale(35 33)" gradientUnits="userSpaceOnUse"><stop offset="0" stop-color="#f6f6f6"/><stop offset="1" stop-color="#e9e9e9"/></linearGradient><linearGradient id="linear-gradient-58" x1="-931.06" y1="1219.68" x2="-929.39" y2="1218.01" gradientTransform="translate(32814.26 -63236.31) rotate(0.06) scale(35 52)" gradientUnits="userSpaceOnUse"><stop offset="0" stop-color="#d2d2d2"/><stop offset="1" stop-color="#dcdcdc"/></linearGradient><linearGradient id="linear-gradient-59" x1="-932.88" y1="1216.17" x2="-931.21" y2="1214.5" gradientTransform="translate(28949.12 -39969.59) rotate(0.06) scale(31 33)" xlink:href="#linear-gradient-12"/><linearGradient id="linear-gradient-60" x1="-933.16" y1="1213.97" x2="-931.48" y2="1212.3" gradientTransform="translate(33616.04 -32619.91) rotate(0.06) scale(36 27)" gradientUnits="userSpaceOnUse"><stop offset="0" stop-color="#f3f3f3"/><stop offset="1" stop-color="#fcfcfc"/></linearGradient><linearGradient id="linear-gradient-61" x1="-929.69" y1="1219.41" x2="-928.02" y2="1217.74" gradientTransform="translate(26302.49 -63242.7) rotate(0.06) scale(28 52)" gradientUnits="userSpaceOnUse"><stop offset="0" stop-color="#dfdfdf"/><stop offset="1" stop-color="#e8e8e8"/></linearGradient><linearGradient id="linear-gradient-62" x1="-930.85" y1="1218.23" x2="-929.17" y2="1216.56" gradientTransform="translate(33771.47 -53443.91) rotate(0.06) scale(36 44)" gradientUnits="userSpaceOnUse"><stop offset="0" stop-color="#dfdfdf"/><stop offset="1" stop-color="#c6c6c6"/></linearGradient><linearGradient id="linear-gradient-63" x1="-928.5" y1="1218.92" x2="-926.83" y2="1217.25" gradientTransform="matrix(26, 0.03, -0.05, 48, 24456.03, -58349.78)" gradientUnits="userSpaceOnUse"><stop offset="0" stop-color="#a6a6a6"/><stop offset="1" stop-color="#ddd"/></linearGradient><linearGradient id="linear-gradient-64" x1="-931.18" y1="1218.44" x2="-929.5" y2="1216.76" gradientTransform="matrix(41, 0.04, -0.05, 48, 38486.4, -58336.01)" gradientUnits="userSpaceOnUse"><stop offset="0" stop-color="#ababab"/><stop offset="1" stop-color="#bfbfbf"/></linearGradient><linearGradient id="linear-gradient-65" x1="-932.56" y1="1217.29" x2="-930.88" y2="1215.61" gradientTransform="translate(54371.16 -50975.29) rotate(0.06) scale(58 42)" xlink:href="#linear-gradient-28"/><linearGradient id="Névtelen_színátmenet_104" x1="44.81" y1="314.45" x2="241.47" y2="-26.17" gradientUnits="userSpaceOnUse"><stop offset="0.05" stop-color="#0052a1"/><stop offset="0.38" stop-color="#7f6d77"/><stop offset="0.62" stop-color="#d07f5c"/><stop offset="0.72" stop-color="#f08651"/></linearGradient></defs><title>office-bg</title><g class="cls-1"><g id="Design"><rect id="_Görbe_" data-name="&lt;Görbe&gt;" class="cls-2" x="0.17" y="0.18" width="288" height="288"/><g class="cls-3"><polygon id="triangle36" class="cls-4" points="211.44 58.16 234.73 34.67 271.26 54.86 211.44 58.16"/><polygon id="triangle36-2" data-name="triangle36" class="cls-5" points="234.73 34.67 239.72 27.96 271.26 54.86 234.73 34.67"/><polygon id="triangle36-3" data-name="triangle36" class="cls-6" points="144.96 79.92 163.27 44.68 156.63 41.31 144.96 79.92"/><polygon id="triangle36-4" data-name="triangle36" class="cls-7" points="163.27 44.68 169.94 14.46 156.63 41.31 163.27 44.68"/><polygon id="triangle36-5" data-name="triangle36" class="cls-8" points="55.27 37.85 65.23 54.66 98.47 39.58 55.27 37.85"/><polygon class="cls-9" points="159.08 0.2 169.94 14.46 136.32 0.17 159.08 0.2"/><polygon class="cls-10" points="136.32 0.17 169.94 14.46 133.39 14.43 123.64 0.16 136.32 0.17"/><polygon class="cls-11" points="34.35 0.07 55.27 37.85 0.31 6.05 0.32 0.04 34.35 0.07"/><polygon class="cls-12" points="0.26 56.51 0.28 41.87 13.74 36.13 0.26 56.51"/><polygon class="cls-13" points="0.31 6.05 55.27 37.85 13.74 36.13 0.31 10.29 0.31 6.05"/><polygon class="cls-14" points="0.19 130.6 0.22 97.27 21.95 131.84 0.19 130.6"/><polygon id="triangle36-6" data-name="triangle36" class="cls-15" points="98.47 39.58 144.96 79.92 136.7 32.9 98.47 39.58"/><polygon id="triangle36-7" data-name="triangle36" class="cls-16" points="133.39 14.43 169.94 14.46 136.7 32.9 133.39 14.43"/><polygon id="triangle36-8" data-name="triangle36" class="cls-17" points="144.96 79.92 156.63 41.31 136.7 32.9 144.96 79.92"/><polygon id="triangle36-9" data-name="triangle36" class="cls-18" points="156.63 41.31 169.94 14.46 136.7 32.9 156.63 41.31"/><polygon id="triangle36-10" data-name="triangle36" class="cls-19" points="163.27 44.68 169.94 14.46 221.43 39.7 163.27 44.68"/><polygon id="triangle36-11" data-name="triangle36" class="cls-20" points="163.27 44.68 211.44 58.16 221.43 39.7 163.27 44.68"/><polygon id="triangle36-12" data-name="triangle36" class="cls-21" points="211.44 58.16 234.73 34.67 221.43 39.7 211.44 58.16"/><polygon id="triangle36-13" data-name="triangle36" class="cls-22" points="234.73 34.67 239.72 27.96 221.43 39.7 234.73 34.67"/><polygon id="triangle36-14" data-name="triangle36" class="cls-23" points="13.74 36.13 55.27 37.85 53.6 47.93 13.74 36.13"/><polygon id="triangle36-15" data-name="triangle36" class="cls-24" points="46.9 108.36 65.23 54.66 53.6 47.93 46.9 108.36"/><polygon id="triangle36-16" data-name="triangle36" class="cls-25" points="55.27 37.85 65.23 54.66 53.6 47.93 55.27 37.85"/><polygon class="cls-26" points="0.25 70.78 0.26 56.51 13.74 36.13 53.6 47.93 0.25 70.78"/><polygon class="cls-27" points="0.25 70.78 53.6 47.93 46.9 108.36 0.23 83.42 0.25 70.78"/><polygon class="cls-28" points="83.34 0.12 55.27 37.85 34.35 0.07 83.34 0.12"/><polygon class="cls-29" points="86.02 0.12 98.47 39.58 55.27 37.85 83.34 0.12 86.02 0.12"/><polygon class="cls-30" points="288.32 0.32 288.31 1.93 284.81 0.32 288.32 0.32"/><polygon class="cls-31" points="288.26 62.57 271.26 54.86 288.28 41.25 288.26 62.57"/><polygon class="cls-32" points="270.51 0.3 282.94 7.86 239.72 27.96 246.6 0.28 270.51 0.3"/><polygon id="triangle36-17" data-name="triangle36" class="cls-33" points="239.72 27.96 271.26 54.86 282.94 7.86 239.72 27.96"/><polygon class="cls-34" points="282.95 0.32 282.94 7.86 270.51 0.3 282.95 0.32"/><polygon class="cls-35" points="288.28 41.25 271.26 54.86 282.94 7.86 288.31 9.09 288.28 41.25"/><polygon class="cls-36" points="284.81 0.32 288.31 1.93 288.31 9.09 282.94 7.86 282.95 0.32 284.81 0.32"/><polygon id="triangle36-18" data-name="triangle36" class="cls-37" points="46.9 108.36 65.23 54.66 134.97 95.02 46.9 108.36"/><polygon id="triangle36-19" data-name="triangle36" class="cls-38" points="46.9 108.36 70.13 140.29 134.97 95.02 46.9 108.36"/><polygon id="triangle36-20" data-name="triangle36" class="cls-39" points="65.23 54.66 98.47 39.58 134.97 95.02 65.23 54.66"/><polygon id="triangle36-21" data-name="triangle36" class="cls-40" points="70.13 140.29 123.31 131.94 134.97 95.02 70.13 140.29"/><polygon id="triangle36-22" data-name="triangle36" class="cls-41" points="98.47 39.58 144.96 79.92 134.97 95.02 98.47 39.58"/><polygon id="triangle36-23" data-name="triangle36" class="cls-42" points="123.31 131.94 149.91 113.5 134.97 95.02 123.31 131.94"/><polygon class="cls-43" points="92.33 0.13 113.46 7.69 98.47 39.58 86.02 0.12 92.33 0.13"/><polygon class="cls-44" points="115.95 0.15 113.46 7.69 92.33 0.13 115.95 0.15"/><polygon id="triangle36-24" data-name="triangle36" class="cls-45" points="98.47 39.58 136.7 32.9 113.46 7.69 98.47 39.58"/><polygon class="cls-46" points="123.64 0.16 133.39 14.43 113.46 7.69 115.95 0.15 123.64 0.16"/><polygon id="triangle36-25" data-name="triangle36" class="cls-47" points="133.39 14.43 136.7 32.9 113.46 7.69 133.39 14.43"/><polygon class="cls-48" points="0.28 41.87 0.29 31.27 13.74 36.13 0.28 41.87"/><polygon class="cls-49" points="0.29 31.27 0.31 10.29 13.74 36.13 0.29 31.27"/><polygon class="cls-50" points="181.72 0.22 169.94 14.46 159.08 0.2 181.72 0.22"/><polygon class="cls-51" points="210.46 0.25 221.43 39.7 169.94 14.46 181.72 0.22 210.46 0.25"/><polygon class="cls-52" points="220.91 0.26 239.72 27.96 221.43 39.7 210.46 0.25 220.91 0.26"/><polygon class="cls-53" points="246.6 0.28 239.72 27.96 220.91 0.26 246.6 0.28"/><polygon id="triangle36-26" data-name="triangle36" class="cls-54" points="134.97 95.02 144.96 79.92 158.23 98.4 134.97 95.02"/><polygon id="triangle36-27" data-name="triangle36" class="cls-55" points="134.97 95.02 149.91 113.5 158.23 98.4 134.97 95.02"/><polygon id="triangle36-28" data-name="triangle36" class="cls-56" points="144.96 79.92 163.27 44.68 158.23 98.4 144.96 79.92"/><polygon id="triangle36-29" data-name="triangle36" class="cls-57" points="149.91 113.5 186.43 153.83 158.23 98.4 149.91 113.5"/><polygon id="triangle36-30" data-name="triangle36" class="cls-58" points="163.27 44.68 211.44 58.16 158.23 98.4 163.27 44.68"/><polygon id="triangle36-31" data-name="triangle36" class="cls-59" points="186.43 153.83 216.34 145.47 158.23 98.4 186.43 153.83"/><polygon id="triangle36-32" data-name="triangle36" class="cls-60" points="211.44 58.16 216.34 145.47 158.23 98.4 211.44 58.16"/><polygon class="cls-61" points="0.23 87.97 38.58 121.78 21.95 131.84 0.22 97.27 0.23 87.97"/><polygon class="cls-62" points="0.23 83.42 46.9 108.36 38.58 121.78 0.23 87.97 0.23 83.42"/><polygon id="triangle36-33" data-name="triangle36" class="cls-63" points="211.44 58.16 216.34 145.47 257.9 128.72 211.44 58.16"/><polygon id="triangle36-34" data-name="triangle36" class="cls-64" points="211.44 58.16 271.26 54.86 257.9 128.72 211.44 58.16"/><polygon class="cls-65" points="288.19 133.46 257.9 128.72 271.26 54.86 288.22 100.68 288.19 133.46"/><polygon class="cls-66" points="288.22 100.68 271.26 54.86 288.25 72.47 288.22 100.68"/><polygon class="cls-67" points="288.25 72.47 271.26 54.86 288.26 62.57 288.25 72.47"/></g><rect id="_Görbe_2" data-name="&lt;Görbe&gt;" class="cls-68" x="-0.86" y="0.14" width="288" height="288"/></g></g></svg>