<svg xmlns="http://www.w3.org/2000/svg" viewBox="0 0 600 600"><defs><style>.cls-1{fill:#f2f2f2;}.cls-1,.cls-2,.cls-3,.cls-4,.cls-5,.cls-7,.cls-8{stroke:#000;stroke-miterlimit:10;}.cls-1,.cls-2,.cls-3,.cls-4{stroke-width:1.85px;}.cls-2{fill:#b3b3b3;opacity:0.6;}.cls-3{fill:#c1172c;}.cls-4{fill:none;}.cls-5{fill:#c8eaf5;stroke-width:3.25px;}.cls-6{fill:#333;}.cls-7,.cls-8{fill:#6dc065;}.cls-7{stroke-width:0.99px;}.cls-8{stroke-width:0.91px;}</style></defs><title>bovulo</title><g id="Réteg_1" data-name="Réteg 1"><rect class="cls-1" x="306.49" y="154.64" width="205.63" height="147.58" transform="translate(-57.32 272.88) rotate(-34.61)"/><rect class="cls-2" x="337.77" y="255.81" width="205.63" height="35.89" transform="translate(-77.53 298.66) rotate(-34.61)"/><polygon class="cls-3" points="381.1 213.38 398.72 238.92 413.93 209.58 381.1 213.38"/><line class="cls-4" x1="366.81" y1="323.96" x2="511.66" y2="224.01"/><circle cx="388.54" cy="308.97" r="6.48" transform="translate(-106.73 275.33) rotate(-34.61)"/><g id="_186" data-name="186"><path d="M182.74,141.32s2.61-.84,2.71-1"/><path class="cls-5" d="M344.61,134.46a20.81,20.81,0,0,0-.3-3.41l4.88-3.91.18-5.46-7.5-9.34-5.47-.18-4,3.2a26.15,26.15,0,0,0-4.38-1.81c-.08-1.54-.23-4.63-.23-4.63l-3.74-4-12,.58-4,3.73s.2,4.06.29,6.09a24.64,24.64,0,0,0-3.37,2.14l-5-2.47-5.33,1.22L289.41,127l-.2.73,1.42,4.59,5.76,2.86a19.94,19.94,0,0,0,.48,3.77l-4.58,3.64-.18,5.45,7.44,9.38s4.48.68,4.72.55l.74-.38,4.36-3.46a23.75,23.75,0,0,0,3.68,1.45c.09,1.61.28,4.83.28,4.83l3.74,4,11.94-.7,4-3.73s-.24-4.15-.36-6.23a25.8,25.8,0,0,0,2.85-1.76l4.57,2.84,5.33-1.22,6.33-10.16-1.22-5.33Zm-25.16,12.23A12,12,0,1,1,331.89,135,12,12,0,0,1,319.46,146.69Z"/><path class="cls-6" d="M262.31,87.89a20.81,20.81,0,0,0-.3-3.41l4.88-3.91.18-5.46-7.5-9.34-5.47-.18-4,3.2A26.15,26.15,0,0,0,245.72,67c-.08-1.54-.23-4.63-.23-4.63l-3.74-4-12,.58-4,3.73s.2,4.06.29,6.09a24.64,24.64,0,0,0-3.37,2.14l-5-2.47-5.33,1.22L207.1,80.42l-.2.73,1.42,4.59,5.76,2.86a19.94,19.94,0,0,0,.48,3.77L210,96l-.18,5.45,7.44,9.38s4.48.68,4.72.55l.74-.38,4.36-3.46a23.75,23.75,0,0,0,3.68,1.45c.09,1.61.28,4.83.28,4.83l3.74,4,11.94-.7,4-3.73s-.24-4.15-.36-6.23a25.8,25.8,0,0,0,2.85-1.76l4.57,2.84,5.33-1.22,6.33-10.16-1.22-5.33Zm-25.16,12.23a12,12,0,1,1,12.43-11.64A12,12,0,0,1,237.15,100.12Z"/><path class="cls-7" d="M391.18,63a20.81,20.81,0,0,0-.3-3.41l4.88-3.91.18-5.46-7.5-9.34L383,40.7l-4,3.2a26.15,26.15,0,0,0-4.38-1.81c-.08-1.54-.23-4.63-.23-4.63l-3.74-4-12,.58-4,3.73s.2,4.06.29,6.09A24.64,24.64,0,0,0,351.61,46l-5-2.47-5.33,1.22L336,55.51l-.2.73,1.42,4.59L343,63.69a19.94,19.94,0,0,0,.48,3.77l-4.58,3.64-.18,5.45,7.44,9.38s4.48.68,4.72.55l.74-.38,4.36-3.46a23.75,23.75,0,0,0,3.68,1.45c.09,1.61.28,4.83.28,4.83l3.74,4,11.94-.7,4-3.73s-.24-4.15-.36-6.23a25.8,25.8,0,0,0,2.85-1.76l4.57,2.84,5.33-1.22L398.27,72l-1.22-5.33ZM366,75.22a12,12,0,1,1,12.43-11.64A12,12,0,0,1,366,75.22Z"/><path d="M187.74,166.14a4,4,0,0,0,2-1.88,5.13,5.13,0,0,0,.42-2.86,13.37,13.37,0,0,0-1.25-4,14.54,14.54,0,0,0-1.72-3,7.49,7.49,0,0,0-1.73-1.6,4,4,0,0,0-1.89-.62,4.33,4.33,0,0,0-2.06.43,4,4,0,0,0-2,1.87,5.18,5.18,0,0,0-.43,2.86,13.55,13.55,0,0,0,1.25,4q1.71,3.72,3.77,4.78A4,4,0,0,0,187.74,166.14Zm-6.94-10.37a2.29,2.29,0,0,1,1.35-1.77,2.5,2.5,0,0,1,2.39.2q1.25.73,2.75,4t1.22,4.67a2.39,2.39,0,0,1-3.75,1.73q-1.26-.73-2.75-4C181,158.45,180.6,156.83,180.8,155.77Z"/><path d="M191.93,150a10.93,10.93,0,0,1-1.67,2.64l.72,1.57a11.8,11.8,0,0,0,1.33-1.62,9.37,9.37,0,0,0,1-1.82l4.74,10.33,1.62-.74-6.08-13.26-1,.48A6.6,6.6,0,0,1,191.93,150Z"/><path d="M194.85,172.4a3.91,3.91,0,0,0-1.89-.62,4.33,4.33,0,0,0-2.06.43,4,4,0,0,0-2,1.87,5.13,5.13,0,0,0-.42,2.86,13.36,13.36,0,0,0,1.24,4q1.71,3.72,3.77,4.77a4,4,0,0,0,3.63,0,4.05,4.05,0,0,0,2-1.88,5.25,5.25,0,0,0,.42-2.86,13.3,13.3,0,0,0-1.24-4,14.43,14.43,0,0,0-1.73-3A7.52,7.52,0,0,0,194.85,172.4Zm3,10a2.39,2.39,0,0,1-3.75,1.73c-.84-.48-1.75-1.81-2.74-4s-1.4-3.78-1.21-4.84a2.3,2.3,0,0,1,1.35-1.77,2.49,2.49,0,0,1,2.39.2q1.26.73,2.75,4C197.62,179.91,198,181.46,197.85,182.41Z"/><path d="M209,179.94,203,166.67l-1,.48a6.67,6.67,0,0,1-.63,2.43,10.83,10.83,0,0,1-1.66,2.64l.72,1.57a11.93,11.93,0,0,0,1.32-1.62,9.24,9.24,0,0,0,1-1.82l4.74,10.33,1.62-.75Z"/><path d="M217.93,175.86l-6.08-13.26-1,.48a6.67,6.67,0,0,1-.63,2.43,10.83,10.83,0,0,1-1.66,2.64l.72,1.57a12.08,12.08,0,0,0,1.32-1.62,9.12,9.12,0,0,0,1-1.82l4.74,10.33,1.62-.75Z"/><path d="M224.26,158.91a3.91,3.91,0,0,0-1.89-.62,4.33,4.33,0,0,0-2.06.43,4,4,0,0,0-2,1.87,5.13,5.13,0,0,0-.42,2.86,13.42,13.42,0,0,0,1.25,4q1.71,3.72,3.77,4.78a4.42,4.42,0,0,0,5.67-1.89,5.16,5.16,0,0,0,.42-2.85,13.36,13.36,0,0,0-1.24-4,14.11,14.11,0,0,0-1.73-3A7,7,0,0,0,224.26,158.91Zm3,10a2.39,2.39,0,0,1-3.76,1.73c-.84-.48-1.75-1.81-2.74-4s-1.4-3.78-1.21-4.84a2.31,2.31,0,0,1,1.35-1.77,2.49,2.49,0,0,1,2.39.2q1.26.73,2.75,4C227,166.41,227.44,168,227.26,168.92Z"/><path d="M205,194.55a3.92,3.92,0,0,0-1.89-.63,4.33,4.33,0,0,0-2.06.43,4,4,0,0,0-2,1.87,5.17,5.17,0,0,0-.42,2.86,13.39,13.39,0,0,0,1.25,4q1.71,3.73,3.77,4.77a4,4,0,0,0,3.63,0,4.05,4.05,0,0,0,2-1.88,5.25,5.25,0,0,0,.42-2.86,13.34,13.34,0,0,0-1.25-4,14.45,14.45,0,0,0-1.73-3A7.57,7.57,0,0,0,205,194.55Zm3,10a2.39,2.39,0,0,1-3.76,1.72c-.84-.49-1.74-1.81-2.74-4s-1.4-3.77-1.21-4.84a2.3,2.3,0,0,1,1.35-1.77,2.49,2.49,0,0,1,2.39.2q1.26.73,2.75,4T208,204.56Z"/><path d="M215.27,189.84a4,4,0,0,0-1.89-.63,4.33,4.33,0,0,0-2.06.43,4,4,0,0,0-2,1.87,5.18,5.18,0,0,0-.43,2.86,13.39,13.39,0,0,0,1.25,4q1.71,3.73,3.76,4.77a4.41,4.41,0,0,0,5.67-1.89,5.12,5.12,0,0,0,.42-2.86,13.3,13.3,0,0,0-1.24-4,14.62,14.62,0,0,0-1.73-3A7.28,7.28,0,0,0,215.27,189.84Zm3,10a2.39,2.39,0,0,1-3.76,1.72c-.84-.49-1.75-1.81-2.75-4s-1.39-3.78-1.21-4.84a2.3,2.3,0,0,1,1.35-1.77,2.49,2.49,0,0,1,2.39.2c.84.49,1.75,1.81,2.75,4S218.45,198.9,218.27,199.85Z"/><path d="M225.52,185.13a3.92,3.92,0,0,0-1.89-.63,4.37,4.37,0,0,0-2.06.43,4,4,0,0,0-2,1.87,5.15,5.15,0,0,0-.43,2.86,13.39,13.39,0,0,0,1.25,4q1.71,3.73,3.76,4.77a4.41,4.41,0,0,0,5.67-1.89,5.14,5.14,0,0,0,.42-2.86,13.29,13.29,0,0,0-1.24-4,14.19,14.19,0,0,0-1.73-3A6.92,6.92,0,0,0,225.52,185.13Zm3,10a2.39,2.39,0,0,1-3.76,1.72c-.84-.49-1.75-1.81-2.74-4s-1.39-3.78-1.21-4.84a2.31,2.31,0,0,1,1.35-1.77,2.5,2.5,0,0,1,2.39.2c.84.49,1.76,1.81,2.75,4S228.71,194.19,228.53,195.15Z"/><path d="M239.72,192.66l-6.08-13.26-1,.48a6.65,6.65,0,0,1-.64,2.43,10.81,10.81,0,0,1-1.66,2.65l.72,1.57a12.54,12.54,0,0,0,1.32-1.62,9.12,9.12,0,0,0,1-1.82l4.74,10.33,1.62-.75Z"/><path d="M253.07,198.64a10.93,10.93,0,0,1-1.67,2.64l.72,1.57a12.12,12.12,0,0,0,1.33-1.62,9,9,0,0,0,1-1.82l4.74,10.33,1.62-.74-6.09-13.27-1,.48A6.73,6.73,0,0,1,253.07,198.64Z"/><path d="M215.16,216.69a3.94,3.94,0,0,0-1.89-.62,4.25,4.25,0,0,0-2.06.43,4,4,0,0,0-2,1.87,5.2,5.2,0,0,0-.42,2.86,13.43,13.43,0,0,0,1.25,4c1.14,2.48,2.39,4.07,3.77,4.77a4,4,0,0,0,3.63,0,4,4,0,0,0,2-1.88,5.26,5.26,0,0,0,.41-2.87,13.3,13.3,0,0,0-1.24-4,14.4,14.4,0,0,0-1.73-3A7.57,7.57,0,0,0,215.16,216.69Zm3,10a2.39,2.39,0,0,1-3.76,1.72c-.84-.49-1.74-1.81-2.74-4s-1.4-3.78-1.22-4.84a2.29,2.29,0,0,1,1.35-1.76,2.47,2.47,0,0,1,2.39.2q1.25.72,2.75,4T218.17,226.7Z"/><path d="M221.59,213.86a10.92,10.92,0,0,1-1.66,2.65l.72,1.57a12.25,12.25,0,0,0,1.32-1.62,9.07,9.07,0,0,0,1-1.82L227.73,225l1.62-.74L223.27,211l-1,.48A6.57,6.57,0,0,1,221.59,213.86Z"/><path d="M230.49,209.78a10.92,10.92,0,0,1-1.66,2.65l.72,1.57a12.42,12.42,0,0,0,1.32-1.62,9,9,0,0,0,1-1.82l4.74,10.33,1.62-.74-6.09-13.27-1,.48A6.65,6.65,0,0,1,230.49,209.78Z"/><path d="M244.57,203.19a3.94,3.94,0,0,0-1.89-.62,4.24,4.24,0,0,0-2.06.42,4,4,0,0,0-2,1.87,5.2,5.2,0,0,0-.42,2.86,13.44,13.44,0,0,0,1.25,4q1.71,3.72,3.77,4.77a4.43,4.43,0,0,0,5.67-1.89,5.2,5.2,0,0,0,.41-2.87,13.29,13.29,0,0,0-1.24-4,14.16,14.16,0,0,0-1.73-3A7.08,7.08,0,0,0,244.57,203.19Zm3,10a2.39,2.39,0,0,1-3.76,1.72c-.84-.49-1.74-1.81-2.74-4s-1.4-3.78-1.22-4.84a2.3,2.3,0,0,1,1.35-1.76,2.47,2.47,0,0,1,2.39.2q1.25.72,2.75,4T247.58,213.21Z"/></g></g><g id="visszanézhető"><path class="cls-8" d="M201.8,355,176,298.87l-56.43,25.89L106.88,297l56.43-25.89-25.48-55.54,26.59-12.2L189.9,258.9,246.33,233l12.74,27.77-56.43,25.89,25.75,56.13Z"/><path class="cls-6" d="M495.83,363.83H92.67a3.25,3.25,0,0,0-2.24,5.6L274.08,544.73V646.48h48.73V544.68L498.12,369.37A3.25,3.25,0,0,0,495.83,363.83Z"/></g></svg>