<svg id="Réteg_1" data-name="Réteg 1" xmlns="http://www.w3.org/2000/svg" viewBox="0 0 600 600"><defs><style>.cls-1{fill:#c8eaf5;stroke-width:3px;}.cls-1,.cls-4{stroke:#000;}.cls-1,.cls-3,.cls-4,.cls-6,.cls-7{stroke-miterlimit:10;}.cls-2,.cls-3{fill:#4d4d4d;}.cls-3{stroke:#fafafa;}.cls-3,.cls-4{stroke-width:0.91px;}.cls-4{fill:#6dc065;}.cls-5{fill:#fafafa;}.cls-6{fill:#fffac0;stroke-width:3.47px;}.cls-6,.cls-7{stroke:#1a1a1a;}.cls-7{fill:none;stroke-width:2.98px;stroke-dasharray:11.75 11.75;}</style></defs><title>fizetes</title><path class="cls-1" d="M500,121.67H92.17A29.18,29.18,0,0,0,63,150.8V413a29.16,29.16,0,0,0,29.13,29.13H500A29.14,29.14,0,0,0,529.1,413V150.8A29.16,29.16,0,0,0,500,121.67Z"/><rect class="cls-2" x="64.57" y="179.92" width="463" height="87.38"/><path class="cls-3" d="M194.12,354.69H135.87a14.56,14.56,0,1,1,0-29.13h58.26a14.56,14.56,0,0,1,0,29.13Z"/><path class="cls-4" d="M506.62,79.17,404.67,35.48a14.62,14.62,0,0,0-11.51,0L291.22,79.17a14.53,14.53,0,0,0-8.8,13.37V150.8c0,80.13,29.62,127,109.26,172.85a14.64,14.64,0,0,0,14.51,0C485.82,277.88,515.45,231,515.45,150.8V92.54A14.51,14.51,0,0,0,506.62,79.17Z"/><path class="cls-5" d="M384.37,223.62h-.61a14.62,14.62,0,0,1-11.51-6.47l-29.13-43.69a14.56,14.56,0,0,1,24.23-16.14l18.09,27.12,45.79-57.27A14.57,14.57,0,0,1,454,145.38L395.73,218.2A14.68,14.68,0,0,1,384.37,223.62Z"/><circle class="cls-6" cx="131.66" cy="484.57" r="68.86"/><circle class="cls-7" cx="131.66" cy="484.57" r="56.13"/><circle class="cls-6" cx="188.37" cy="468.36" r="68.86"/><circle class="cls-7" cx="188.37" cy="468.36" r="56.13"/><circle class="cls-6" cx="202.26" cy="515.82" r="68.86"/><circle class="cls-7" cx="202.26" cy="515.82" r="56.13"/><circle class="cls-6" cx="230.04" cy="496.14" r="68.86"/><circle class="cls-7" cx="230.04" cy="496.14" r="56.13"/></svg>