<svg xmlns="http://www.w3.org/2000/svg" viewBox="0 0 600 600"><defs><style>.cls-1{fill:#e6e6e6;}.cls-1,.cls-2,.cls-3{stroke:#000;stroke-miterlimit:10;}.cls-1,.cls-2{stroke-width:3.29px;}.cls-2{fill:#aee0e8;}.cls-3{fill:gray;stroke-width:2.19px;}</style></defs><title>profik</title><g id="visszanézhető"><rect x="290.88" y="213.12" width="50.46" height="123.96"/><polygon class="cls-1" points="284.78 185.69 285.69 199.78 312.27 223.54 340.79 197.45 340.79 183.56 284.78 185.69"/><path class="cls-2" d="M352.44,185.37l-38.62,38.41h0l16.3,109H474.83c-8.74-37.91-30-88.41-30-88.41-3.22-7.7-11-12.64-18.38-15.68l-50-23Z"/><path class="cls-2" d="M311.56,223.78h0l-38.62-38.41-24,20.27-50,23c-7.4,3-14.68,7.65-18.38,15.68,0,0-21.21,50.49-30,88.41H295.25Z"/><path class="cls-3" d="M508.84,334.1A15.58,15.58,0,0,0,497.3,329H132.48A15.59,15.59,0,0,0,117,346.07l31.18,232.45a15.59,15.59,0,0,0,15.52,14.11H466.12a15.59,15.59,0,0,0,15.52-14.11l31.18-232.45A15.59,15.59,0,0,0,508.84,334.1Z"/><ellipse class="cls-1" cx="312.44" cy="109.45" rx="60.36" ry="84.44"/><path d="M366.91,126.14c.13-.43.25-.86.37-1.29,0,3.33-.12,8,1.08,10.66,0,.15,2.36,5.52,2.64,5.49,2,3,2.75-10.78,4.54-13.61a37.37,37.37,0,0,0,3.87-9.11c.64-2,1.2-4,1.62-6,.16.77,1.22,4.58,1.41,3.92.42-1.47,1.89-4.14,2.35-5.61.82-2.67,1.33-5.41,1.89-8.17.84-4.07,1.69-8.07,2.47-12.16A66,66,0,0,0,390,78.33c0-2.38-.24-4-.35-6.42A31.74,31.74,0,0,0,388,64.69C385.5,57.13,382.53,50,377.86,43.8a29.27,29.27,0,0,0-7.73-6.67c-.84-.5-1.76-1-2.74-1.53A25.72,25.72,0,0,1,372.05,37c2.61,1.06,8.14,4.6,8.16,4.92-.15-3-2.45-6.63-2.87-7.13a52.54,52.54,0,0,0-11.29-10.52c-3.36-2.25-7.66-2.64-11.56-2.18,1.4-5.51,11.41-6.26,11.22-6.29-5.38-6-17-3.71-23.39-1.36A36.36,36.36,0,0,0,331.89,20a25.57,25.57,0,0,0-3.81-1.78,38.71,38.71,0,0,0-9.38-2c-6.9-.67-14.51.77-21.21,2.53-3.67,1-7.88,1.93-11.28,3.87-4,2.29-7.75,5.11-11.85,7.25-3.92,2-7.64,4.49-11.59,6.48S251.06,44,251.88,43.7c1.95-.67,4-1.14,6-1.73a18.25,18.25,0,0,0-2.8,3.45,48.07,48.07,0,0,1-7.58,9.94,70.78,70.78,0,0,1-5.82,5c-1.33,1-6,5.2-5,4.84,3-1,7.68-2.67,10.17-4.69-.94,1.72-1.87,3.43-2.87,5-3.88,6-7.22,15.89-7.12,23.38,0,1.74-.67,3.43-.65,5.31s.05,3.87.22,5.81c.36,4.22,1.26,8.06,1.9,12.27.87,5.77,4.08,11.1,7.62,15.22.08.11.16.24.25.34a.9.9,0,0,0,.22.18l.28.32c.72.8,0-8.28-.11-9.69a28.07,28.07,0,0,1,1.8-11.62c2.58-6.59,7-11.52,12.08-15.56,4.85-3.84,8.82-8.43,13-13.24L274.48,77c-1.39,2.53-2.64,5.2-3.88,7.79-2.22,4.64-9.12,12.13-9,12.3.15.33,2.44-.92,3-1.25a18.37,18.37,0,0,0,1.7-1.07l.52-.18c1-.33,2.09-1.7,3.13-2.24,2.54-1.32,5.13-4.63,7.4-6.57,3.31-2.83,7.65-4.3,11.09-7.08,1.93-1.55,3.82-3.1,5.68-4.68l-.35.69c-.87,1.73-2.11,2.55-3.21,4s-5.44,8-5.16,8.07c2.44.8,6.85-1.38,9.15-2.23a48.91,48.91,0,0,0,12.76-7.43c-1.29,1.52-3.29,3.29-3.82,5a7.93,7.93,0,0,1-.9,1.15l-.1.12c-.13,0-1.3,2.6-.07,2.73,4.58.5,9.94-2.47,14.46-4.86l-.85,1c-1.6,1.9-3.19,3.8-4.8,5.69s-4.85,7.19-3.79,6.81c.2-.07.39-.18.59-.26,7.54-1,14.16-6.09,19.7-11.79q3.48-3.57,6.93-7.16l-.06.13c-2.56,5.35-5.86,9.53-9.32,14.07a.52.52,0,0,0-.48.32l0,.1a.8.8,0,0,0,.23,1c2.1,1.13,4.36-.87,6.18-2a54.94,54.94,0,0,0,10.56-9.29,81.58,81.58,0,0,0,7-8.94c-.36.88-.72,1.72-1.09,2.49-1.46,3-6.73,10-6.53,11.59l0,0c.16.63,10.91-5.77,13.69-8.67a113.61,113.61,0,0,0,9.29-10.16,46.12,46.12,0,0,0-4.56,14c-.58,3.78-1,7.58-1.64,11.35-.34,2.1-1.06,4.52-.26,6.54.1.24,4.28-3.39,5-4.46.41-.59.81-1.18,1.2-1.79-.57,4.7-1.39,9.31-2.07,14.12a49.75,49.75,0,0,1-3.39,12.74c-.94,2.19-3.36,7.64-2.9,7.54,3.52-.75,7.48-4.33,10.1-8-.39,1.82-.85,3.63-1.35,5.47-1.23,4.53-2.37,9.08-3.8,13.53a47.63,47.63,0,0,1-2.8,7.43"/></g></svg>