<svg id="Capa_1" data-name="Capa 1" xmlns="http://www.w3.org/2000/svg" viewBox="0 0 970.75 982.15"><defs><style>.cls-1{fill:#3b5998;}</style></defs><title>e-commerce-logo</title><path class="cls-1" d="M105.52,404.35,113.34,435l86,336.74H711.91l12.75-68q16.13-5.1,31.83-11.71A360.12,360.12,0,0,0,619.18,0c-1,0-1.92,0-2.89,0s-1.92,0-2.88,0A359.85,359.85,0,0,0,256.14,360.15a362.53,362.53,0,0,0,6,65.78l-84,0L156,339.35H5.7v32.5h0v32.5h99.82Zm217.4-11.7h91.8q.81,16.78,2.46,33.23l-88.72,0A297.3,297.3,0,0,1,322.92,392.65Zm54.55-206a424,424,0,0,0,54.59,21.88,607.31,607.31,0,0,0-17.34,119.13h-91.8A292.14,292.14,0,0,1,377.47,186.64Zm96.38-85.12q-3.33,5.83-6.52,12-8.24,15.86-15.26,33.28-14.65-4.8-28.22-10.45A295.34,295.34,0,0,1,473.85,101.52Zm335,34.93q-13.57,5.66-28.3,10.46-7.05-17.44-15.31-33.4-3.18-6.15-6.52-12A295,295,0,0,1,808.87,136.45Zm100.8,191.2h-91.8a607.71,607.71,0,0,0-17.31-119,423.69,423.69,0,0,0,54.67-21.85A292.17,292.17,0,0,1,909.67,327.65ZM854.51,534.5a421.76,421.76,0,0,0-54.25-21.67,606.38,606.38,0,0,0,17.61-120.18h91.8A292.21,292.21,0,0,1,854.51,534.5ZM479.79,392.65h104v33.17l-101.29,0Q480.7,409.5,479.79,392.65ZM495,224.71a628,628,0,0,0,88.84,10.7v92.24h-104A538.62,538.62,0,0,1,495,224.71ZM752.8,327.65h-104V235.43a627,627,0,0,0,88.87-10.65A539.72,539.72,0,0,1,752.8,327.65Zm-2.7,98.11-101.31,0V392.65h104Q751.9,409.43,750.1,425.76Zm-33.4-263.1a566.15,566.15,0,0,1-67.9,7.71V74.43c21.19,12.22,41.61,35.92,58.76,69C710.76,149.61,713.81,156,716.7,162.66ZM583.79,74.43v95.92a565.33,565.33,0,0,1-67.87-7.76q4.32-9.9,9.11-19.17C542.18,110.35,562.6,86.65,583.79,74.43Zm175,544.35q3.33-5.84,6.52-12,8-15.36,14.81-32.18,14.38,4.67,27.7,10.16A294.45,294.45,0,0,1,758.74,618.78ZM315.8,490.91h35.73l75.67,0,33.29,0h71.45l51.85,0,65,0,49.65,0-12,63.78-13.5,72-4.52,24.14-4.5,24-1.85,9.9L658,706.71H249.83L194.73,491l85.91,0Z" transform="translate(-5.7)"/><path class="cls-1" d="M629.11,982.15a96,96,0,1,0,0-191.94H281.21a96,96,0,1,0,90.84,65H538.27a96,96,0,0,0,90.84,126.94Zm-316.94-96a31,31,0,1,1-31-31A31,31,0,0,1,312.17,886.18Zm347.91,0a31,31,0,1,1-31-31A31,31,0,0,1,660.08,886.18Z" transform="translate(-5.7)"/></svg>