<svg id="Réteg_1" data-name="Réteg 1" xmlns="http://www.w3.org/2000/svg" viewBox="0 0 992 250"><defs><style>.cls-1,.cls-12,.cls-13,.cls-14,.cls-15,.cls-16,.cls-17,.cls-18,.cls-19,.cls-20,.cls-21,.cls-22,.cls-23,.cls-24,.cls-25,.cls-26,.cls-27,.cls-28,.cls-3,.cls-4,.cls-5,.cls-6,.cls-7,.cls-8,.cls-9{fill:none;}.cls-1,.cls-3,.cls-4,.cls-5,.cls-6{stroke:#a6a8ab;}.cls-1,.cls-11,.cls-12,.cls-13,.cls-14,.cls-15,.cls-16,.cls-17,.cls-18,.cls-19,.cls-20,.cls-21,.cls-22,.cls-23,.cls-24,.cls-25,.cls-26,.cls-27,.cls-28,.cls-3,.cls-4,.cls-5,.cls-6,.cls-7,.cls-8,.cls-9{stroke-miterlimit:10;}.cls-1,.cls-16,.cls-25{stroke-width:1.55px;}.cls-2{fill:#a6a8ab;}.cls-11,.cls-24,.cls-3,.cls-9{stroke-width:1.34px;}.cls-23,.cls-4{stroke-width:2.01px;}.cls-5{stroke-width:1.25px;}.cls-13,.cls-6{stroke-width:1.01px;}.cls-11,.cls-12,.cls-13,.cls-14,.cls-15,.cls-16,.cls-17,.cls-18,.cls-7,.cls-8,.cls-9{stroke:#231f20;}.cls-7{stroke-width:1.61px;}.cls-8{stroke-width:2.28px;}.cls-10{fill:#231f20;}.cls-11{fill:#fff;}.cls-12{stroke-width:1.16px;}.cls-14{stroke-width:0.66px;}.cls-15,.cls-20{stroke-width:0.67px;}.cls-17{stroke-width:1.38px;}.cls-18{stroke-width:1.15px;}.cls-19,.cls-20,.cls-21,.cls-22,.cls-23,.cls-24,.cls-25,.cls-26,.cls-27,.cls-28{stroke:#000;}.cls-19{stroke-width:1.18px;}.cls-21{stroke-width:0.77px;}.cls-22{stroke-width:0.84px;}.cls-26{stroke-width:1.52px;}.cls-27{stroke-width:1.03px;}.cls-28{stroke-width:0.69px;}.cls-29{fill:#25a9e0;}.cls-30{fill:red;}</style></defs><title>footer-xl</title><polyline class="cls-1" points="647.95 260.96 647.95 199.51 583.98 199.51 583.98 131.22"/><circle class="cls-2" cx="647.95" cy="199.51" r="5.48"/><circle class="cls-2" cx="583.98" cy="130.9" r="5.7"/><circle class="cls-2" cx="583.98" cy="199.51" r="4.36"/><line class="cls-3" x1="574.72" y1="251.8" x2="574.72" y2="164.11"/><circle class="cls-2" cx="574.72" cy="164.11" r="3.8"/><polyline class="cls-4" points="544.07 255.54 544.07 183.35 433.34 183.35 433.34 243.3 262.88 243.3 262.88 216.01 329.99 216.01 329.99 117.58 432.44 117.58"/><circle class="cls-2" cx="433.34" cy="183.35" r="4.25"/><circle class="cls-2" cx="262.88" cy="243.3" r="4.59"/><circle class="cls-2" cx="329.99" cy="117.58" r="7.27"/><circle class="cls-2" cx="433.4" cy="117.64" r="4.81"/><circle class="cls-3" cx="497.99" cy="183.4" r="5.71"/><line class="cls-4" x1="456.6" y1="253.99" x2="456.6" y2="183.8"/><circle class="cls-2" cx="456.6" cy="183.8" r="5.79"/><line class="cls-3" x1="330.21" y1="156.22" x2="296.99" y2="156.22"/><circle class="cls-2" cx="298" cy="155.89" r="3.77"/><polyline class="cls-5" points="916.21 212.38 793.51 212.38 793.51 238.5 655.55 238.5 655.18 216.81 710.18 216.81 710.18 171.11"/><circle class="cls-2" cx="793.51" cy="212.38" r="2.82"/><circle class="cls-2" cx="655.55" cy="238.44" r="3.71"/><circle class="cls-2" cx="710.18" cy="171.11" r="3.1"/><circle class="cls-2" cx="915.94" cy="212.43" r="3.89"/><circle class="cls-2" cx="989.14" cy="195.44" r="4.81"/><circle class="cls-2" cx="924.85" cy="151.29" r="4.81"/><circle class="cls-2" cx="709.97" cy="216.55" r="2.71"/><circle class="cls-2" cx="381.77" cy="229.98" r="3.87"/><line class="cls-4" x1="822.96" y1="287.91" x2="822.51" y2="213.64"/><circle class="cls-2" cx="822.51" cy="213.64" r="5.79"/><line class="cls-3" x1="710.06" y1="202.34" x2="685.39" y2="202.09"/><circle class="cls-2" cx="685.39" cy="202.09" r="3.1"/><polyline class="cls-1" points="1062.6 207.51 1001.41 207.51 1001.41 150.97 924.73 150.97"/><polyline class="cls-1" points="989.02 253.99 989.02 194.35 1058.72 194.35"/><polyline class="cls-6" points="502.24 254.37 502.24 212.43 485.69 212.43 485.69 195.43"/><circle class="cls-2" cx="502.24" cy="212.43" r="2.01"/><circle class="cls-2" cx="485.57" cy="195.82" r="2.18"/><line class="cls-3" x1="433.56" y1="182.06" x2="433.56" y2="117.67"/><circle class="cls-2" cx="378.98" cy="243.3" r="3.49"/><line class="cls-3" x1="378.98" y1="243.3" x2="378.98" y2="92.75"/><circle class="cls-2" cx="378.98" cy="92.75" r="4.7"/><circle class="cls-2" cx="758.88" cy="229.1" r="4.7"/><polyline class="cls-6" points="273.24 185.83 273.24 119.14 245.72 119.14 245.72 94.76"/><circle class="cls-2" cx="245.72" cy="94.76" r="2.8"/><circle class="cls-2" cx="273.24" cy="119.15" r="2.13"/><circle class="cls-2" cx="245.72" cy="119.15" r="2.46"/><polyline class="cls-6" points="759.11 230 759.11 183.47 731.59 183.47 731.59 159.09"/><circle class="cls-2" cx="731.59" cy="159.09" r="2.8"/><circle class="cls-2" cx="759.1" cy="183.47" r="2.13"/><circle class="cls-2" cx="731.59" cy="183.47" r="2.46"/><polyline class="cls-3" points="289.95 186.42 240.79 186.42 240.8 257.08"/><circle class="cls-2" cx="289.95" cy="186.42" r="2.85"/><polyline class="cls-6" points="220.27 218.13 201.16 218.13 201.16 200.34 223.2 200.34 223.2 149.9 191.99 149.9 191.99 98.11"/><circle class="cls-2" cx="201.17" cy="218.13" r="1.45"/><circle class="cls-2" cx="223.2" cy="200.34" r="1.85"/><circle class="cls-2" cx="223.2" cy="149.9" r="2.01"/><circle class="cls-2" cx="191.99" cy="149.9" r="1.79"/><circle class="cls-2" cx="191.99" cy="98.11" r="2.4"/><line class="cls-3" x1="395.71" y1="197.44" x2="395.39" y2="253.95"/><polyline class="cls-3" points="57.23 136.47 151.52 136.47 151.72 102.95"/><circle class="cls-2" cx="151.52" cy="136.47" r="3.36"/><circle class="cls-2" cx="54.13" cy="136.47" r="5.15"/><line class="cls-3" x1="25.75" y1="257.09" x2="25.75" y2="161.65"/><polyline class="cls-3" points="172.06 256.31 172.06 197.44 108.97 197.44 96 197.44 96 254.76"/><line class="cls-3" x1="110.09" y1="147.33" x2="110.09" y2="197.44"/><circle class="cls-2" cx="172.06" cy="197.44" r="4.81"/><circle class="cls-2" cx="109.98" cy="197.11" r="4.59"/><circle class="cls-2" cx="110.31" cy="146.66" r="4.59"/><line class="cls-7" x1="529.84" y1="252.44" x2="529.84" y2="174.21"/><polyline class="cls-8" points="346.99 256.31 346.99 143.31 289.95 143.31 289.95 92.3"/><circle class="cls-9" cx="346.99" cy="194.98" r="8.72"/><circle class="cls-10" cx="346.99" cy="143.3" r="5.71"/><circle class="cls-10" cx="289.95" cy="92.3" r="4.03"/><circle class="cls-11" cx="615.43" cy="233.23" r="7.61"/><circle class="cls-11" cx="557.72" cy="185.58" r="7.61"/><polyline class="cls-12" points="615.43 256.31 615.43 233.23 557.72 233.23 557.72 185.59"/><circle class="cls-10" cx="615.43" cy="233.23" r="5.28"/><circle class="cls-10" cx="557.72" cy="185.58" r="5.28"/><circle class="cls-10" cx="557.72" cy="233.23" r="2.85"/><circle cx="909.76" cy="195.05" r="2.68"/><circle class="cls-10" cx="665.82" cy="189.64" r="2.68"/><circle class="cls-9" cx="557.72" cy="233.23" r="9.73"/><polyline class="cls-7" points="417.12 257.08 417.12 134.58 385.58 134.58 385.58 143.31 346.99 143.31"/><circle class="cls-10" cx="416.79" cy="222.5" r="3.77"/><circle class="cls-10" cx="416.45" cy="164.78" r="4.03"/><circle class="cls-9" cx="416.45" cy="164.78" r="9.14"/><line class="cls-8" x1="437.59" y1="255.54" x2="437.59" y2="222.33"/><polyline class="cls-7" points="515.44 254.21 515.44 222.5 416.79 222.5"/><circle class="cls-10" cx="515.43" cy="222.85" r="3.44"/><circle class="cls-10" cx="437.51" cy="223.4" r="5.71"/><circle class="cls-9" cx="437.51" cy="223.4" r="8.56"/><circle class="cls-9" cx="515.44" cy="222.5" r="7.47"/><polyline class="cls-13" points="481.21 246.66 464.1 246.66 464.1 230.55"/><circle class="cls-10" cx="481.21" cy="246.66" r="1.85"/><circle class="cls-10" cx="464.1" cy="231.05" r="2.1"/><circle class="cls-10" cx="464.1" cy="246.66" r="1.9"/><polyline class="cls-7" points="416.12 165.45 321.82 165.45 321.82 256.31"/><line class="cls-7" x1="320.48" y1="205.38" x2="288.94" y2="205.38"/><circle class="cls-10" cx="321.82" cy="165.45" r="3.36"/><circle class="cls-10" cx="321.96" cy="205.25" r="3.02"/><circle class="cls-10" cx="288.94" cy="205.38" r="3.19"/><polyline class="cls-13" points="244.31 256.31 244.31 225.51 279.55 225.51 279.55 166.12 255.38 166.12 255.38 145.65"/><circle class="cls-10" cx="244.48" cy="225.69" r="3.87"/><circle class="cls-10" cx="279.38" cy="225.35" r="3.5"/><circle class="cls-9" cx="244.48" cy="225.69" r="8.42"/><circle class="cls-10" cx="279.54" cy="166.12" r="2.68"/><circle class="cls-10" cx="255.38" cy="145.65" r="2.85"/><circle class="cls-10" cx="237.6" cy="138.27" r="2.26"/><circle class="cls-10" cx="208.82" cy="183.72" r="2.21"/><polyline class="cls-13" points="217.13 251.02 217.13 243.97 229.21 243.97 229.21 229.54 208.41 229.54 208.41 183.57 237.6 183.57 237.6 138.27"/><circle class="cls-10" cx="237.38" cy="183.68" r="2.13"/><circle class="cls-10" cx="229.21" cy="243.97" r="1.68"/><circle class="cls-10" cx="229.21" cy="229.54" r="1.76"/><circle class="cls-10" cx="208.41" cy="229.54" r="2.21"/><circle class="cls-14" cx="208.82" cy="183.72" r="5.81"/><polyline class="cls-9" points="185.25 250.68 185.25 234.91 129.55 234.91 129.55 188.27"/><polyline class="cls-9" points="129.55 234.91 116.8 234.91 116.8 256.31"/><circle class="cls-10" cx="185.25" cy="234.91" r="5.7"/><circle class="cls-10" cx="129.55" cy="234.91" r="3.36"/><circle class="cls-10" cx="129.55" cy="188.27" r="5.54"/><circle class="cls-9" cx="129.55" cy="234.91" r="9.31"/><line class="cls-15" x1="153.66" y1="253.99" x2="153.71" y2="241.45"/><circle class="cls-10" cx="153.71" cy="241.45" r="2.01"/><circle class="cls-9" cx="169.75" cy="170.15" r="9.73"/><circle class="cls-9" cx="169.71" cy="38.05" r="8.05"/><polyline class="cls-12" points="88.61 254.76 88.61 170.82 169.82 170.82 169.82 37.27"/><circle class="cls-10" cx="169.82" cy="170.82" r="3.94"/><circle class="cls-10" cx="87.61" cy="171.16" r="7.05"/><circle class="cls-10" cx="169.71" cy="38.05" r="5.26"/><polyline class="cls-16" points="718.7 168.01 738.06 168.01 738.06 233.85 725.92 233.85 710.18 233.85 710.18 257.08"/><circle class="cls-10" cx="726" cy="211.3" r="3.1"/><circle class="cls-10" cx="748.31" cy="217.8" r="3.94"/><circle cx="773.1" cy="186.04" r="3.94"/><circle cx="873.01" cy="169.78" r="3.94"/><circle cx="873.01" cy="226.32" r="3.94"/><circle cx="937.51" cy="225.72" r="3.49"/><circle class="cls-10" cx="697.2" cy="227.31" r="5.26"/><circle class="cls-10" cx="719.86" cy="168.4" r="4.26"/><circle cx="535.13" cy="191.25" r="2.71"/><circle cx="891.42" cy="189.7" r="3.87"/><circle cx="971.98" cy="133.16" r="3.1"/><circle cx="721.79" cy="181.18" r="3.1"/><circle cx="952.61" cy="119.99" r="3.1"/><circle cx="910.01" cy="138.58" r="3.1"/><circle cx="666.03" cy="227.65" r="3.87"/><circle cx="971.73" cy="189.33" r="5.26"/><circle class="cls-10" cx="95.66" cy="112.1" r="3.69"/><circle class="cls-9" cx="127.87" cy="112.1" r="9.4"/><circle class="cls-9" cx="127.87" cy="70.83" r="8.95"/><circle class="cls-10" cx="221.83" cy="70.83" r="3.58"/><circle cx="210.99" cy="157.58" r="3.58"/><circle cx="267.91" cy="56.48" r="3.1"/><circle cx="178.83" cy="87.46" r="3.1"/><polyline class="cls-7" points="313.1 128.88 221.83 128.88 221.83 70.83 127.88 70.83 127.88 112.1 95.66 112.1 95.66 126.53 87.94 126.53 87.94 169.81"/><circle class="cls-10" cx="313.1" cy="128.88" r="5.96"/><circle class="cls-10" cx="221.83" cy="128.88" r="3.77"/><circle class="cls-10" cx="127.87" cy="70.83" r="4.03"/><circle class="cls-10" cx="127.87" cy="112.1" r="4.25"/><polyline class="cls-17" points="11.69 133.08 11.69 92.21 42.77 92.21 42.77 43.29"/><circle class="cls-10" cx="42.77" cy="44.15" r="3.17"/><circle class="cls-10" cx="42.77" cy="92.21" r="3.31"/><circle class="cls-10" cx="11.69" cy="133.08" r="3.31"/><circle class="cls-18" cx="11.69" cy="133.08" r="7.05"/><polyline class="cls-8" points="55.06 253.99 55.06 188.27 -3.96 188.27"/><circle class="cls-10" cx="55.06" cy="188.27" r="6.38"/><circle class="cls-9" cx="81.06" cy="51.44" r="9.73"/><circle class="cls-9" cx="44.99" cy="113.11" r="8.5"/><circle class="cls-10" cx="44.99" cy="172.16" r="4.03"/><circle class="cls-10" cx="81.06" cy="51.44" r="3.91"/><circle class="cls-10" cx="70.72" cy="192.74" r="2.35"/><circle class="cls-10" cx="80.9" cy="113.11" r="2.68"/><polyline class="cls-13" points="71.17 191.63 71.17 172.16 44.99 172.16 44.99 113.11 80.9 113.11 80.9 51.05"/><line class="cls-13" x1="79.89" y1="51.7" x2="15.46" y2="51.7"/><circle class="cls-10" cx="44.99" cy="113.11" r="3.36"/><circle class="cls-10" cx="15.46" cy="51.7" r="4.53"/><circle class="cls-10" cx="71.17" cy="172.16" r="3.8"/><line class="cls-9" x1="267.46" y1="128.21" x2="267.46" y2="56.48"/><polyline class="cls-9" points="802.35 218.25 748.31 218.25 748.31 190.95 697.31 190.95 697.31 225.85"/><polyline class="cls-19" points="629.88 283.68 629.62 227.65 666.03 227.65 666.03 189.7"/><polyline class="cls-20" points="624.83 176.56 537.59 176.56 537.59 148.37 477.19 148.37 477.19 175.21 462.42 175.21 462.71 120.76"/><polyline class="cls-21" points="535.73 191.71 512.74 191.71 512.74 159.24 491.75 159.1 491.75 122.7"/><ellipse class="cls-10" cx="655.24" cy="168.2" ry="0.67"/><circle cx="655.91" cy="168.2" r="2.01"/><circle class="cls-22" cx="655.91" cy="168.2" r="3.36"/><circle cx="491.81" cy="123.44" r="2.01"/><circle cx="477.1" cy="148.23" r="2.01"/><circle cx="637.01" cy="214.9" r="2.01"/><circle cx="529.79" cy="174.06" r="2.01"/><circle cx="462.81" cy="120.71" r="3.49"/><polyline class="cls-21" points="655.96 168.43 637.59 168.43 637.59 215.4 614.77 215.4 614.77 204.66 594.64 204.66 594.64 251.66"/><circle cx="594.64" cy="204.86" r="2.68"/><circle cx="537.32" cy="148.31" r="2.68"/><circle cx="624.85" cy="176.2" r="2.68"/><circle cx="476.91" cy="175.42" r="2.68"/><polyline class="cls-23" points="802 254.76 802 196.32 862.4 196.32 862.4 245.98 924.14 245.98 924.14 254.37"/><polyline class="cls-24" points="890.95 245.88 890.95 189.51 971.48 189.51 971.48 131.79"/><polyline class="cls-25" points="1054.85 225.33 952.61 225.33 952.61 119.99"/><polyline class="cls-26" points="952.22 195.12 909.62 195.12 909.62 138.58"/><circle class="cls-27" cx="910.01" cy="138.58" r="6.58"/><polyline class="cls-21" points="937.12 270.25 937.12 226.88 872.83 226.88 872.83 169.56 802.35 169.56 802.35 185.83 772.91 185.83"/><polyline class="cls-28" points="211.28 157.94 182.16 157.94 182.16 135.21 215.07 135.21 215.07 87.46 179 87.46"/><rect class="cls-29" x="536.41" y="203.87" width="16.44" height="16.44" transform="translate(1089.26 424.19) rotate(-180)"/><rect class="cls-30" x="408.56" y="127.03" width="16.44" height="16.44" transform="translate(833.57 270.5) rotate(-180)"/><rect class="cls-29" x="247.66" y="158.98" width="16.44" height="16.44" transform="translate(511.76 334.4) rotate(-180)"/><rect class="cls-29" x="162.35" y="112.5" width="16.44" height="16.44" transform="translate(341.15 241.45) rotate(-180)"/><rect class="cls-30" x="687.82" y="179.81" width="16.44" height="16.44" transform="translate(1392.08 376.06) rotate(-180)"/><rect class="cls-29" x="946.03" y="202.03" width="16.44" height="16.44" transform="translate(1908.49 420.5) rotate(-180)"/><rect class="cls-30" x="45.83" y="231.7" width="16.44" height="16.44" transform="translate(108.11 479.84) rotate(-180)"/><rect class="cls-29" x="337.82" y="212.61" width="16.44" height="16.44" transform="translate(692.07 441.66) rotate(-180)"/><circle class="cls-2" cx="220.53" cy="218.13" r="1.45"/><line class="cls-16" x1="725.67" y1="233.85" x2="725.67" y2="210.61"/></svg>