<svg id="Réteg_1" data-name="Réteg 1" xmlns="http://www.w3.org/2000/svg" viewBox="0 0 400 100"><defs><style>.cls-1,.cls-12,.cls-13,.cls-14,.cls-15,.cls-16,.cls-17,.cls-18,.cls-19,.cls-20,.cls-21,.cls-22,.cls-23,.cls-24,.cls-25,.cls-26,.cls-27,.cls-28,.cls-3,.cls-4,.cls-5,.cls-6,.cls-7,.cls-8,.cls-9{fill:none;}.cls-1,.cls-3,.cls-4,.cls-5,.cls-6{stroke:#a6a8ab;}.cls-1,.cls-11,.cls-12,.cls-13,.cls-14,.cls-15,.cls-16,.cls-17,.cls-18,.cls-19,.cls-20,.cls-21,.cls-22,.cls-23,.cls-24,.cls-25,.cls-26,.cls-27,.cls-28,.cls-3,.cls-4,.cls-5,.cls-6,.cls-7,.cls-8,.cls-9{stroke-miterlimit:10;}.cls-1,.cls-16,.cls-25{stroke-width:0.65px;}.cls-2{fill:#a6a8ab;}.cls-11,.cls-24,.cls-3,.cls-9{stroke-width:0.56px;}.cls-23,.cls-4{stroke-width:0.84px;}.cls-5{stroke-width:0.53px;}.cls-13,.cls-6{stroke-width:0.42px;}.cls-11,.cls-12,.cls-13,.cls-14,.cls-15,.cls-16,.cls-17,.cls-18,.cls-7,.cls-8,.cls-9{stroke:#231f20;}.cls-7{stroke-width:0.67px;}.cls-8{stroke-width:0.96px;}.cls-10{fill:#231f20;}.cls-11{fill:#fff;}.cls-12{stroke-width:0.49px;}.cls-14{stroke-width:0.28px;}.cls-15,.cls-20{stroke-width:0.28px;}.cls-17{stroke-width:0.58px;}.cls-18{stroke-width:0.48px;}.cls-19,.cls-20,.cls-21,.cls-22,.cls-23,.cls-24,.cls-25,.cls-26,.cls-27,.cls-28{stroke:#000;}.cls-19{stroke-width:0.49px;}.cls-21{stroke-width:0.32px;}.cls-22{stroke-width:0.35px;}.cls-26{stroke-width:0.64px;}.cls-27{stroke-width:0.43px;}.cls-28{stroke-width:0.29px;}.cls-29{fill:#25a9e0;}.cls-30{fill:red;}</style></defs><title>header-xs</title><polyline class="cls-1" points="131.88 -3.8 131.88 21.93 158.67 21.93 158.67 50.52"/><circle class="cls-2" cx="131.88" cy="21.93" r="2.3"/><circle class="cls-2" cx="158.67" cy="50.66" r="2.39"/><circle class="cls-2" cx="158.67" cy="21.93" r="1.83"/><line class="cls-3" x1="162.54" y1="0.03" x2="162.54" y2="36.75"/><circle class="cls-2" cx="162.54" cy="36.75" r="1.59"/><polyline class="cls-4" points="175.38 -1.53 175.38 28.7 221.75 28.7 221.75 3.59 293.13 3.59 293.13 15.02 265.02 15.02 265.02 56.24 222.12 56.24"/><circle class="cls-2" cx="221.75" cy="28.7" r="1.78"/><circle class="cls-2" cx="293.13" cy="3.59" r="1.92"/><circle class="cls-2" cx="265.02" cy="56.24" r="3.04"/><circle class="cls-2" cx="221.72" cy="56.21" r="2.01"/><circle class="cls-3" cx="194.67" cy="28.67" r="2.39"/><line class="cls-4" x1="212" y1="-0.88" x2="212" y2="28.51"/><circle class="cls-2" cx="212" cy="28.51" r="2.42"/><line class="cls-3" x1="264.93" y1="40.05" x2="278.84" y2="40.05"/><circle class="cls-2" cx="278.42" cy="40.2" r="1.58"/><polyline class="cls-5" points="19.55 16.54 70.92 16.54 70.92 5.6 128.69 5.6 128.85 14.69 105.82 14.69 105.82 33.82"/><circle class="cls-2" cx="70.92" cy="16.54" r="1.18"/><circle class="cls-2" cx="128.7" cy="5.63" r="1.55"/><circle class="cls-2" cx="105.82" cy="33.82" r="1.3"/><circle class="cls-2" cx="19.66" cy="16.52" r="1.63"/><circle class="cls-2" cx="15.93" cy="42.12" r="2.01"/><circle class="cls-2" cx="105.91" cy="14.79" r="1.14"/><circle class="cls-2" cx="243.34" cy="9.17" r="1.62"/><line class="cls-4" x1="58.59" y1="-15.09" x2="58.78" y2="16.01"/><circle class="cls-2" cx="58.78" cy="16.01" r="2.42"/><line class="cls-3" x1="105.87" y1="20.75" x2="116.2" y2="20.85"/><circle class="cls-2" cx="116.2" cy="20.85" r="1.3"/><polyline class="cls-1" points="-41.76 18.58 -16.13 18.58 -16.13 42.25 15.98 42.25"/><polyline class="cls-6" points="192.89 -1.05 192.89 16.52 199.83 16.52 199.83 23.64"/><circle class="cls-2" cx="192.89" cy="16.52" r="0.84"/><circle class="cls-2" cx="199.87" cy="23.47" r="0.91"/><line class="cls-3" x1="221.65" y1="29.24" x2="221.65" y2="56.2"/><circle class="cls-2" cx="244.51" cy="3.59" r="1.46"/><line class="cls-3" x1="244.51" y1="3.59" x2="244.51" y2="66.64"/><circle class="cls-2" cx="244.51" cy="66.64" r="1.97"/><circle class="cls-2" cx="85.43" cy="9.54" r="1.97"/><polyline class="cls-6" points="288.79 27.66 288.79 55.58 300.31 55.58 300.31 65.79"/><circle class="cls-2" cx="300.31" cy="65.79" r="1.17"/><circle class="cls-2" cx="288.79" cy="55.58" r="0.89"/><circle class="cls-2" cx="300.31" cy="55.58" r="1.03"/><polyline class="cls-6" points="85.33 9.16 85.33 28.65 96.85 28.65 96.85 38.86"/><circle class="cls-2" cx="96.85" cy="38.86" r="1.17"/><circle class="cls-2" cx="85.33" cy="28.65" r="0.89"/><circle class="cls-2" cx="96.85" cy="28.65" r="1.03"/><polyline class="cls-3" points="281.79 27.41 302.38 27.41 302.37 -2.18"/><circle class="cls-2" cx="281.79" cy="27.41" r="1.19"/><polyline class="cls-6" points="310.97 14.13 318.97 14.13 318.97 21.58 309.74 21.58 309.74 42.7 322.81 42.7 322.81 64.39"/><circle class="cls-2" cx="318.97" cy="14.13" r="0.61"/><circle class="cls-2" cx="309.74" cy="21.58" r="0.77"/><circle class="cls-2" cx="309.74" cy="42.7" r="0.84"/><circle class="cls-2" cx="322.81" cy="42.7" r="0.75"/><circle class="cls-2" cx="322.81" cy="64.39" r="1.01"/><line class="cls-3" x1="237.5" y1="22.79" x2="237.64" y2="-0.87"/><polyline class="cls-3" points="379.24 48.33 339.76 48.33 339.67 62.36"/><circle class="cls-2" cx="339.76" cy="48.33" r="1.41"/><circle class="cls-2" cx="380.54" cy="48.33" r="2.15"/><line class="cls-3" x1="392.42" y1="-2.18" x2="392.42" y2="37.78"/><polyline class="cls-3" points="331.16 -1.86 331.16 22.8 357.57 22.8 363.01 22.8 363.01 -1.21"/><line class="cls-3" x1="357.11" y1="43.78" x2="357.11" y2="22.8"/><circle class="cls-2" cx="331.16" cy="22.8" r="2.01"/><circle class="cls-2" cx="357.15" cy="22.94" r="1.92"/><circle class="cls-2" cx="357.01" cy="44.06" r="1.92"/><line class="cls-7" x1="181.34" y1="-0.23" x2="181.34" y2="32.52"/><polyline class="cls-8" points="257.9 -1.86 257.9 45.46 281.79 45.46 281.79 66.82"/><circle class="cls-9" cx="257.9" cy="23.83" r="3.65"/><circle class="cls-10" cx="257.9" cy="45.46" r="2.39"/><circle class="cls-10" cx="281.79" cy="66.82" r="1.69"/><circle class="cls-11" cx="145.49" cy="7.81" r="3.19"/><circle class="cls-11" cx="169.66" cy="27.76" r="3.19"/><polyline class="cls-12" points="145.49 -1.86 145.49 7.81 169.66 7.81 169.66 27.76"/><circle class="cls-10" cx="145.49" cy="7.81" r="2.21"/><circle class="cls-10" cx="169.66" cy="27.76" r="2.21"/><circle class="cls-10" cx="169.66" cy="7.81" r="1.19"/><circle cx="22.24" cy="23.8" r="1.12"/><circle class="cls-10" cx="124.4" cy="26.06" r="1.12"/><circle class="cls-9" cx="169.66" cy="7.81" r="4.07"/><polyline class="cls-7" points="228.54 -2.18 228.54 49.12 241.75 49.12 241.75 45.46 257.9 45.46"/><circle class="cls-10" cx="228.68" cy="12.3" r="1.58"/><circle class="cls-10" cx="228.82" cy="36.47" r="1.69"/><circle class="cls-9" cx="228.82" cy="36.47" r="3.83"/><line class="cls-8" x1="219.97" y1="-1.53" x2="219.97" y2="12.37"/><polyline class="cls-7" points="187.37 -0.97 187.37 12.3 228.68 12.3"/><circle class="cls-10" cx="187.37" cy="12.15" r="1.44"/><circle class="cls-10" cx="220" cy="11.92" r="2.39"/><circle class="cls-9" cx="220" cy="11.92" r="3.58"/><circle class="cls-9" cx="187.37" cy="12.3" r="3.13"/><polyline class="cls-13" points="201.7 2.19 208.87 2.19 208.87 8.93"/><circle class="cls-10" cx="201.7" cy="2.19" r="0.77"/><circle class="cls-10" cx="208.87" cy="8.72" r="0.88"/><circle class="cls-10" cx="208.87" cy="2.19" r="0.8"/><polyline class="cls-7" points="228.96 36.19 268.44 36.19 268.44 -1.86"/><line class="cls-7" x1="269" y1="19.47" x2="282.21" y2="19.47"/><circle class="cls-10" cx="268.44" cy="36.19" r="1.41"/><circle class="cls-10" cx="268.39" cy="19.52" r="1.26"/><circle class="cls-10" cx="282.21" cy="19.47" r="1.33"/><polyline class="cls-13" points="300.9 -1.86 300.9 11.04 286.15 11.04 286.15 35.91 296.26 35.91 296.26 44.48"/><circle class="cls-10" cx="300.83" cy="10.97" r="1.62"/><circle class="cls-10" cx="286.22" cy="11.11" r="1.46"/><circle class="cls-9" cx="300.83" cy="10.97" r="3.52"/><circle class="cls-10" cx="286.15" cy="35.91" r="1.12"/><circle class="cls-10" cx="296.26" cy="44.48" r="1.19"/><circle class="cls-10" cx="303.71" cy="47.57" r="0.95"/><circle class="cls-10" cx="315.76" cy="28.54" r="0.93"/><polyline class="cls-13" points="312.28 0.36 312.28 3.31 307.22 3.31 307.22 9.35 315.94 9.35 315.94 28.6 303.71 28.6 303.71 47.57"/><circle class="cls-10" cx="303.81" cy="28.56" r="0.89"/><circle class="cls-10" cx="307.22" cy="3.31" r="0.7"/><circle class="cls-10" cx="307.22" cy="9.35" r="0.74"/><circle class="cls-10" cx="315.94" cy="9.35" r="0.93"/><circle class="cls-14" cx="315.76" cy="28.54" r="2.43"/><polyline class="cls-9" points="325.63 0.5 325.63 7.11 348.96 7.11 348.96 26.64"/><polyline class="cls-9" points="348.96 7.11 354.3 7.11 354.3 -1.86"/><circle class="cls-10" cx="325.63" cy="7.1" r="2.39"/><circle class="cls-10" cx="348.96" cy="7.1" r="1.41"/><circle class="cls-10" cx="348.96" cy="26.64" r="2.32"/><circle class="cls-9" cx="348.96" cy="7.1" r="3.9"/><line class="cls-15" x1="338.86" y1="-0.88" x2="338.84" y2="4.36"/><circle class="cls-10" cx="338.84" cy="4.36" r="0.84"/><circle class="cls-9" cx="332.12" cy="34.22" r="4.07"/><circle class="cls-9" cx="332.14" cy="89.54" r="3.37"/><polyline class="cls-12" points="366.1 -1.21 366.1 33.94 332.1 33.94 332.1 89.87"/><circle class="cls-10" cx="332.1" cy="33.94" r="1.65"/><circle class="cls-10" cx="366.52" cy="33.8" r="2.95"/><circle class="cls-10" cx="332.14" cy="89.54" r="2.2"/><polyline class="cls-16" points="102.25 35.12 94.14 35.12 94.14 7.55 99.23 7.55 105.82 7.55 105.82 -2.18"/><circle class="cls-10" cx="99.19" cy="16.99" r="1.3"/><circle class="cls-10" cx="89.85" cy="14.27" r="1.65"/><circle cx="79.47" cy="27.57" r="1.65"/><circle cx="37.63" cy="34.38" r="1.65"/><circle cx="37.63" cy="10.7" r="1.65"/><circle cx="10.63" cy="10.95" r="1.46"/><circle class="cls-10" cx="111.26" cy="10.29" r="2.2"/><circle class="cls-10" cx="101.77" cy="34.96" r="1.78"/><circle cx="179.12" cy="25.39" r="1.14"/><circle cx="29.92" cy="26.04" r="1.62"/><circle cx="100.96" cy="29.6" r="1.3"/><circle cx="4.3" cy="55.23" r="1.3"/><circle cx="22.14" cy="47.44" r="1.3"/><circle cx="124.31" cy="10.14" r="1.62"/><circle class="cls-10" cx="363.15" cy="58.53" r="1.55"/><circle class="cls-9" cx="349.66" cy="58.53" r="3.93"/><circle class="cls-9" cx="349.66" cy="75.82" r="3.75"/><circle class="cls-10" cx="310.32" cy="75.82" r="1.5"/><circle cx="314.86" cy="39.49" r="1.5"/><circle cx="291.02" cy="81.82" r="1.3"/><circle cx="328.32" cy="68.85" r="1.3"/><polyline class="cls-7" points="272.1 51.51 310.32 51.51 310.32 75.81 349.66 75.81 349.66 58.53 363.15 58.53 363.15 52.49 366.38 52.49 366.38 34.36"/><circle class="cls-10" cx="272.1" cy="51.51" r="2.49"/><circle class="cls-10" cx="310.32" cy="51.51" r="1.58"/><circle class="cls-10" cx="349.66" cy="75.82" r="1.69"/><circle class="cls-10" cx="349.66" cy="58.53" r="1.78"/><polyline class="cls-17" points="398.31 49.75 398.31 66.86 385.3 66.86 385.3 87.35"/><circle class="cls-10" cx="385.29" cy="86.99" r="1.33"/><circle class="cls-10" cx="385.29" cy="66.86" r="1.39"/><circle class="cls-10" cx="398.31" cy="49.75" r="1.39"/><circle class="cls-18" cx="398.31" cy="49.75" r="2.95"/><polyline class="cls-8" points="380.15 -0.88 380.15 26.64 404.87 26.64"/><circle class="cls-10" cx="380.15" cy="26.64" r="2.67"/><circle class="cls-9" cx="369.26" cy="83.93" r="4.07"/><circle class="cls-9" cx="384.37" cy="58.11" r="3.56"/><circle class="cls-10" cx="384.37" cy="33.38" r="1.69"/><circle class="cls-10" cx="369.26" cy="83.93" r="1.64"/><circle class="cls-10" cx="373.59" cy="24.76" r="0.98"/><circle class="cls-10" cx="369.33" cy="58.11" r="1.12"/><polyline class="cls-13" points="373.41 25.23 373.41 33.38 384.37 33.38 384.37 58.11 369.33 58.11 369.33 84.09"/><line class="cls-13" x1="369.75" y1="83.82" x2="396.73" y2="83.82"/><circle class="cls-10" cx="384.37" cy="58.11" r="1.41"/><circle class="cls-10" cx="396.73" cy="83.82" r="1.9"/><circle class="cls-10" cx="373.41" cy="33.38" r="1.59"/><line class="cls-9" x1="291.21" y1="51.79" x2="291.21" y2="81.82"/><polyline class="cls-9" points="67.22 14.08 89.85 14.08 89.85 25.51 111.21 25.51 111.21 10.9"/><polyline class="cls-19" points="139.44 -13.32 139.55 10.14 124.31 10.14 124.31 26.04"/><polyline class="cls-20" points="141.56 31.54 178.09 31.54 178.09 43.34 203.39 43.34 203.39 32.1 209.57 32.1 209.45 54.9"/><polyline class="cls-21" points="178.87 25.19 188.5 25.19 188.5 38.79 197.29 38.85 197.29 54.09"/><circle cx="128.55" cy="35.04" r="0.84"/><circle class="cls-22" cx="128.55" cy="35.04" r="1.41"/><circle cx="197.26" cy="53.78" r="0.84"/><circle cx="203.42" cy="43.4" r="0.84"/><circle cx="136.46" cy="15.49" r="0.84"/><circle cx="181.36" cy="32.59" r="0.84"/><circle cx="209.41" cy="54.93" r="1.46"/><polyline class="cls-21" points="128.53 34.95 136.22 34.95 136.22 15.27 145.77 15.27 145.77 19.77 154.2 19.77 154.2 0.09"/><circle cx="154.2" cy="19.69" r="1.12"/><circle cx="178.2" cy="43.37" r="1.12"/><circle cx="141.55" cy="31.69" r="1.12"/><circle cx="203.5" cy="32.02" r="1.12"/><polyline class="cls-23" points="67.37 -1.21 67.37 23.26 42.08 23.26 42.08 2.47 16.22 2.47 16.22 -1.05"/><polyline class="cls-24" points="30.12 2.51 30.12 26.12 -3.6 26.12 -3.6 50.29"/><polyline class="cls-25" points="-38.51 11.12 4.3 11.12 4.3 55.23"/><polyline class="cls-26" points="4.46 23.77 22.3 23.77 22.3 47.44"/><circle class="cls-27" cx="22.14" cy="47.44" r="2.76"/><polyline class="cls-21" points="10.79 -7.7 10.79 10.47 37.71 10.47 37.71 34.47 67.22 34.47 67.22 27.66 79.55 27.66"/><polyline class="cls-28" points="314.74 39.34 326.93 39.34 326.93 48.86 313.14 48.86 313.14 68.85 328.25 68.85"/><rect class="cls-29" x="171.7" y="13.22" width="6.89" height="6.89"/><rect class="cls-30" x="225.24" y="45.39" width="6.89" height="6.89"/><rect class="cls-29" x="292.61" y="32.02" width="6.89" height="6.89"/><rect class="cls-29" x="328.34" y="51.48" width="6.89" height="6.89"/><rect class="cls-30" x="108.3" y="23.29" width="6.89" height="6.89"/><rect class="cls-29" x="0.17" y="13.99" width="6.89" height="6.89"/><rect class="cls-30" x="377.13" y="1.56" width="6.89" height="6.89"/><rect class="cls-29" x="254.86" y="9.56" width="6.89" height="6.89"/><circle class="cls-2" cx="310.86" cy="14.13" r="0.61"/><line class="cls-16" x1="99.33" y1="7.55" x2="99.33" y2="17.28"/></svg>