<svg id="Réteg_1" data-name="Réteg 1" xmlns="http://www.w3.org/2000/svg" xmlns:xlink="http://www.w3.org/1999/xlink" viewBox="0 0 200 200"><defs><style>.cls-1{mix-blend-mode:multiply;fill:url(#radial-gradient);}.cls-2{stroke:#0080b8;fill:url(#radial-gradient-2);}.cls-3{mix-blend-mode:screen;}.cls-4{fill:url(#linear-gradient);}.cls-5{fill:url(#linear-gradient-2);}.cls-6{fill:url(#linear-gradient-3);}.cls-7{fill:url(#linear-gradient-4);}</style><radialGradient id="radial-gradient" cx="2597.83" cy="-28555.8" r="21" gradientTransform="translate(-3803.91 6163.99) scale(1.48 0.21)" gradientUnits="userSpaceOnUse"><stop offset="0.1" stop-color="#dfdcdb" stop-opacity="0.85"/><stop offset="1" stop-color="#fff" stop-opacity="0"/></radialGradient><radialGradient id="radial-gradient-2" cx="29.04" cy="37.37" r="22.25" gradientTransform="translate(0)" gradientUnits="userSpaceOnUse"><stop offset="0" stop-color="#d1edfb"/><stop offset="1" stop-color="#3da3db"/></radialGradient><linearGradient id="linear-gradient" x1="34.11" y1="-2.67" x2="39.11" y2="37.83" gradientUnits="userSpaceOnUse"><stop offset="0" stop-color="#fff"/><stop offset="1"/></linearGradient><linearGradient id="linear-gradient-2" x1="9.25" y1="0.4" x2="14.25" y2="40.9" xlink:href="#linear-gradient"/><linearGradient id="linear-gradient-3" x1="29.28" y1="-10.37" x2="46.84" y2="29.24" xlink:href="#linear-gradient"/><linearGradient id="linear-gradient-4" x1="4.54" y1="0.6" x2="22.09" y2="40.21" xlink:href="#linear-gradient"/><symbol id="Icon_1_-_Check" data-name="Icon 1 - Check" viewBox="0 0 62 48.98"><ellipse class="cls-1" cx="31" cy="44.48" rx="31" ry="4.5"/><polygon class="cls-2" points="56 9.57 47.13 0.71 23.87 23.97 14.88 14.97 6 23.84 23.86 41.71 23.87 41.68 23.9 41.71 56 9.57"/><g class="cls-3"><polygon class="cls-4" points="24.6 26.07 25.33 26.8 26.05 26.07 48.56 3.56 47.13 2.12 24.58 24.67 23.89 25.36 24.6 26.07"/><polygon class="cls-5" points="16.11 17.62 14.88 16.38 7.42 23.85 8.65 25.08 16.11 17.62"/></g><g class="cls-3"><path class="cls-6" d="M39.65,19q3.35-.64,6.6-1.06l8.34-8.34L47.13,2.12,27.2,22.05A116.62,116.62,0,0,1,39.65,19Z"/><path class="cls-7" d="M22.21,23.72l-7.34-7.34L7.42,23.85l4.44,4.44A81.18,81.18,0,0,1,22.21,23.72Z"/></g></symbol></defs><title>pipa</title><use width="62" height="48.98" transform="translate(10 23.15) scale(3.24 3.24)" xlink:href="#Icon_1_-_Check"/></svg>