<svg id="Réteg_1" data-name="Réteg 1" xmlns="http://www.w3.org/2000/svg" viewBox="0 0 500 120"><defs><style>.cls-1,.cls-12,.cls-13,.cls-14,.cls-15,.cls-16,.cls-17,.cls-18,.cls-19,.cls-20,.cls-21,.cls-22,.cls-23,.cls-24,.cls-25,.cls-26,.cls-27,.cls-28,.cls-3,.cls-4,.cls-5,.cls-6,.cls-7,.cls-8,.cls-9{fill:none;}.cls-1,.cls-3,.cls-4,.cls-5,.cls-6{stroke:#a6a8ab;}.cls-1,.cls-11,.cls-12,.cls-13,.cls-14,.cls-15,.cls-16,.cls-17,.cls-18,.cls-19,.cls-20,.cls-21,.cls-22,.cls-23,.cls-24,.cls-25,.cls-26,.cls-27,.cls-28,.cls-3,.cls-4,.cls-5,.cls-6,.cls-7,.cls-8,.cls-9{stroke-miterlimit:10;}.cls-1,.cls-16,.cls-25{stroke-width:0.73px;}.cls-2{fill:#a6a8ab;}.cls-11,.cls-24,.cls-3,.cls-9{stroke-width:0.63px;}.cls-23,.cls-4{stroke-width:0.95px;}.cls-5{stroke-width:0.59px;}.cls-13,.cls-6{stroke-width:0.48px;}.cls-11,.cls-12,.cls-13,.cls-14,.cls-15,.cls-16,.cls-17,.cls-18,.cls-7,.cls-8,.cls-9{stroke:#231f20;}.cls-7{stroke-width:0.76px;}.cls-8{stroke-width:1.08px;}.cls-10{fill:#231f20;}.cls-11{fill:#fff;}.cls-12{stroke-width:0.55px;}.cls-14{stroke-width:0.31px;}.cls-15,.cls-20{stroke-width:0.32px;}.cls-17{stroke-width:0.65px;}.cls-18{stroke-width:0.54px;}.cls-19,.cls-20,.cls-21,.cls-22,.cls-23,.cls-24,.cls-25,.cls-26,.cls-27,.cls-28{stroke:#000;}.cls-19{stroke-width:0.56px;}.cls-21{stroke-width:0.37px;}.cls-22{stroke-width:0.4px;}.cls-26{stroke-width:0.72px;}.cls-27{stroke-width:0.49px;}.cls-28{stroke-width:0.33px;}.cls-29{fill:#25a9e0;}.cls-30{fill:red;}</style></defs><title>footer-sm</title><polyline class="cls-1" points="306.67 125.16 306.67 96.09 276.41 96.09 276.41 63.79"/><circle class="cls-2" cx="306.67" cy="96.09" r="2.59"/><circle class="cls-2" cx="276.41" cy="63.64" r="2.7"/><circle class="cls-2" cx="276.41" cy="96.09" r="2.06"/><line class="cls-3" x1="272.03" y1="120.83" x2="272.03" y2="79.35"/><circle class="cls-2" cx="272.03" cy="79.35" r="1.8"/><polyline class="cls-4" points="257.53 122.6 257.53 88.45 205.15 88.45 205.15 116.81 124.52 116.81 124.52 103.9 156.27 103.9 156.27 57.34 204.73 57.34"/><circle class="cls-2" cx="205.15" cy="88.45" r="2.01"/><circle class="cls-2" cx="124.52" cy="116.81" r="2.17"/><circle class="cls-2" cx="156.27" cy="57.34" r="3.44"/><circle class="cls-2" cx="205.18" cy="57.37" r="2.28"/><circle class="cls-3" cx="235.74" cy="88.48" r="2.7"/><line class="cls-4" x1="216.16" y1="121.86" x2="216.16" y2="88.66"/><circle class="cls-2" cx="216.16" cy="88.66" r="2.74"/><line class="cls-3" x1="156.37" y1="75.62" x2="140.66" y2="75.62"/><circle class="cls-2" cx="141.13" cy="75.46" r="1.79"/><polyline class="cls-5" points="433.57 102.18 375.53 102.18 375.53 114.54 310.27 114.54 310.09 104.28 336.11 104.28 336.11 82.66"/><circle class="cls-2" cx="375.53" cy="102.18" r="1.33"/><circle class="cls-2" cx="310.27" cy="114.51" r="1.76"/><circle class="cls-2" cx="336.11" cy="82.66" r="1.47"/><circle class="cls-2" cx="433.44" cy="102.21" r="1.84"/><circle class="cls-2" cx="468.06" cy="94.17" r="2.28"/><circle class="cls-2" cx="437.65" cy="73.28" r="2.28"/><circle class="cls-2" cx="336.01" cy="104.15" r="1.28"/><circle class="cls-2" cx="180.76" cy="110.51" r="1.83"/><line class="cls-4" x1="389.45" y1="137.91" x2="389.24" y2="102.78"/><circle class="cls-2" cx="389.24" cy="102.78" r="2.74"/><line class="cls-3" x1="336.05" y1="97.43" x2="324.38" y2="97.32"/><circle class="cls-2" cx="324.38" cy="97.32" r="1.47"/><polyline class="cls-1" points="502.81 99.88 473.87 99.88 473.87 73.13 437.6 73.13"/><polyline class="cls-1" points="468.01 121.86 468.01 93.65 500.98 93.65"/><polyline class="cls-6" points="237.75 122.05 237.75 102.2 229.91 102.2 229.91 94.16"/><circle class="cls-2" cx="237.75" cy="102.21" r="0.95"/><circle class="cls-2" cx="229.86" cy="94.35" r="1.03"/><line class="cls-3" x1="205.26" y1="87.84" x2="205.26" y2="57.38"/><circle class="cls-2" cx="179.44" cy="116.81" r="1.65"/><line class="cls-3" x1="179.44" y1="116.81" x2="179.44" y2="45.59"/><circle class="cls-2" cx="179.44" cy="45.59" r="2.22"/><circle class="cls-2" cx="359.15" cy="110.09" r="2.22"/><polyline class="cls-6" points="129.42 89.62 129.42 58.08 116.4 58.08 116.4 46.55"/><circle class="cls-2" cx="116.4" cy="46.55" r="1.32"/><circle class="cls-2" cx="129.42" cy="58.08" r="1.01"/><circle class="cls-2" cx="116.4" cy="58.08" r="1.16"/><polyline class="cls-6" points="359.25 110.52 359.25 88.51 346.24 88.51 346.24 76.97"/><circle class="cls-2" cx="346.24" cy="76.97" r="1.32"/><circle class="cls-2" cx="359.25" cy="88.51" r="1.01"/><circle class="cls-2" cx="346.24" cy="88.51" r="1.16"/><polyline class="cls-3" points="137.32 89.9 114.07 89.9 114.08 123.33"/><circle class="cls-2" cx="137.32" cy="89.9" r="1.35"/><polyline class="cls-6" points="104.37 104.9 95.33 104.9 95.33 96.49 105.75 96.49 105.75 72.63 90.99 72.63 90.99 48.13"/><circle class="cls-2" cx="95.33" cy="104.9" r="0.69"/><circle class="cls-2" cx="105.75" cy="96.49" r="0.87"/><circle class="cls-2" cx="105.75" cy="72.63" r="0.95"/><circle class="cls-2" cx="90.99" cy="72.63" r="0.85"/><circle class="cls-2" cx="90.99" cy="48.13" r="1.14"/><line class="cls-3" x1="187.35" y1="95.12" x2="187.2" y2="121.85"/><polyline class="cls-3" points="27.24 66.27 71.84 66.27 71.94 50.42"/><circle class="cls-2" cx="71.84" cy="66.27" r="1.59"/><circle class="cls-2" cx="25.78" cy="66.27" r="2.43"/><line class="cls-3" x1="12.35" y1="123.33" x2="12.35" y2="78.18"/><polyline class="cls-3" points="81.56 122.96 81.56 95.12 51.72 95.12 45.58 95.12 45.58 122.23"/><line class="cls-3" x1="52.25" y1="71.41" x2="52.25" y2="95.12"/><circle class="cls-2" cx="81.56" cy="95.12" r="2.28"/><circle class="cls-2" cx="52.19" cy="94.96" r="2.17"/><circle class="cls-2" cx="52.35" cy="71.09" r="2.17"/><line class="cls-7" x1="250.8" y1="121.13" x2="250.8" y2="84.13"/><polyline class="cls-8" points="164.31 122.96 164.31 69.51 137.32 69.51 137.32 45.38"/><circle class="cls-9" cx="164.31" cy="93.95" r="4.13"/><circle class="cls-10" cx="164.31" cy="69.51" r="2.7"/><circle class="cls-10" cx="137.32" cy="45.38" r="1.9"/><circle class="cls-11" cx="291.29" cy="112.05" r="3.6"/><circle class="cls-11" cx="263.99" cy="89.51" r="3.6"/><polyline class="cls-12" points="291.29 122.96 291.29 112.05 263.99 112.05 263.99 89.51"/><circle class="cls-10" cx="291.29" cy="112.05" r="2.5"/><circle class="cls-10" cx="263.99" cy="89.51" r="2.5"/><circle class="cls-10" cx="263.99" cy="112.05" r="1.35"/><circle cx="430.52" cy="93.98" r="1.27"/><circle class="cls-10" cx="315.12" cy="91.42" r="1.27"/><circle class="cls-9" cx="263.99" cy="112.05" r="4.6"/><polyline class="cls-7" points="197.48 123.33 197.48 65.38 182.56 65.38 182.56 69.51 164.31 69.51"/><circle class="cls-10" cx="197.32" cy="106.97" r="1.79"/><circle class="cls-10" cx="197.16" cy="79.67" r="1.9"/><circle class="cls-9" cx="197.16" cy="79.67" r="4.33"/><line class="cls-8" x1="207.16" y1="122.6" x2="207.16" y2="106.89"/><polyline class="cls-7" points="243.99 121.97 243.99 106.97 197.32 106.97"/><circle class="cls-10" cx="243.98" cy="107.14" r="1.63"/><circle class="cls-10" cx="207.13" cy="107.4" r="2.7"/><circle class="cls-9" cx="207.13" cy="107.4" r="4.05"/><circle class="cls-9" cx="243.99" cy="106.97" r="3.53"/><polyline class="cls-13" points="227.8 118.4 219.7 118.4 219.7 110.78"/><circle class="cls-10" cx="227.8" cy="118.4" r="0.87"/><circle class="cls-10" cx="219.7" cy="111.01" r="0.99"/><circle class="cls-10" cx="219.7" cy="118.4" r="0.9"/><polyline class="cls-7" points="197.01 79.98 152.4 79.98 152.4 122.96"/><line class="cls-7" x1="151.77" y1="98.87" x2="136.85" y2="98.87"/><circle class="cls-10" cx="152.4" cy="79.98" r="1.59"/><circle class="cls-10" cx="152.47" cy="98.81" r="1.43"/><circle class="cls-10" cx="136.85" cy="98.87" r="1.51"/><polyline class="cls-13" points="115.74 122.96 115.74 108.4 132.4 108.4 132.4 80.3 120.98 80.3 120.98 70.62"/><circle class="cls-10" cx="115.82" cy="108.48" r="1.83"/><circle class="cls-10" cx="132.32" cy="108.32" r="1.65"/><circle class="cls-9" cx="115.82" cy="108.48" r="3.98"/><circle class="cls-10" cx="132.4" cy="80.3" r="1.27"/><circle class="cls-10" cx="120.98" cy="70.62" r="1.35"/><circle class="cls-10" cx="112.56" cy="67.13" r="1.07"/><circle class="cls-10" cx="98.95" cy="88.62" r="1.04"/><polyline class="cls-13" points="102.88 120.46 102.88 117.13 108.59 117.13 108.59 110.3 98.75 110.3 98.75 88.56 112.56 88.56 112.56 67.13"/><circle class="cls-10" cx="112.46" cy="88.61" r="1.01"/><circle class="cls-10" cx="108.59" cy="117.13" r="0.79"/><circle class="cls-10" cx="108.6" cy="110.3" r="0.83"/><circle class="cls-10" cx="98.75" cy="110.3" r="1.04"/><circle class="cls-14" cx="98.95" cy="88.62" r="2.75"/><polyline class="cls-9" points="87.8 120.3 87.8 112.84 61.45 112.84 61.45 90.78"/><polyline class="cls-9" points="61.45 112.84 55.42 112.84 55.42 122.96"/><circle class="cls-10" cx="87.8" cy="112.84" r="2.7"/><circle class="cls-10" cx="61.45" cy="112.84" r="1.59"/><circle class="cls-10" cx="61.45" cy="90.78" r="2.62"/><circle class="cls-9" cx="61.45" cy="112.84" r="4.4"/><line class="cls-15" x1="72.86" y1="121.86" x2="72.88" y2="115.94"/><circle class="cls-10" cx="72.88" cy="115.94" r="0.95"/><circle class="cls-9" cx="80.47" cy="82.21" r="4.6"/><circle class="cls-9" cx="80.45" cy="19.72" r="3.81"/><polyline class="cls-12" points="42.09 122.23 42.09 82.52 80.5 82.52 80.5 19.35"/><circle class="cls-10" cx="80.5" cy="82.52" r="1.87"/><circle class="cls-10" cx="41.61" cy="82.68" r="3.33"/><circle class="cls-10" cx="80.45" cy="19.72" r="2.49"/><polyline class="cls-16" points="340.14 81.19 349.3 81.19 349.3 112.34 343.56 112.34 336.11 112.34 336.11 123.33"/><circle class="cls-10" cx="343.59" cy="101.67" r="1.47"/><circle class="cls-10" cx="354.15" cy="104.75" r="1.87"/><circle cx="365.87" cy="89.72" r="1.87"/><circle cx="413.13" cy="82.03" r="1.87"/><circle cx="413.13" cy="108.78" r="1.87"/><circle cx="443.64" cy="108.49" r="1.65"/><circle class="cls-10" cx="329.97" cy="109.24" r="2.49"/><circle class="cls-10" cx="340.69" cy="81.38" r="2.02"/><circle cx="253.3" cy="92.19" r="1.28"/><circle cx="421.84" cy="91.45" r="1.83"/><circle cx="459.95" cy="64.71" r="1.47"/><circle cx="341.6" cy="87.42" r="1.47"/><circle cx="450.79" cy="58.48" r="1.47"/><circle cx="489.62" cy="103.91" r="1.47"/><circle cx="430.63" cy="67.27" r="1.47"/><circle cx="315.22" cy="109.41" r="1.83"/><circle cx="459.83" cy="91.28" r="2.49"/><circle cx="479.62" cy="81.39" r="2.49"/><circle class="cls-10" cx="45.42" cy="54.75" r="1.75"/><circle class="cls-9" cx="60.66" cy="54.75" r="4.44"/><circle class="cls-9" cx="60.66" cy="35.22" r="4.23"/><circle class="cls-10" cx="105.1" cy="35.22" r="1.69"/><circle cx="99.97" cy="76.26" r="1.69"/><circle cx="126.9" cy="28.43" r="1.47"/><circle cx="84.76" cy="43.09" r="1.47"/><polyline class="cls-7" points="148.28 62.68 105.1 62.68 105.1 35.22 60.66 35.22 60.66 54.75 45.42 54.75 45.42 61.57 41.77 61.57 41.77 82.05"/><circle class="cls-10" cx="148.28" cy="62.68" r="2.82"/><circle class="cls-10" cx="105.1" cy="62.68" r="1.79"/><circle class="cls-10" cx="60.66" cy="35.22" r="1.9"/><circle class="cls-10" cx="60.66" cy="54.75" r="2.01"/><polyline class="cls-17" points="5.7 64.67 5.7 45.34 20.4 45.34 20.4 22.2"/><circle class="cls-10" cx="20.4" cy="22.6" r="1.5"/><circle class="cls-10" cx="20.4" cy="45.34" r="1.57"/><circle class="cls-10" cx="5.7" cy="64.67" r="1.57"/><circle class="cls-18" cx="5.7" cy="64.67" r="3.34"/><polyline class="cls-8" points="26.22 121.86 26.22 90.78 -1.7 90.78"/><circle class="cls-10" cx="26.22" cy="90.78" r="3.02"/><circle class="cls-9" cx="38.52" cy="26.05" r="4.6"/><circle class="cls-9" cx="21.45" cy="55.22" r="4.02"/><circle class="cls-10" cx="21.45" cy="83.16" r="1.9"/><circle class="cls-10" cx="38.52" cy="26.05" r="1.85"/><circle class="cls-10" cx="33.62" cy="92.89" r="1.11"/><circle class="cls-10" cx="38.44" cy="55.22" r="1.27"/><polyline class="cls-13" points="33.84 92.36 33.84 83.16 21.45 83.16 21.45 55.22 38.44 55.22 38.44 25.87"/><line class="cls-13" x1="37.96" y1="26.18" x2="7.49" y2="26.18"/><circle class="cls-10" cx="21.45" cy="55.22" r="1.59"/><circle class="cls-10" cx="7.49" cy="26.18" r="2.14"/><circle class="cls-10" cx="33.83" cy="83.16" r="1.8"/><line class="cls-9" x1="126.69" y1="62.36" x2="126.69" y2="28.43"/><polyline class="cls-9" points="379.71 104.96 354.15 104.96 354.15 92.05 330.02 92.05 330.02 108.56"/><polyline class="cls-19" points="298.13 135.91 298 109.41 315.22 109.41 315.22 91.45"/><polyline class="cls-20" points="295.73 85.24 254.47 85.24 254.47 71.9 225.89 71.9 225.89 84.6 218.91 84.6 219.05 58.84"/><polyline class="cls-21" points="253.59 92.41 242.71 92.41 242.71 77.04 232.78 76.98 232.78 59.76"/><ellipse class="cls-10" cx="310.12" cy="81.28" ry="0.32"/><circle cx="310.44" cy="81.28" r="0.95"/><circle class="cls-22" cx="310.44" cy="81.28" r="1.59"/><circle cx="232.81" cy="60.11" r="0.95"/><circle cx="225.85" cy="71.84" r="0.95"/><circle cx="301.5" cy="103.37" r="0.95"/><circle cx="250.78" cy="84.06" r="0.95"/><circle cx="219.09" cy="58.82" r="1.65"/><polyline class="cls-21" points="310.46 81.39 301.77 81.39 301.77 103.61 290.98 103.61 290.98 98.53 281.45 98.53 281.45 120.77"/><circle cx="281.45" cy="98.62" r="1.27"/><circle cx="254.34" cy="71.88" r="1.27"/><circle cx="295.74" cy="85.07" r="1.27"/><circle cx="225.76" cy="84.7" r="1.27"/><polyline class="cls-23" points="379.54 122.23 379.54 94.59 408.11 94.59 408.11 118.08 437.32 118.08 437.32 122.05"/><polyline class="cls-21" points="500.25 76.06 489.62 76.06 489.62 103.91"/><polyline class="cls-24" points="421.62 118.03 421.62 91.36 459.71 91.36 459.71 64.06"/><polyline class="cls-25" points="499.15 108.31 450.79 108.31 450.79 58.48"/><line class="cls-25" x1="479.36" y1="121.86" x2="479.36" y2="81.19"/><polyline class="cls-26" points="450.6 94.02 430.45 94.02 430.45 67.27"/><circle class="cls-27" cx="430.63" cy="67.27" r="3.11"/><circle class="cls-27" cx="479.73" cy="81.19" r="3.85"/><polyline class="cls-21" points="443.46 129.56 443.46 109.04 413.05 109.04 413.05 81.93 379.71 81.93 379.71 89.62 365.78 89.62"/><polyline class="cls-28" points="100.11 76.43 86.34 76.43 86.34 65.68 101.91 65.68 101.91 43.09 84.84 43.09"/><rect class="cls-29" x="253.91" y="98.16" width="7.78" height="7.78" transform="translate(515.6 204.09) rotate(-180)"/><rect class="cls-30" x="193.43" y="61.81" width="7.78" height="7.78" transform="translate(394.65 131.4) rotate(-180)"/><rect class="cls-29" x="117.32" y="76.92" width="7.78" height="7.78" transform="translate(242.42 161.62) rotate(-180)"/><rect class="cls-29" x="76.97" y="54.94" width="7.78" height="7.78" transform="translate(161.72 117.65) rotate(-180)"/><rect class="cls-30" x="325.53" y="86.78" width="7.78" height="7.78" transform="translate(658.84 181.33) rotate(-180)"/><rect class="cls-29" x="447.67" y="97.29" width="7.78" height="7.78" transform="translate(903.12 202.35) rotate(-180)"/><rect class="cls-30" x="21.85" y="111.32" width="7.78" height="7.78" transform="translate(51.48 230.42) rotate(-180)"/><rect class="cls-29" x="159.97" y="102.29" width="7.78" height="7.78" transform="translate(327.71 212.36) rotate(-180)"/><circle class="cls-2" cx="104.49" cy="104.9" r="0.69"/><line class="cls-16" x1="343.43" y1="112.34" x2="343.43" y2="101.35"/></svg>