<svg id="Réteg_1" data-name="Réteg 1" xmlns="http://www.w3.org/2000/svg" viewBox="0 0 992 250"><defs><style>.cls-1,.cls-12,.cls-13,.cls-14,.cls-15,.cls-16,.cls-17,.cls-18,.cls-19,.cls-20,.cls-21,.cls-22,.cls-23,.cls-24,.cls-25,.cls-26,.cls-27,.cls-28,.cls-3,.cls-4,.cls-5,.cls-6,.cls-7,.cls-8,.cls-9{fill:none;}.cls-1,.cls-3,.cls-4,.cls-5,.cls-6{stroke:#a6a8ab;}.cls-1,.cls-11,.cls-12,.cls-13,.cls-14,.cls-15,.cls-16,.cls-17,.cls-18,.cls-19,.cls-20,.cls-21,.cls-22,.cls-23,.cls-24,.cls-25,.cls-26,.cls-27,.cls-28,.cls-3,.cls-4,.cls-5,.cls-6,.cls-7,.cls-8,.cls-9{stroke-miterlimit:10;}.cls-1,.cls-16,.cls-25{stroke-width:1.55px;}.cls-2{fill:#a6a8ab;}.cls-11,.cls-24,.cls-3,.cls-9{stroke-width:1.34px;}.cls-23,.cls-4{stroke-width:2.01px;}.cls-5{stroke-width:1.25px;}.cls-13,.cls-6{stroke-width:1.01px;}.cls-11,.cls-12,.cls-13,.cls-14,.cls-15,.cls-16,.cls-17,.cls-18,.cls-7,.cls-8,.cls-9{stroke:#231f20;}.cls-7{stroke-width:1.61px;}.cls-8{stroke-width:2.28px;}.cls-10{fill:#231f20;}.cls-11{fill:#fff;}.cls-12{stroke-width:1.16px;}.cls-14{stroke-width:0.66px;}.cls-15,.cls-20{stroke-width:0.67px;}.cls-17{stroke-width:1.38px;}.cls-18{stroke-width:1.15px;}.cls-19,.cls-20,.cls-21,.cls-22,.cls-23,.cls-24,.cls-25,.cls-26,.cls-27,.cls-28{stroke:#000;}.cls-19{stroke-width:1.18px;}.cls-21{stroke-width:0.77px;}.cls-22{stroke-width:0.84px;}.cls-26{stroke-width:1.52px;}.cls-27{stroke-width:1.03px;}.cls-28{stroke-width:0.69px;}.cls-29{fill:#25a9e0;}.cls-30{fill:red;}</style></defs><title>header-xl</title><polyline class="cls-1" points="355.68 -6.05 355.68 55.4 419.66 55.4 419.66 123.69"/><circle class="cls-2" cx="355.68" cy="55.4" r="5.48"/><circle class="cls-2" cx="419.66" cy="124.02" r="5.7"/><circle class="cls-2" cx="419.66" cy="55.4" r="4.36"/><line class="cls-3" x1="428.92" y1="3.11" x2="428.92" y2="90.8"/><circle class="cls-2" cx="428.92" cy="90.8" r="3.8"/><polyline class="cls-4" points="459.56 -0.63 459.56 71.56 570.3 71.56 570.3 11.61 740.76 11.61 740.76 38.9 673.65 38.9 673.65 137.33 571.19 137.33"/><circle class="cls-2" cx="570.3" cy="71.56" r="4.25"/><circle class="cls-2" cx="740.76" cy="11.61" r="4.59"/><circle class="cls-2" cx="673.65" cy="137.33" r="7.27"/><circle class="cls-2" cx="570.24" cy="137.28" r="4.81"/><circle class="cls-3" cx="505.65" cy="71.51" r="5.71"/><line class="cls-4" x1="547.03" y1="0.92" x2="547.03" y2="71.12"/><circle class="cls-2" cx="547.03" cy="71.12" r="5.79"/><line class="cls-3" x1="673.42" y1="98.69" x2="706.64" y2="98.69"/><circle class="cls-2" cx="705.64" cy="99.02" r="3.77"/><polyline class="cls-5" points="87.43 42.53 210.12 42.53 210.12 16.41 348.09 16.41 348.45 38.1 293.46 38.1 293.46 83.8"/><circle class="cls-2" cx="210.12" cy="42.53" r="2.82"/><circle class="cls-2" cx="348.09" cy="16.47" r="3.71"/><circle class="cls-2" cx="293.46" cy="83.8" r="3.1"/><circle class="cls-2" cx="87.7" cy="42.48" r="3.89"/><circle class="cls-2" cx="14.5" cy="59.48" r="4.81"/><circle class="cls-2" cx="78.78" cy="103.62" r="4.81"/><circle class="cls-2" cx="293.67" cy="38.36" r="2.71"/><circle class="cls-2" cx="621.87" cy="24.93" r="3.87"/><line class="cls-4" x1="180.68" y1="-33" x2="181.13" y2="41.27"/><circle class="cls-2" cx="181.13" cy="41.27" r="5.79"/><line class="cls-3" x1="293.58" y1="52.57" x2="318.25" y2="52.82"/><circle class="cls-2" cx="318.25" cy="52.82" r="3.1"/><polyline class="cls-1" points="-58.96 47.4 2.23 47.4 2.23 103.94 78.91 103.94"/><polyline class="cls-1" points="14.62 0.92 14.62 60.56 -55.09 60.56"/><polyline class="cls-6" points="501.4 0.54 501.4 42.48 517.95 42.48 517.95 59.48"/><circle class="cls-2" cx="501.4" cy="42.48" r="2.01"/><circle class="cls-2" cx="518.06" cy="59.09" r="2.18"/><line class="cls-3" x1="570.07" y1="72.85" x2="570.07" y2="137.25"/><circle class="cls-2" cx="624.66" cy="11.61" r="3.49"/><line class="cls-3" x1="624.66" y1="11.61" x2="624.66" y2="162.16"/><circle class="cls-2" cx="624.66" cy="162.16" r="4.7"/><circle class="cls-2" cx="244.76" cy="25.81" r="4.7"/><polyline class="cls-6" points="730.4 69.08 730.4 135.77 757.92 135.77 757.92 160.15"/><circle class="cls-2" cx="757.92" cy="160.15" r="2.8"/><circle class="cls-2" cx="730.4" cy="135.77" r="2.13"/><circle class="cls-2" cx="757.92" cy="135.77" r="2.46"/><polyline class="cls-6" points="244.53 24.91 244.53 71.44 272.05 71.44 272.05 95.83"/><circle class="cls-2" cx="272.05" cy="95.82" r="2.8"/><circle class="cls-2" cx="244.53" cy="71.44" r="2.13"/><circle class="cls-2" cx="272.05" cy="71.44" r="2.46"/><polyline class="cls-3" points="713.69 68.49 762.85 68.49 762.84 -2.17"/><circle class="cls-2" cx="713.69" cy="68.49" r="2.85"/><polyline class="cls-6" points="783.37 36.78 802.47 36.78 802.47 54.57 780.44 54.57 780.44 105.01 811.64 105.01 811.64 156.8"/><circle class="cls-2" cx="802.47" cy="36.78" r="1.45"/><circle class="cls-2" cx="780.44" cy="54.57" r="1.85"/><circle class="cls-2" cx="780.44" cy="105.01" r="2.01"/><circle class="cls-2" cx="811.64" cy="105.01" r="1.79"/><circle class="cls-2" cx="811.64" cy="156.8" r="2.4"/><line class="cls-3" x1="607.93" y1="57.47" x2="608.25" y2="0.96"/><polyline class="cls-3" points="946.41 118.44 852.12 118.44 851.91 151.96"/><circle class="cls-2" cx="852.12" cy="118.44" r="3.36"/><circle class="cls-2" cx="949.51" cy="118.44" r="5.15"/><line class="cls-3" x1="977.88" y1="-2.17" x2="977.88" y2="93.26"/><polyline class="cls-3" points="831.58 -1.4 831.58 57.47 894.66 57.47 907.64 57.47 907.64 0.15"/><line class="cls-3" x1="893.55" y1="107.58" x2="893.55" y2="57.47"/><circle class="cls-2" cx="831.58" cy="57.47" r="4.81"/><circle class="cls-2" cx="893.66" cy="57.81" r="4.59"/><circle class="cls-2" cx="893.32" cy="108.25" r="4.59"/><line class="cls-7" x1="473.8" y1="2.47" x2="473.8" y2="80.7"/><polyline class="cls-8" points="656.65 -1.4 656.65 111.61 713.69 111.61 713.69 162.61"/><circle class="cls-9" cx="656.65" cy="59.93" r="8.72"/><circle class="cls-10" cx="656.65" cy="111.61" r="5.71"/><circle class="cls-10" cx="713.69" cy="162.61" r="4.03"/><circle class="cls-11" cx="388.2" cy="21.68" r="7.61"/><circle class="cls-11" cx="445.92" cy="69.33" r="7.61"/><polyline class="cls-12" points="388.2 -1.4 388.2 21.68 445.92 21.68 445.92 69.33"/><circle class="cls-10" cx="388.2" cy="21.68" r="5.28"/><circle class="cls-10" cx="445.92" cy="69.33" r="5.28"/><circle class="cls-10" cx="445.92" cy="21.68" r="2.85"/><circle cx="93.88" cy="59.86" r="2.68"/><circle class="cls-10" cx="337.82" cy="65.27" r="2.68"/><circle class="cls-9" cx="445.92" cy="21.68" r="9.73"/><polyline class="cls-7" points="586.51 -2.17 586.51 120.33 618.06 120.33 618.06 111.61 656.65 111.61"/><circle class="cls-10" cx="586.85" cy="32.42" r="3.77"/><circle class="cls-10" cx="587.19" cy="90.13" r="4.03"/><circle class="cls-9" cx="587.19" cy="90.13" r="9.14"/><line class="cls-8" x1="566.05" y1="-0.63" x2="566.05" y2="32.58"/><polyline class="cls-7" points="488.2 0.71 488.2 32.41 586.85 32.41"/><circle class="cls-10" cx="488.21" cy="32.06" r="3.44"/><circle class="cls-10" cx="566.13" cy="31.51" r="5.71"/><circle class="cls-9" cx="566.13" cy="31.51" r="8.56"/><circle class="cls-9" cx="488.2" cy="32.42" r="7.47"/><polyline class="cls-13" points="522.42 8.26 539.54 8.26 539.54 24.36"/><circle class="cls-10" cx="522.42" cy="8.26" r="1.85"/><circle class="cls-10" cx="539.54" cy="23.86" r="2.1"/><circle class="cls-10" cx="539.54" cy="8.26" r="1.9"/><polyline class="cls-7" points="587.52 89.46 681.81 89.46 681.81 -1.4"/><line class="cls-7" x1="683.15" y1="49.53" x2="714.7" y2="49.53"/><circle class="cls-10" cx="681.81" cy="89.46" r="3.36"/><circle class="cls-10" cx="681.68" cy="49.66" r="3.02"/><circle class="cls-10" cx="714.7" cy="49.53" r="3.19"/><polyline class="cls-13" points="759.33 -1.4 759.33 29.39 724.09 29.39 724.09 88.79 748.25 88.79 748.25 109.26"/><circle class="cls-10" cx="759.16" cy="29.22" r="3.87"/><circle class="cls-10" cx="724.26" cy="29.56" r="3.5"/><circle class="cls-9" cx="759.16" cy="29.22" r="8.42"/><circle class="cls-10" cx="724.09" cy="88.79" r="2.68"/><circle class="cls-10" cx="748.25" cy="109.26" r="2.85"/><circle class="cls-10" cx="766.04" cy="116.64" r="2.26"/><circle class="cls-10" cx="794.81" cy="71.19" r="2.21"/><polyline class="cls-13" points="786.5 3.89 786.5 10.94 774.42 10.94 774.42 25.37 795.23 25.37 795.23 71.34 766.04 71.34 766.04 116.64"/><circle class="cls-10" cx="766.26" cy="71.23" r="2.13"/><circle class="cls-10" cx="774.42" cy="10.94" r="1.68"/><circle class="cls-10" cx="774.42" cy="25.37" r="1.76"/><circle class="cls-10" cx="795.23" cy="25.37" r="2.21"/><circle class="cls-14" cx="794.81" cy="71.19" r="5.81"/><polyline class="cls-9" points="818.38 4.23 818.38 20 874.08 20 874.08 66.64"/><polyline class="cls-9" points="874.08 20 886.84 20 886.84 -1.4"/><circle class="cls-10" cx="818.38" cy="20" r="5.7"/><circle class="cls-10" cx="874.08" cy="20" r="3.36"/><circle class="cls-10" cx="874.08" cy="66.64" r="5.54"/><circle class="cls-9" cx="874.08" cy="20" r="9.31"/><line class="cls-15" x1="849.98" y1="0.92" x2="849.92" y2="13.46"/><circle class="cls-10" cx="849.92" cy="13.46" r="2.01"/><circle class="cls-9" cx="833.89" cy="84.76" r="9.73"/><circle class="cls-9" cx="833.93" cy="216.86" r="8.05"/><polyline class="cls-12" points="915.02 0.15 915.02 84.09 833.82 84.09 833.82 217.64"/><circle class="cls-10" cx="833.82" cy="84.09" r="3.94"/><circle class="cls-10" cx="916.03" cy="83.75" r="7.05"/><circle class="cls-10" cx="833.93" cy="216.86" r="5.26"/><polyline class="cls-16" points="284.94 86.9 265.58 86.9 265.58 21.06 277.71 21.06 293.46 21.06 293.46 -2.17"/><circle class="cls-10" cx="277.63" cy="43.61" r="3.1"/><circle class="cls-10" cx="255.32" cy="37.11" r="3.94"/><circle cx="230.54" cy="68.87" r="3.94"/><circle cx="130.62" cy="85.14" r="3.94"/><circle cx="130.62" cy="28.59" r="3.94"/><circle cx="66.13" cy="29.19" r="3.49"/><circle class="cls-10" cx="306.44" cy="27.61" r="5.26"/><circle class="cls-10" cx="283.78" cy="86.51" r="4.26"/><circle cx="468.51" cy="63.66" r="2.71"/><circle cx="112.21" cy="65.21" r="3.87"/><circle cx="31.66" cy="121.75" r="3.1"/><circle cx="281.84" cy="73.73" r="3.1"/><circle cx="51.02" cy="134.92" r="3.1"/><circle cx="93.63" cy="116.33" r="3.1"/><circle cx="337.61" cy="27.26" r="3.87"/><circle cx="31.9" cy="65.58" r="5.26"/><circle class="cls-10" cx="907.97" cy="142.81" r="3.69"/><circle class="cls-9" cx="875.76" cy="142.81" r="9.4"/><circle class="cls-9" cx="875.76" cy="184.09" r="8.95"/><circle class="cls-10" cx="781.81" cy="184.09" r="3.58"/><circle cx="792.65" cy="97.34" r="3.58"/><circle cx="735.73" cy="198.43" r="3.1"/><circle cx="824.8" cy="167.45" r="3.1"/><polyline class="cls-7" points="690.54 126.03 781.81 126.03 781.81 184.09 875.76 184.09 875.76 142.81 907.98 142.81 907.98 128.38 915.69 128.38 915.69 85.1"/><circle class="cls-10" cx="690.54" cy="126.03" r="5.96"/><circle class="cls-10" cx="781.81" cy="126.03" r="3.77"/><circle class="cls-10" cx="875.76" cy="184.09" r="4.03"/><circle class="cls-10" cx="875.76" cy="142.81" r="4.25"/><polyline class="cls-17" points="991.94 121.83 991.94 162.7 960.86 162.7 960.86 211.62"/><circle class="cls-10" cx="960.86" cy="210.76" r="3.17"/><circle class="cls-10" cx="960.86" cy="162.7" r="3.31"/><circle class="cls-10" cx="991.94" cy="121.83" r="3.31"/><circle class="cls-18" cx="991.94" cy="121.83" r="7.05"/><polyline class="cls-8" points="948.58 0.92 948.58 66.64 1007.6 66.64"/><circle class="cls-10" cx="948.58" cy="66.64" r="6.38"/><circle class="cls-9" cx="922.57" cy="203.47" r="9.73"/><circle class="cls-9" cx="958.64" cy="141.81" r="8.5"/><circle class="cls-10" cx="958.64" cy="82.75" r="4.03"/><circle class="cls-10" cx="922.57" cy="203.47" r="3.91"/><circle class="cls-10" cx="932.92" cy="62.17" r="2.35"/><circle class="cls-10" cx="922.74" cy="141.81" r="2.68"/><polyline class="cls-13" points="932.47 63.29 932.47 82.75 958.64 82.75 958.64 141.81 922.74 141.81 922.74 203.86"/><line class="cls-13" x1="923.75" y1="203.21" x2="988.17" y2="203.21"/><circle class="cls-10" cx="958.64" cy="141.81" r="3.36"/><circle class="cls-10" cx="988.17" cy="203.21" r="4.53"/><circle class="cls-10" cx="932.47" cy="82.75" r="3.8"/><line class="cls-9" x1="736.17" y1="126.71" x2="736.17" y2="198.43"/><polyline class="cls-9" points="201.29 36.67 255.32 36.67 255.32 63.96 306.33 63.96 306.33 29.06"/><polyline class="cls-19" points="373.75 -28.77 374.01 27.26 337.61 27.26 337.61 65.21"/><polyline class="cls-20" points="378.81 78.36 466.05 78.36 466.05 106.54 526.45 106.54 526.45 79.7 541.22 79.7 540.93 134.15"/><polyline class="cls-21" points="467.9 63.2 490.9 63.2 490.9 95.68 511.88 95.81 511.88 132.21"/><ellipse class="cls-10" cx="348.4" cy="86.71" ry="0.67"/><circle cx="347.73" cy="86.71" r="2.01"/><circle class="cls-22" cx="347.73" cy="86.71" r="3.36"/><circle cx="511.82" cy="131.47" r="2.01"/><circle cx="526.54" cy="106.68" r="2.01"/><circle cx="366.62" cy="40.01" r="2.01"/><circle cx="473.85" cy="80.85" r="2.01"/><circle cx="540.83" cy="134.2" r="3.49"/><polyline class="cls-21" points="347.68 86.49 366.05 86.49 366.05 39.51 388.86 39.51 388.86 50.25 409 50.25 409 3.25"/><circle cx="409" cy="50.06" r="2.68"/><circle cx="466.31" cy="106.6" r="2.68"/><circle cx="378.79" cy="78.71" r="2.68"/><circle cx="526.73" cy="79.49" r="2.68"/><polyline class="cls-23" points="201.64 0.15 201.64 58.59 141.24 58.59 141.24 8.93 79.5 8.93 79.5 0.54"/><polyline class="cls-24" points="112.69 9.03 112.69 65.4 32.15 65.4 32.15 123.12"/><polyline class="cls-25" points="-51.22 29.58 51.02 29.58 51.02 134.92"/><polyline class="cls-26" points="51.41 59.79 94.01 59.79 94.01 116.33"/><circle class="cls-27" cx="93.63" cy="116.33" r="6.58"/><polyline class="cls-21" points="66.52 -15.34 66.52 28.03 130.8 28.03 130.8 85.35 201.29 85.35 201.29 69.08 230.72 69.08"/><polyline class="cls-28" points="792.36 96.97 821.48 96.97 821.48 119.7 788.56 119.7 788.56 167.45 824.64 167.45"/><rect class="cls-29" x="450.78" y="34.6" width="16.44" height="16.44"/><rect class="cls-30" x="578.63" y="111.44" width="16.44" height="16.44"/><rect class="cls-29" x="739.53" y="79.49" width="16.44" height="16.44"/><rect class="cls-29" x="824.84" y="125.96" width="16.44" height="16.44"/><rect class="cls-30" x="299.38" y="58.66" width="16.44" height="16.44"/><rect class="cls-29" x="41.17" y="36.44" width="16.44" height="16.44"/><rect class="cls-30" x="941.36" y="6.77" width="16.44" height="16.44"/><rect class="cls-29" x="649.38" y="25.86" width="16.44" height="16.44"/><circle class="cls-2" cx="783.11" cy="36.78" r="1.45"/><line class="cls-16" x1="277.97" y1="21.06" x2="277.97" y2="44.3"/></svg>