<svg id="Réteg_1" data-name="Réteg 1" xmlns="http://www.w3.org/2000/svg" viewBox="0 0 650 150"><defs><style>.cls-1,.cls-12,.cls-13,.cls-14,.cls-15,.cls-16,.cls-17,.cls-18,.cls-19,.cls-20,.cls-21,.cls-22,.cls-23,.cls-24,.cls-25,.cls-26,.cls-27,.cls-28,.cls-3,.cls-4,.cls-5,.cls-6,.cls-7,.cls-8,.cls-9{fill:none;}.cls-1,.cls-3,.cls-4,.cls-5,.cls-6{stroke:#a6a8ab;}.cls-1,.cls-11,.cls-12,.cls-13,.cls-14,.cls-15,.cls-16,.cls-17,.cls-18,.cls-19,.cls-20,.cls-21,.cls-22,.cls-23,.cls-24,.cls-25,.cls-26,.cls-27,.cls-28,.cls-3,.cls-4,.cls-5,.cls-6,.cls-7,.cls-8,.cls-9{stroke-miterlimit:10;}.cls-1,.cls-16,.cls-25{stroke-width:1.02px;}.cls-2{fill:#a6a8ab;}.cls-11,.cls-24,.cls-3,.cls-9{stroke-width:0.88px;}.cls-23,.cls-4{stroke-width:1.32px;}.cls-5{stroke-width:0.82px;}.cls-13,.cls-6{stroke-width:0.66px;}.cls-11,.cls-12,.cls-13,.cls-14,.cls-15,.cls-16,.cls-17,.cls-18,.cls-7,.cls-8,.cls-9{stroke:#231f20;}.cls-7{stroke-width:1.06px;}.cls-8{stroke-width:1.5px;}.cls-10{fill:#231f20;}.cls-11{fill:#fff;}.cls-12{stroke-width:0.76px;}.cls-14{stroke-width:0.44px;}.cls-15,.cls-20{stroke-width:0.44px;}.cls-17{stroke-width:0.91px;}.cls-18{stroke-width:0.76px;}.cls-19,.cls-20,.cls-21,.cls-22,.cls-23,.cls-24,.cls-25,.cls-26,.cls-27,.cls-28{stroke:#000;}.cls-19{stroke-width:0.78px;}.cls-21{stroke-width:0.51px;}.cls-22{stroke-width:0.55px;}.cls-26{stroke-width:1px;}.cls-27{stroke-width:0.68px;}.cls-28{stroke-width:0.45px;}.cls-29{fill:#25a9e0;}.cls-30{fill:red;}</style></defs><title>header-md</title><polyline class="cls-1" points="230.26 -11.24 230.26 29.11 272.27 29.11 272.27 73.95"/><circle class="cls-2" cx="230.26" cy="29.11" r="3.6"/><circle class="cls-2" cx="272.27" cy="74.16" r="3.75"/><circle class="cls-2" cx="272.27" cy="29.11" r="2.86"/><line class="cls-3" x1="278.35" y1="-5.23" x2="278.35" y2="52.35"/><circle class="cls-2" cx="278.35" cy="52.35" r="2.5"/><polyline class="cls-4" points="298.47 -7.68 298.47 39.72 371.18 39.72 371.18 0.35 483.11 0.35 483.11 18.27 439.04 18.27 439.04 82.91 371.77 82.91"/><circle class="cls-2" cx="371.18" cy="39.72" r="2.79"/><circle class="cls-2" cx="483.11" cy="0.36" r="3.01"/><circle class="cls-2" cx="439.04" cy="82.91" r="4.77"/><circle class="cls-2" cx="371.14" cy="82.87" r="3.16"/><circle class="cls-3" cx="328.73" cy="39.68" r="3.75"/><line class="cls-4" x1="355.9" y1="-6.66" x2="355.9" y2="39.43"/><circle class="cls-2" cx="355.9" cy="39.43" r="3.8"/><line class="cls-3" x1="438.89" y1="57.53" x2="460.71" y2="57.53"/><circle class="cls-2" cx="460.05" cy="57.75" r="2.48"/><polyline class="cls-5" points="54.12 20.66 134.69 20.66 134.69 3.51 225.27 3.51 225.51 17.75 189.41 17.75 189.41 47.76"/><circle class="cls-2" cx="134.69" cy="20.65" r="1.85"/><circle class="cls-2" cx="225.27" cy="3.54" r="2.44"/><circle class="cls-2" cx="189.4" cy="47.76" r="2.03"/><circle class="cls-2" cx="54.3" cy="20.63" r="2.56"/><circle class="cls-2" cx="6.23" cy="31.78" r="3.16"/><circle class="cls-2" cx="48.45" cy="60.77" r="3.16"/><circle class="cls-2" cx="189.54" cy="17.92" r="1.78"/><circle class="cls-2" cx="405.04" cy="9.1" r="2.54"/><line class="cls-4" x1="115.35" y1="-28.94" x2="115.65" y2="19.83"/><circle class="cls-2" cx="115.65" cy="19.83" r="3.8"/><line class="cls-3" x1="189.48" y1="27.25" x2="205.68" y2="27.41"/><circle class="cls-2" cx="205.68" cy="27.41" r="2.03"/><polyline class="cls-1" points="-42 23.85 -1.82 23.85 -1.82 60.98 48.53 60.98"/><polyline class="cls-1" points="6.32 -6.66 6.32 32.5 -39.46 32.5"/><polyline class="cls-6" points="325.94 -6.92 325.94 20.63 336.81 20.63 336.81 31.79"/><circle class="cls-2" cx="325.94" cy="20.63" r="1.32"/><circle class="cls-2" cx="336.88" cy="31.53" r="1.43"/><line class="cls-3" x1="371.03" y1="40.57" x2="371.03" y2="82.85"/><circle class="cls-2" cx="406.87" cy="0.36" r="2.29"/><line class="cls-3" x1="406.87" y1="0.36" x2="406.87" y2="99.21"/><circle class="cls-2" cx="406.87" cy="99.21" r="3.08"/><circle class="cls-2" cx="157.42" cy="9.68" r="3.08"/><polyline class="cls-6" points="476.31 38.09 476.31 81.88 494.37 81.88 494.37 97.89"/><circle class="cls-2" cx="494.37" cy="97.89" r="1.84"/><circle class="cls-2" cx="476.31" cy="81.88" r="1.4"/><circle class="cls-2" cx="494.37" cy="81.88" r="1.62"/><polyline class="cls-6" points="157.28 9.09 157.28 39.64 175.34 39.64 175.34 55.65"/><circle class="cls-2" cx="175.34" cy="55.65" r="1.84"/><circle class="cls-2" cx="157.28" cy="39.64" r="1.4"/><circle class="cls-2" cx="175.34" cy="39.64" r="1.62"/><polyline class="cls-3" points="465.33 37.7 497.61 37.7 497.61 -8.7"/><circle class="cls-2" cx="465.33" cy="37.7" r="1.87"/><polyline class="cls-6" points="511.08 16.88 523.63 16.88 523.63 28.56 509.16 28.56 509.16 61.68 529.65 61.68 529.65 95.69"/><circle class="cls-2" cx="523.63" cy="16.88" r="0.95"/><circle class="cls-2" cx="509.16" cy="28.56" r="1.21"/><circle class="cls-2" cx="509.16" cy="61.68" r="1.32"/><circle class="cls-2" cx="529.65" cy="61.68" r="1.18"/><circle class="cls-2" cx="529.65" cy="95.69" r="1.58"/><line class="cls-3" x1="395.89" y1="30.46" x2="396.1" y2="-6.64"/><polyline class="cls-3" points="618.14 70.5 556.23 70.5 556.09 92.51"/><circle class="cls-2" cx="556.23" cy="70.5" r="2.2"/><circle class="cls-2" cx="620.17" cy="70.5" r="3.38"/><line class="cls-3" x1="638.81" y1="-8.7" x2="638.81" y2="53.97"/><polyline class="cls-3" points="542.74 -8.19 542.74 30.47 584.16 30.47 592.68 30.47 592.68 -7.17"/><line class="cls-3" x1="583.43" y1="63.37" x2="583.43" y2="30.47"/><circle class="cls-2" cx="542.74" cy="30.47" r="3.16"/><circle class="cls-2" cx="583.5" cy="30.69" r="3.01"/><circle class="cls-2" cx="583.28" cy="63.81" r="3.01"/><line class="cls-7" x1="307.82" y1="-5.65" x2="307.82" y2="45.72"/><polyline class="cls-8" points="427.88 -8.19 427.88 66.01 465.33 66.01 465.33 99.5"/><circle class="cls-9" cx="427.88" cy="32.08" r="5.73"/><circle class="cls-10" cx="427.88" cy="66.01" r="3.75"/><circle class="cls-10" cx="465.33" cy="99.5" r="2.64"/><circle class="cls-11" cx="251.61" cy="6.97" r="5"/><circle class="cls-11" cx="289.51" cy="38.25" r="5"/><polyline class="cls-12" points="251.62 -8.19 251.62 6.96 289.51 6.96 289.51 38.25"/><circle class="cls-10" cx="251.61" cy="6.97" r="3.47"/><circle class="cls-10" cx="289.51" cy="38.25" r="3.47"/><circle class="cls-10" cx="289.51" cy="6.97" r="1.87"/><circle cx="58.36" cy="32.04" r="1.76"/><circle class="cls-10" cx="218.53" cy="35.59" r="1.76"/><circle class="cls-9" cx="289.51" cy="6.97" r="6.39"/><polyline class="cls-7" points="381.83 -8.7 381.83 71.74 402.54 71.74 402.54 66.01 427.88 66.01"/><circle class="cls-10" cx="382.05" cy="14.02" r="2.48"/><circle class="cls-10" cx="382.27" cy="51.91" r="2.64"/><circle class="cls-9" cx="382.27" cy="51.91" r="6"/><line class="cls-8" x1="368.39" y1="-7.68" x2="368.39" y2="14.13"/><polyline class="cls-7" points="317.27 -6.8 317.27 14.02 382.05 14.02"/><circle class="cls-10" cx="317.28" cy="13.78" r="2.26"/><circle class="cls-10" cx="368.44" cy="13.42" r="3.75"/><circle class="cls-9" cx="368.44" cy="13.42" r="5.62"/><circle class="cls-9" cx="317.27" cy="14.02" r="4.9"/><polyline class="cls-13" points="339.75 -1.85 350.98 -1.85 350.98 8.73"/><circle class="cls-10" cx="350.98" cy="8.4" r="1.38"/><polyline class="cls-7" points="382.49 51.47 444.4 51.47 444.4 -8.19"/><line class="cls-7" x1="445.28" y1="25.25" x2="465.99" y2="25.25"/><circle class="cls-10" cx="444.4" cy="51.47" r="2.2"/><circle class="cls-10" cx="444.31" cy="25.34" r="1.98"/><circle class="cls-10" cx="465.99" cy="25.25" r="2.09"/><polyline class="cls-13" points="495.3 -8.19 495.3 12.03 472.16 12.03 472.16 51.03 488.03 51.03 488.03 64.47"/><circle class="cls-10" cx="495.19" cy="11.92" r="2.54"/><circle class="cls-10" cx="472.27" cy="12.14" r="2.3"/><circle class="cls-9" cx="495.19" cy="11.92" r="5.53"/><circle class="cls-10" cx="472.16" cy="51.03" r="1.76"/><circle class="cls-10" cx="488.03" cy="64.47" r="1.87"/><circle class="cls-10" cx="499.7" cy="69.32" r="1.49"/><circle class="cls-10" cx="518.6" cy="39.48" r="1.45"/><polyline class="cls-13" points="513.14 -4.71 513.14 -0.09 505.21 -0.09 505.21 9.39 518.87 9.39 518.87 39.57 499.7 39.57 499.7 69.32"/><circle class="cls-10" cx="499.85" cy="39.5" r="1.4"/><circle class="cls-10" cx="505.21" cy="-0.09" r="1.1"/><circle class="cls-10" cx="505.21" cy="9.39" r="1.16"/><circle class="cls-10" cx="518.87" cy="9.39" r="1.45"/><circle class="cls-14" cx="518.6" cy="39.48" r="3.81"/><polyline class="cls-9" points="534.08 -4.49 534.08 5.86 570.65 5.86 570.65 36.49"/><polyline class="cls-9" points="570.65 5.86 579.02 5.86 579.02 -8.19"/><circle class="cls-10" cx="534.08" cy="5.86" r="3.75"/><circle class="cls-10" cx="570.65" cy="5.86" r="2.2"/><circle class="cls-10" cx="570.65" cy="36.49" r="3.64"/><circle class="cls-9" cx="570.65" cy="5.86" r="6.11"/><line class="cls-15" x1="554.82" y1="-6.66" x2="554.79" y2="1.57"/><circle class="cls-10" cx="554.79" cy="1.57" r="1.32"/><circle class="cls-9" cx="544.26" cy="48.39" r="6.39"/><circle class="cls-9" cx="544.28" cy="135.12" r="5.29"/><polyline class="cls-12" points="597.53 -7.17 597.53 47.95 544.21 47.95 544.21 135.64"/><circle class="cls-10" cx="544.21" cy="47.95" r="2.59"/><circle class="cls-10" cx="598.19" cy="47.73" r="4.63"/><circle class="cls-10" cx="544.28" cy="135.12" r="3.45"/><polyline class="cls-16" points="183.81 49.79 171.1 49.79 171.1 6.56 179.06 6.56 189.41 6.56 189.41 -8.7"/><circle class="cls-10" cx="179.01" cy="21.36" r="2.03"/><circle class="cls-10" cx="164.36" cy="17.1" r="2.59"/><circle cx="148.09" cy="37.95" r="2.59"/><circle cx="82.48" cy="48.63" r="2.59"/><circle cx="82.48" cy="11.51" r="2.59"/><circle cx="40.14" cy="11.9" r="2.29"/><circle class="cls-10" cx="197.93" cy="10.86" r="3.45"/><circle class="cls-10" cx="183.05" cy="49.54" r="2.8"/><circle cx="304.34" cy="34.53" r="1.78"/><circle cx="70.4" cy="35.55" r="2.54"/><circle cx="17.5" cy="72.68" r="2.03"/><circle cx="181.78" cy="41.14" r="2.03"/><circle cx="30.22" cy="81.32" r="2.03"/><circle cx="58.19" cy="69.12" r="2.03"/><circle cx="218.39" cy="10.63" r="2.54"/><circle cx="17.66" cy="35.79" r="3.45"/><circle class="cls-10" cx="592.9" cy="86.5" r="2.42"/><circle class="cls-9" cx="571.75" cy="86.5" r="6.17"/><circle class="cls-9" cx="571.75" cy="113.6" r="5.88"/><circle class="cls-10" cx="510.06" cy="113.6" r="2.35"/><circle cx="517.18" cy="56.64" r="2.35"/><circle cx="479.81" cy="123.03" r="2.03"/><circle cx="538.29" cy="102.68" r="2.03"/><polyline class="cls-7" points="450.13 75.49 510.06 75.49 510.06 113.6 571.75 113.6 571.75 86.5 592.9 86.5 592.9 77.03 597.97 77.03 597.97 48.61"/><circle class="cls-10" cx="450.13" cy="75.49" r="3.91"/><circle class="cls-10" cx="510.06" cy="75.49" r="2.48"/><circle class="cls-10" cx="571.75" cy="113.6" r="2.64"/><circle class="cls-10" cx="571.75" cy="86.5" r="2.79"/><polyline class="cls-17" points="648.04 72.73 648.04 99.56 627.63 99.56 627.63 131.69"/><circle class="cls-10" cx="627.63" cy="131.12" r="2.08"/><circle class="cls-10" cx="627.63" cy="99.56" r="2.17"/><circle class="cls-10" cx="648.04" cy="72.73" r="2.17"/><circle class="cls-18" cx="648.04" cy="72.73" r="4.63"/><polyline class="cls-8" points="619.56 -6.66 619.56 36.49 658.32 36.49"/><circle class="cls-10" cx="619.56" cy="36.49" r="4.19"/><circle class="cls-9" cx="602.49" cy="126.33" r="6.39"/><circle class="cls-9" cx="626.17" cy="85.84" r="5.58"/><circle class="cls-10" cx="626.17" cy="47.07" r="2.64"/><circle class="cls-10" cx="602.49" cy="126.33" r="2.57"/><circle class="cls-10" cx="609.28" cy="33.55" r="1.54"/><circle class="cls-10" cx="602.6" cy="85.84" r="1.76"/><polyline class="cls-13" points="608.99 34.29 608.99 47.06 626.17 47.06 626.17 85.84 602.6 85.84 602.6 126.59"/><line class="cls-13" x1="603.26" y1="126.16" x2="645.56" y2="126.16"/><circle class="cls-10" cx="626.17" cy="85.84" r="2.2"/><circle class="cls-10" cx="645.56" cy="126.16" r="2.97"/><circle class="cls-10" cx="608.99" cy="47.07" r="2.5"/><line class="cls-9" x1="480.1" y1="75.93" x2="480.1" y2="123.03"/><polyline class="cls-9" points="128.88 16.81 164.37 16.81 164.37 34.73 197.85 34.73 197.85 11.81"/><polyline class="cls-19" points="242.13 -26.16 242.3 10.63 218.39 10.63 218.39 35.55"/><polyline class="cls-20" points="245.45 44.18 302.73 44.18 302.73 62.69 342.39 62.69 342.39 45.06 352.08 45.06 351.9 80.81"/><polyline class="cls-21" points="303.95 34.23 319.05 34.23 319.05 55.55 332.82 55.64 332.82 79.54"/><circle cx="225.04" cy="49.67" r="1.32"/><circle class="cls-22" cx="225.04" cy="49.67" r="2.2"/><circle cx="332.78" cy="79.06" r="1.32"/><circle cx="342.45" cy="62.78" r="1.32"/><circle cx="237.45" cy="19" r="1.32"/><circle cx="307.85" cy="45.82" r="1.32"/><circle cx="351.83" cy="80.85" r="2.29"/><polyline class="cls-21" points="225.01 49.52 237.07 49.52 237.07 18.67 252.05 18.67 252.05 25.72 265.27 25.72 265.27 -5.14"/><circle cx="265.27" cy="25.6" r="1.76"/><circle cx="302.9" cy="62.72" r="1.76"/><circle cx="245.43" cy="44.42" r="1.76"/><circle cx="342.57" cy="44.92" r="1.76"/><polyline class="cls-23" points="129.11 -7.17 129.11 31.2 89.45 31.2 89.45 -1.41 48.91 -1.41 48.91 -6.92"/><polyline class="cls-24" points="70.71 -1.34 70.71 35.68 17.83 35.68 17.83 73.57"/><polyline class="cls-25" points="-36.91 12.15 30.22 12.15 30.22 81.32"/><polyline class="cls-26" points="30.47 31.99 58.45 31.99 58.45 69.12"/><circle class="cls-27" cx="58.19" cy="69.12" r="4.32"/><polyline class="cls-21" points="40.39 -17.34 40.39 11.14 82.6 11.14 82.6 48.77 128.88 48.77 128.88 38.09 148.21 38.09"/><polyline class="cls-28" points="516.99 56.4 536.11 56.4 536.11 71.33 514.5 71.33 514.5 102.68 538.19 102.68"/><rect class="cls-29" x="292.71" y="15.45" width="10.8" height="10.8"/><rect class="cls-30" x="376.65" y="65.9" width="10.8" height="10.8"/><rect class="cls-29" x="482.3" y="44.93" width="10.8" height="10.8"/><rect class="cls-29" x="538.32" y="75.44" width="10.8" height="10.8"/><rect class="cls-30" x="193.29" y="31.25" width="10.8" height="10.8"/><rect class="cls-29" x="23.75" y="16.66" width="10.8" height="10.8"/><rect class="cls-30" x="614.83" y="-2.82" width="10.8" height="10.8"/><rect class="cls-29" x="423.11" y="9.71" width="10.8" height="10.8"/><circle class="cls-2" cx="510.91" cy="16.88" r="0.95"/><line class="cls-16" x1="179.23" y1="6.56" x2="179.23" y2="21.82"/></svg>