<svg id="Réteg_1" data-name="Réteg 1" xmlns="http://www.w3.org/2000/svg" viewBox="0 0 200 200"><defs><style>.cls-1{fill:#fff;}</style></defs><title>ketto</title><path class="cls-1" d="M20.71,171.38l12.6-10.6q15.4-13.2,25.6-22.3t17.8-16.3q15.2-14.6,23.6-24.2,6.4-7.4,8.4-11.8a13.25,13.25,0,0,0,1.4-6,11,11,0,0,0-9.8-11.2q-12-1.2-14.4,14.6l-.2,1.8H35.11a55.29,55.29,0,0,1,1.2-11.2q3.8-19.6,17.1-32.3t33.9-16.1a69.14,69.14,0,0,1,11.2-.8h4.8a44.46,44.46,0,0,1,6.6.8,83.5,83.5,0,0,1,22.8,6.8q14,7,21.4,18.9a47.8,47.8,0,0,1,7.4,25.7,48.67,48.67,0,0,1-4.2,19.9,50.37,50.37,0,0,1-13,17.3,57.49,57.49,0,0,1-6.8,5.6q-3.2,2.2-5.8,3.8l-5,3.2-2.2,1.6-2.6,1.4h39.2l-11.6,41.4Z"/></svg>