<svg id="Réteg_1" data-name="Réteg 1" xmlns="http://www.w3.org/2000/svg" viewBox="0 0 200 200"><defs><style>.cls-1{fill:#fff;}</style></defs><title>ot</title><path class="cls-1" d="M38.1,164.84l5.8-41.74,8.4,3.8a119.82,119.82,0,0,0,20.4,6.4,83.86,83.86,0,0,0,17.2,2.2,33.23,33.23,0,0,0,8.8-1q11.4-2.8,11.4-10.6a17.07,17.07,0,0,0-.8-4q-1.4-3.8-6.2-6.3t-14.4-3.5q-1.8-.2-5.8-.2-12.8,0-29.4,4.2l-8.8,2.4,11.8-87h99.2l-12,41h-51l-2,13a61.81,61.81,0,0,1,20-3h3.9a30.34,30.34,0,0,1,4.5.4,56.88,56.88,0,0,1,24,8,39.85,39.85,0,0,1,14.1,14.93A41.29,41.29,0,0,1,162.3,124a46.21,46.21,0,0,1-4.7,20.34,49.44,49.44,0,0,1-14.2,17.23A68.14,68.14,0,0,1,121.7,173a86.87,86.87,0,0,1-26.6,3.91q-23.2,0-51.4-10Z"/></svg>