<?xml version="1.0" encoding="utf-8"?>
<!-- Generator: Adobe Illustrator 21.0.0, SVG Export Plug-In . SVG Version: 6.00 Build 0)  -->
<svg version="1.1" id="Layer_1" xmlns="http://www.w3.org/2000/svg" xmlns:xlink="http://www.w3.org/1999/xlink" x="0px" y="0px"
	 viewBox="0 0 176 196" style="enable-background:new 0 0 176 196;" xml:space="preserve">
<style type="text/css">
	.st0{fill:none;stroke:#3C3C3C;stroke-width:24.2936;stroke-linejoin:bevel;stroke-opacity:0.3922;}
	.st1{fill:none;stroke:#FFFFFF;stroke-width:18.2202;stroke-linejoin:bevel;}
	.st2{fill:#9B4F96;}
	.st3{fill:#68217A;}
	.st4{fill:#813787;}
	.st5{fill:#FFFFFF;}
</style>
<title>csharp</title>
<desc>Created with Sketch.</desc>
<g>
	<path id="path4169-7-5-7-8_1_" class="st0" d="M87.1,11.5c-3.5,0.2-4,0.5-12.1,5.1c-3.5,2-6.9,3.9-7.6,4.3s-2.3,1.3-3.7,2.1
		c-1.3,0.8-2.8,1.7-3.3,2c-0.9,0.5-5.6,3.2-21.7,12.5c-3.1,1.8-6,3.5-6.4,3.7c-0.5,0.3-3.3,1.9-6.3,3.6s-5.9,3.4-6.5,3.8
		c-1.8,1-4.4,3.8-5.4,5.8c-1.9,3.7-1.7,1.4-1.7,42.1c0,35.9,0,38.1,0.8,40.1c1.3,3.5,3,5.7,5.7,7.5c0.9,0.6,1.7,1.1,1.8,1.1
		s1.5,0.8,3.2,1.8c1.7,1,3.2,1.8,3.2,1.8s0.9,0.5,1.9,1.1c1,0.6,2.3,1.4,3,1.8c1.6,0.9,6.6,3.8,7.7,4.4c0.5,0.3,2.1,1.2,3.7,2.1
		c1.5,0.9,3.2,1.8,3.6,2.1c1,0.6,7.9,4.6,9.7,5.6c0.7,0.4,2.1,1.2,3,1.8c1,0.6,1.8,1.1,1.9,1.1c0.1,0,1.1,0.6,2.4,1.4
		c1.3,0.8,2.9,1.7,3.6,2.1c0.7,0.4,4,2.3,7.3,4.2c7.2,4.2,7.8,4.5,10.6,5.2c2,0.5,2.6,0.5,4.7,0.1c1.6-0.3,4.4-1.2,5-1.7
		c0.3-0.2,2.9-1.7,5.4-3.2c0.8-0.5,4.1-2.4,7.3-4.2c3.2-1.9,6.3-3.7,7-4.1c1.1-0.6,11.1-6.4,13.3-7.7c1.6-0.9,6.4-3.7,7.7-4.4
		c0.7-0.4,1.9-1.1,2.7-1.6c1.7-1,2.9-1.7,4.7-2.7c0.7-0.4,2.3-1.3,3.7-2.1c1.3-0.8,3.1-1.8,3.9-2.3c0.8-0.5,2.2-1.2,3-1.8
		c0.8-0.5,1.5-0.9,1.6-0.9c0.5,0,3.4-2.2,4.6-3.6c1.8-1.9,2.9-4.3,3.5-7.1c0.6-3.1,0.7-72.9,0-76c-0.5-2.6-1.8-5.1-3.4-7
		c-1.7-2-2.7-2.6-10.5-7c-0.7-0.4-2.8-1.6-4.6-2.7c-2.8-1.6-16.6-9.6-19.4-11.2c-0.5-0.3-2.4-1.3-4.2-2.4c-1.9-1.1-3.9-2.3-4.6-2.7
		c-0.7-0.4-4.3-2.4-8-4.6c-3.7-2.1-8.7-5-11-6.3C92.5,11.8,90.9,11.3,87.1,11.5L87.1,11.5z"/>
	<path id="path4169-7-5-7_1_" class="st1" d="M87.1,11.6c-3.5,0.2-4,0.5-12.1,5.1c-3.5,2-6.9,3.9-7.6,4.3c-0.7,0.4-2.3,1.3-3.7,2.1
		c-1.3,0.8-2.8,1.7-3.3,2c-0.9,0.5-5.6,3.2-21.7,12.5c-3.1,1.8-6,3.5-6.4,3.7c-0.5,0.3-3.3,1.9-6.3,3.6c-3,1.7-5.9,3.4-6.5,3.8
		c-1.8,1-4.4,3.8-5.4,5.8c-1.9,3.7-1.7,1.4-1.7,42.1c0,35.9,0,38.1,0.8,40.1c1.3,3.5,3,5.7,5.7,7.5c0.9,0.6,1.7,1.1,1.8,1.1
		s1.5,0.8,3.2,1.8c1.7,1,3.2,1.8,3.2,1.8c0.1,0,0.9,0.5,1.9,1.1c1,0.6,2.3,1.4,3,1.8c1.6,0.9,6.6,3.8,7.7,4.4
		c0.5,0.3,2.1,1.2,3.7,2.1c1.5,0.9,3.2,1.8,3.6,2.1c1,0.6,7.9,4.6,9.7,5.6c0.7,0.4,2.1,1.2,3,1.8c1,0.6,1.8,1.1,1.9,1.1
		c0.1,0,1.1,0.6,2.4,1.4c1.3,0.8,2.9,1.7,3.6,2.1c0.7,0.4,4,2.3,7.3,4.2c7.2,4.2,7.8,4.5,10.6,5.2c2,0.5,2.6,0.5,4.7,0.1
		c1.6-0.3,4.4-1.2,5-1.7c0.3-0.2,2.9-1.7,5.4-3.2c0.8-0.5,4.1-2.4,7.3-4.2c3.2-1.9,6.3-3.7,7-4.1c1.1-0.6,11.1-6.4,13.3-7.7
		c1.6-0.9,6.4-3.7,7.7-4.4c0.7-0.4,1.9-1.1,2.7-1.6c1.7-1,2.9-1.7,4.7-2.7c0.7-0.4,2.3-1.3,3.7-2.1c1.3-0.8,3.1-1.8,3.9-2.3
		c0.8-0.5,2.2-1.2,3-1.8c0.8-0.5,1.5-0.9,1.6-0.9c0.5,0,3.4-2.2,4.6-3.6c1.8-1.9,2.9-4.3,3.5-7.1c0.6-3.1,0.7-72.9,0-76
		c-0.5-2.6-1.8-5.1-3.4-7c-1.7-2-2.7-2.6-10.5-7c-0.7-0.4-2.8-1.6-4.6-2.7c-2.8-1.6-16.6-9.6-19.4-11.2c-0.5-0.3-2.4-1.3-4.2-2.4
		c-1.9-1.1-3.9-2.3-4.6-2.7s-4.3-2.4-8-4.6c-3.7-2.1-8.7-5-11-6.3C92.5,12,90.9,11.4,87.1,11.6L87.1,11.6z"/>
	<path id="path4169-7-5_1_" class="st2" d="M87.1,11.5c-3.5,0.2-4,0.5-12.1,5.1c-3.5,2-6.9,3.9-7.6,4.3c-0.7,0.4-2.3,1.3-3.7,2.1
		c-1.3,0.8-2.8,1.7-3.3,2c-0.9,0.5-5.6,3.2-21.7,12.5c-3.1,1.8-6,3.5-6.4,3.7c-0.5,0.3-3.3,1.9-6.3,3.6s-5.9,3.4-6.5,3.8
		c-1.8,1-4.4,3.8-5.4,5.8c-1.9,3.7-1.7,1.4-1.7,42.1c0,35.9,0,38.1,0.8,40.1c1.3,3.5,3,5.7,5.7,7.5c0.9,0.6,1.7,1.1,1.8,1.1
		s1.5,0.8,3.2,1.8c1.7,1,3.2,1.8,3.2,1.8s0.9,0.5,1.9,1.1c1,0.6,2.3,1.4,3,1.8c1.6,0.9,6.6,3.8,7.7,4.4c0.5,0.3,2.1,1.2,3.7,2.1
		c1.5,0.9,3.2,1.8,3.6,2.1c1,0.6,7.9,4.6,9.7,5.6c0.7,0.4,2.1,1.2,3,1.8c1,0.6,1.8,1.1,1.9,1.1c0.1,0,1.1,0.6,2.4,1.4
		c1.3,0.8,2.9,1.7,3.6,2.1c0.7,0.4,4,2.3,7.3,4.2c7.2,4.2,7.8,4.5,10.6,5.2c2,0.5,2.6,0.5,4.7,0.1c1.6-0.3,4.4-1.2,5-1.7
		c0.3-0.2,2.9-1.7,5.4-3.2c0.8-0.5,4.1-2.4,7.3-4.2c3.2-1.9,6.3-3.7,7-4.1c1.1-0.6,11.1-6.4,13.3-7.7c1.6-0.9,6.4-3.7,7.7-4.4
		c0.7-0.4,1.9-1.1,2.7-1.6c1.7-1,2.9-1.7,4.7-2.7c0.7-0.4,2.3-1.3,3.7-2.1c1.3-0.8,3.1-1.8,3.9-2.3c0.8-0.5,2.2-1.2,3-1.8
		c0.8-0.5,1.5-0.9,1.6-0.9c0.5,0,3.4-2.2,4.6-3.6c1.8-1.9,2.9-4.3,3.5-7.1c0.6-3.1,0.7-72.9,0-76c-0.5-2.6-1.8-5.1-3.4-7
		c-1.7-2-2.7-2.6-10.5-7c-0.7-0.4-2.8-1.6-4.6-2.7c-2.8-1.6-16.6-9.6-19.4-11.2c-0.5-0.3-2.4-1.3-4.2-2.4c-1.9-1.1-3.9-2.3-4.6-2.7
		c-0.7-0.4-4.3-2.4-8-4.6c-3.7-2.1-8.7-5-11-6.3C92.5,11.8,90.9,11.3,87.1,11.5L87.1,11.5z"/>
	<path id="path4169-7-58_1_" class="st3" d="M14.9,140.5c1.9,2.9,2.8,2.9,10.8,7.6c3.5,2,6.8,4,7.5,4.4c0.7,0.4,2.3,1.4,3.6,2.1
		c1.3,0.8,2.8,1.6,3.4,1.9c0.9,0.5,5.6,3.3,21.7,12.7c3.1,1.8,6,3.5,6.4,3.7c0.5,0.3,3.3,1.9,6.3,3.7c3,1.7,5.9,3.5,6.5,3.8
		c1.7,1.1,5.5,2,7.7,1.8c4.1-0.2,2,0.8,37.1-19.5c30.9-17.9,32.8-19.1,34.2-20.8c2.3-2.9,3.4-5.4,3.6-8.7c0.1-1.1,0.1-2,0.1-2.1
		c0-0.1-0.1-1.7-0.1-3.7c0-2,0-3.7,0-3.7c0-0.1,0-1.1,0-2.2c0-1.2,0-2.7,0-3.5c0-1.8-0.1-7.6,0-8.9c0-0.5,0-2.5,0-4.2
		c0-1.8,0-3.7,0-4.2c0-1.2,0-9.1,0-11.2c0-0.8,0-2.4,0-3.5c0-1.2,0-2.1,0-2.2c0-0.1,0-1.3,0-2.8c0-1.5,0-3.4,0-4.2
		c0-0.8-0.1-4.6,0-8.5c0-8.4,0-9.1-0.9-11.9c-0.3-1.1-0.9-1.7-1.3-2.4l-147,85.6C14.7,139.9,14.7,140.2,14.9,140.5L14.9,140.5z"/>
	<path id="path4169-7_1_" class="st4" d="M162.1,139c1.6-3.1,1.6-3.7,1.6-13.1c0-4,0.1-8,0.1-8.8c0-0.8,0-2.7,0-4.2
		c0-1.5,0-3.3,0-3.9c0-1,0-6.5,0.1-25.2c0-3.6,0-7,0-7.5c0-0.5,0-3.8,0-7.3c0-3.5,0-6.9,0-7.6c0.1-1.9-1.2-5.3-2.3-7.3L88,96.9
		l73.5,42.8C161.7,139.4,161.9,139.3,162.1,139L162.1,139z"/>
	<path id="path4212_1_" class="st5" d="M84.7,46.3L84.7,46.3c-6.7,0.5-13.2,2.2-18.9,5.1c-19.8,10.2-30.6,31.1-27.5,53
		c1,6.8,3.7,14.1,7.4,19.7c0.7,1.1,1.4,2.1,1.4,2.1c0.1,0.1,0.7,0.9,1.4,1.8c1.7,2.3,6.1,6.7,8.8,8.9c7.6,6,17.6,9.8,27.5,10.6
		c2.1,0.2,8.7-0.1,10.9-0.5c1.1-0.2,2.4-0.4,2.9-0.5s1.6-0.4,2.4-0.6c9-2.2,18.3-7.8,25.1-15.3c1.8-2,4.2-5.2,5.2-6.9l0.7-1.3
		l-10.4-6.1c-5.7-3.3-10.6-6.1-10.9-6.1c-0.3,0-0.8,0.6-1.4,1.4c-2.8,4.1-7.6,7.8-12.5,9.5c-3.5,1.2-4.5,1.3-8.5,1.3
		c-4.5,0-7-0.5-10.6-2.1c-2.7-1.2-4.4-2.4-7-4.9c-4.6-4.3-7.3-10.3-7.8-16.7c-0.8-12.4,7-23.3,19.2-26.6c2.9-0.8,9.4-0.9,12.1-0.2
		c2.4,0.7,5.2,1.7,7,2.8c3,1.7,6.8,5.3,8.4,8c0.3,0.6,0.8,1,1,1c0.2,0,1-0.4,1.7-0.8c1.5-0.9,6.5-3.7,7.9-4.5
		c0.5-0.3,2.1-1.2,3.6-2.1c1.5-0.9,3.3-1.9,3.9-2.3c0.6-0.4,1.9-1.1,2.8-1.6c0.9-0.5,1.6-1,1.6-1.1c0-0.1-0.7-1.3-1.6-2.6
		c-6.2-9.3-15.6-16.5-26.1-20C98.2,46.6,91.4,45.8,84.7,46.3L84.7,46.3z M131.9,84.5v3.2h-3.2v6.5h3.2v6.4h-3.2v6.5h3.2v3.2h6.4
		v-3.2h6.4v3.2h6.4v-3.2h3.2v-6.5h-3.2v-6.4h3.2v-6.5h-3.2v-3.2h-6.4v3.2h-6.4v-3.2H131.9z M138.3,94.2h6.4v6.4h-6.4V94.2z"/>
</g>
</svg>
