<svg id="Réteg_1" data-name="Réteg 1" xmlns="http://www.w3.org/2000/svg" viewBox="0 0 400 400"><defs><style>.cls-1,.cls-2{fill:none;stroke-linejoin:bevel;}.cls-1{stroke:#3d3d3d;stroke-opacity:0.39;stroke-width:24.29px;}.cls-2{stroke:#fff;stroke-width:18.22px;}.cls-3{fill:#9c5097;}.cls-4{fill:#682579;}.cls-5{fill:#823787;}.cls-6{fill:#fff;}</style></defs><title>c-sharp-logo</title><path id="path4169-7-5-7-8" class="cls-1" d="M199.21,49.57c-6.21.35-7.09.89-21.47,9-6.21,3.55-12.24,6.92-13.48,7.63L157.69,70c-2.3,1.42-5,3-5.85,3.55-1.6.89-9.94,5.68-38.5,22.18-5.5,3.2-10.65,6.21-11.36,6.57-.89.53-5.86,3.37-11.18,6.39s-10.47,6-11.53,6.74c-3.2,1.77-7.81,6.74-9.58,10.29-3.37,6.56-3,2.48-3,74.7,0,63.7,0,67.6,1.42,71.15,2.31,6.21,5.32,10.11,10.11,13.31a24.69,24.69,0,0,0,3.2,1.95c.17,0,2.66,1.42,5.68,3.19s5.67,3.2,5.67,3.2,1.6.88,3.37,1.95,4.09,2.48,5.33,3.19c2.84,1.6,11.71,6.75,13.66,7.81.89.53,3.73,2.13,6.56,3.73,2.67,1.59,5.68,3.19,6.39,3.72,1.78,1.07,14,8.16,17.21,9.94,1.25.71,3.73,2.13,5.33,3.19a33.68,33.68,0,0,0,3.37,1.95,45.65,45.65,0,0,1,4.26,2.49c2.3,1.42,5.14,3,6.38,3.72l13,7.46c12.77,7.45,13.84,8,18.8,9.22,3.55.89,4.62.89,8.34.18,2.84-.53,7.81-2.13,8.88-3,.53-.35,5.14-3,9.58-5.67,1.42-.89,7.27-4.26,13-7.46,5.68-3.37,11.18-6.56,12.42-7.27,2-1.07,19.7-11.36,23.6-13.66,2.84-1.6,11.36-6.57,13.66-7.81,1.24-.71,3.37-2,4.79-2.84,3-1.77,5.15-3,8.34-4.79l6.57-3.73c2.3-1.42,5.5-3.19,6.92-4.08s3.9-2.13,5.32-3.19a18.69,18.69,0,0,1,2.84-1.6c.89,0,6-3.9,8.16-6.39A25.61,25.61,0,0,0,335,267.64c1.07-5.5,1.24-129.35,0-134.85a28,28,0,0,0-6-12.42c-3-3.55-4.79-4.62-18.63-12.42-1.24-.71-5-2.84-8.16-4.8-5-2.83-29.46-17-34.43-19.87-.88-.53-4.25-2.3-7.45-4.26-3.37-2-6.92-4.08-8.16-4.79s-7.63-4.26-14.2-8.16c-6.56-3.72-15.43-8.87-19.51-11.18-9.58-4.79-12.42-5.68-19.17-5.32Z"/><path id="path4169-7-5-7" class="cls-2" d="M199.21,49.75c-6.21.35-7.09.88-21.47,9-6.21,3.54-12.24,6.92-13.48,7.63s-4.08,2.3-6.57,3.72c-2.3,1.42-5,3-5.85,3.55-1.6.89-9.94,5.68-38.5,22.18-5.5,3.19-10.65,6.21-11.36,6.57-.89.53-5.86,3.37-11.18,6.38s-10.47,6-11.53,6.75c-3.2,1.77-7.81,6.74-9.58,10.29-3.37,6.56-3,2.48-3,74.7,0,63.7,0,67.6,1.42,71.15,2.31,6.21,5.32,10.11,10.11,13.31a24.69,24.69,0,0,0,3.2,2c.17,0,2.66,1.42,5.68,3.19s5.67,3.19,5.67,3.19a34.92,34.92,0,0,1,3.37,2c1.78,1.06,4.09,2.48,5.33,3.19,2.84,1.6,11.71,6.74,13.66,7.81.89.53,3.73,2.13,6.56,3.72,2.67,1.6,5.68,3.2,6.39,3.73,1.78,1.06,14,8.16,17.21,9.94,1.25.71,3.73,2.13,5.33,3.19a36.11,36.11,0,0,0,3.37,2,45.65,45.65,0,0,1,4.26,2.49c2.3,1.42,5.14,3,6.38,3.72l13,7.45c12.77,7.46,13.84,8,18.8,9.23,3.55.89,4.62.89,8.34.18,2.84-.53,7.81-2.13,8.88-3,.53-.35,5.14-3,9.58-5.68,1.42-.88,7.27-4.25,13-7.45,5.68-3.37,11.18-6.56,12.42-7.27,2-1.07,19.7-11.36,23.6-13.67,2.84-1.59,11.36-6.56,13.66-7.8,1.24-.71,3.37-1.95,4.79-2.84,3-1.78,5.15-3,8.34-4.79l6.57-3.73c2.3-1.42,5.5-3.19,6.92-4.08s3.9-2.13,5.32-3.19a18.69,18.69,0,0,1,2.84-1.6c.89,0,6-3.9,8.16-6.39a25.6,25.6,0,0,0,6.21-12.6c1.07-5.5,1.24-129.35,0-134.85a28.1,28.1,0,0,0-6-12.42c-3-3.55-4.79-4.61-18.63-12.42-1.24-.71-5-2.84-8.16-4.79-5-2.84-29.46-17-34.43-19.87-.88-.53-4.25-2.31-7.45-4.26-3.37-2-6.92-4.08-8.16-4.79s-7.63-4.26-14.2-8.16c-6.56-3.73-15.43-8.87-19.51-11.18-9.58-4.61-12.42-5.68-19.17-5.32Z"/><path id="path4169-7-5" class="cls-3" d="M199.21,49.57c-6.21.35-7.09.89-21.47,9-6.21,3.55-12.24,6.92-13.48,7.63L157.69,70c-2.3,1.42-5,3-5.85,3.55-1.6.89-9.94,5.68-38.5,22.18-5.5,3.2-10.65,6.21-11.36,6.57-.89.53-5.86,3.37-11.18,6.39s-10.47,6-11.53,6.74c-3.2,1.77-7.81,6.74-9.58,10.29-3.37,6.56-3,2.48-3,74.7,0,63.7,0,67.6,1.42,71.15,2.31,6.21,5.32,10.11,10.11,13.31a24.69,24.69,0,0,0,3.2,1.95c.17,0,2.66,1.42,5.68,3.19s5.67,3.2,5.67,3.2,1.6.88,3.37,1.95,4.09,2.48,5.33,3.19c2.84,1.6,11.71,6.75,13.66,7.81.89.53,3.73,2.13,6.56,3.73,2.67,1.59,5.68,3.19,6.39,3.72,1.78,1.07,14,8.16,17.21,9.94,1.25.71,3.73,2.13,5.33,3.19a33.68,33.68,0,0,0,3.37,1.95,45.65,45.65,0,0,1,4.26,2.49c2.3,1.42,5.14,3,6.38,3.72l13,7.46c12.77,7.45,13.84,8,18.8,9.22,3.55.89,4.62.89,8.34.18,2.84-.53,7.81-2.13,8.88-3,.53-.35,5.14-3,9.58-5.67,1.42-.89,7.27-4.26,13-7.46,5.68-3.37,11.18-6.56,12.42-7.27,2-1.07,19.7-11.36,23.6-13.66,2.84-1.6,11.36-6.57,13.66-7.81,1.24-.71,3.37-2,4.79-2.84,3-1.77,5.15-3,8.34-4.79l6.57-3.73c2.3-1.42,5.5-3.19,6.92-4.08s3.9-2.13,5.32-3.19a18.69,18.69,0,0,1,2.84-1.6c.89,0,6-3.9,8.16-6.39A25.61,25.61,0,0,0,335,267.64c1.07-5.5,1.24-129.35,0-134.85a28,28,0,0,0-6-12.42c-3-3.55-4.79-4.62-18.63-12.42-1.24-.71-5-2.84-8.16-4.8-5-2.83-29.46-17-34.43-19.87-.88-.53-4.25-2.3-7.45-4.26-3.37-2-6.92-4.08-8.16-4.79s-7.63-4.26-14.2-8.16c-6.56-3.72-15.43-8.87-19.51-11.18-9.58-4.79-12.42-5.68-19.17-5.32Z"/><path id="path4169-7-58" class="cls-4" d="M71.11,278.46c3.37,5.15,5,5.15,19.16,13.49,6.21,3.54,12.06,7.09,13.31,7.8s4.08,2.49,6.38,3.73c2.31,1.42,5,2.84,6,3.37,1.59.89,9.93,5.86,38.5,22.53,5.5,3.2,10.65,6.21,11.36,6.57.88.53,5.85,3.37,11.17,6.56,5.33,3,10.47,6.21,11.54,6.75,3,1.95,9.76,3.55,13.66,3.19,7.28-.35,3.55,1.42,65.83-34.6,54.83-31.76,58.2-33.89,60.68-36.91,4.08-5.14,6-9.58,6.39-15.43.18-1.95.18-3.55.18-3.73s-.18-3-.18-6.56V238.54c0-3.2-.18-13.49,0-15.79V165.43c0-1.42-.18-8.16,0-15.08,0-14.9,0-16.14-1.6-21.11-.53-2-1.6-3-2.3-4.26L70.4,276.86c.35.54.35,1.07.71,1.6Z"/><path id="path4169-7" class="cls-5" d="M332.29,275.8c2.84-5.5,2.84-6.57,2.84-23.25,0-7.09.18-14.19.18-15.61V222.57c0-1.78,0-11.53.17-44.72V138.11c.18-3.37-2.13-9.4-4.08-13L200.81,201.1,331.23,277c.35-.53.7-.71,1.06-1.24Z"/><path id="path4212" class="cls-6" d="M195,111.32h0a88.56,88.56,0,0,0-33.54,9.05c-35.13,18.09-54.29,55.18-48.79,94a89.67,89.67,0,0,0,13.13,35c1.24,1.95,2.48,3.73,2.48,3.73.18.17,1.24,1.59,2.48,3.19,3,4.08,10.83,11.89,15.62,15.79,13.48,10.65,31.23,17.39,48.79,18.81a117.94,117.94,0,0,0,19.34-.89c2-.35,4.26-.71,5.15-.88s2.84-.71,4.26-1.07c16-3.9,32.47-13.84,44.53-27.15a94.32,94.32,0,0,0,9.23-12.24l1.24-2.31-18.45-10.82c-10.12-5.85-18.81-10.82-19.34-10.82s-1.42,1.06-2.49,2.48A46.81,46.81,0,0,1,216.42,244c-6.21,2.13-8,2.3-15.08,2.3-8,0-12.42-.88-18.8-3.72-4.8-2.13-7.81-4.26-12.43-8.7a45.19,45.19,0,0,1-13.84-29.63c-1.41-22,12.43-41.34,34.07-47.2,5.15-1.41,16.68-1.59,21.47-.35a56.56,56.56,0,0,1,12.42,5c5.33,3,12.07,9.4,14.91,14.19.53,1.07,1.42,1.78,1.77,1.78a13.06,13.06,0,0,0,3-1.42c2.66-1.6,11.53-6.57,14-8,.89-.53,3.73-2.13,6.39-3.72s5.86-3.37,6.92-4.08,3.37-2,5-2.84a11,11,0,0,0,2.84-1.95,34.33,34.33,0,0,0-2.84-4.62,91,91,0,0,0-46.31-35.48A88.93,88.93,0,0,0,195,111.32ZM278.7,179.1v5.67H273v11.54h5.67v11.35H273V219.2h5.67v5.67h11.36V219.2h11.36v5.67h11.35V219.2h5.68V207.66h-5.68V196.31h5.68V184.77h-5.68V179.1H301.42v5.67H290.06V179.1Zm11.36,17.21h11.36v11.35H290.06Z"/></svg>