<svg id="Réteg_1" data-name="Réteg 1" xmlns="http://www.w3.org/2000/svg" viewBox="0 0 600 600"><defs><style>.cls-1{fill:#c8eaf5;}.cls-2{fill:#666;}.cls-3{fill:none;stroke-width:3px;}.cls-3,.cls-4{stroke:#000;stroke-miterlimit:10;}.cls-4{fill:#6dc065;stroke-width:0.91px;}.cls-5{fill:#fff;}</style></defs><title>barhol-barmikor</title><circle class="cls-1" cx="300.31" cy="301.69" r="188.25"/><path class="cls-2" d="M134.42,242.68c2,3.16-1,11.33,0,14.93s4.45,10.74,7.52,12.83c1.28.87,4.86,1.84,6.11.94.91-.65,1-3.3.78-4.4-.66-3.25-6.07-8-7.21-11.13-.94-2.56-3.21-8.77-1.41-10.82.7-.79,3.43-.69,4.23,0,2.14,1.83.75,8.52,1.79,11.13,1.71,4.28,10.21,10.61,10.44,15.22.07,1.4-2.75,3.51-2.7,4.91.12,3,4.16,8.39,6.63,10.14,3.46,2.45,13.13,6.69,16.47,4.07.52-.41-.5-2.23,0-2.66,1.26-1.09,5.58-.39,6.59.94.72.94-1.32,3.75-.62,4.7s3.89.65,5.17.95c2,.46,8,2.19,8,2.19s7.46,11,11.29,12.87c3.23,1.62,11.81-1.41,14.42,1.08,2.14,2.05,2.62,9.07,1.41,11.77s-8.42,4.26-9.87,6.9c-1.27,2.3-.12,7.9-.47,10.51-.21,1.63-1.41,6.43-1.41,6.43s11.9,12.68,14.27,17.88c.64,1.41.06,5,1.11,6.11s5.17,1.41,5.8,1.41,11.6,8.32,11.6,8.32-4.88,25.87,0,32.31c.62.81,3.38.24,3.92,1.1,2,3.21-3.54,11.21-2.67,14.89.63,2.67,6.59,8.79,6.59,8.79s-2,11.15-1.22,14.77c.95,4.3,5.92,11.89,8.71,15.3,2.35,2.87,7.72,8.42,11.18,9.76,2.62,1,9,1.86,11.22.21a4.57,4.57,0,0,0,1.1-3.61c-.77-2.59-7.29-4.43-8.25-7-.31-.81.27-2.6.48-3.45.26-1.09,1.26-3.14,1.48-4.23s1-3.51.31-4.31c-.94-1-5.11,0-5.58-.16-1.09-.3-2.9-2.41-2.82-3.54.11-1.61,3.88-3,4.64-4.47l.62-3.37-5.18-1.49.3-3.13,7.38-1.12s9-3.25,11.22-5.39c0,0,3.92-7.15,3.76-6.9l9.1-11.64,2.67-3.41-2.67-11.74a.18.18,0,0,1,0-.06c.46-1.74,3.6-6.25,3.6-6.25l10.83.32,7.28-5.77c2.75-5,.21-17.42,2.36-22.71,1.23-3,6.69-7.31,8.08-10.26.72-1.53,2.27-5.14,1.42-6.6-1-1.68-5.85-1.17-7.37-2.36,0,0-4-7.12-4.87-8,0,0-12.54.61-16.62-.16a38.22,38.22,0,0,1-4.7-1.79l-8.48-3.23s.06-7.15-.63-9.4-4.4-7.69-4.4-7.69L275.26,314c-3.21,0-4.51-8.68-6.9-10.81-1.27-1.13-4.63-3.81-6.12-3-.72.4.28,2.72-.31,3.29-2,1.94-8.61,1.85-11.13.66-1.58-.75-2.61-4.72-4.08-5.67-2.49-1.61-8.81-3.32-11.61-2.36-3.46,1.18-6.12,9.82-9.56,11.06-3.6,1.29-15.07-2.55-15.07-2.55s1.75-13.81-1.09-17c-1.87-2.07-9.76.62-11-1.88-1-2.11,4.14-6,4.41-8.32.14-1.23-.11-4.35-1.26-4.78-4.06-1.53-10.21,8.65-14.43,9.65-2.22.53-7.23.24-9.08-1.11-1.57-1.15-3.09-5.15-3.25-7.1s1.27-5.56,2-7.32c1-2.44,5-9.23,5-9.23s8.38-5.09,11.52-5.84c5.41-1.29,18.35-4,22.26,0,1.19,1.21-.06,6.79-.06,6.79s6.18,5,8,3.73c2.41-1.63-1.67-8.89-.63-11.6.73-1.91,4.18-4.51,5.76-5.8,2.7-2.2,11.64-7.64,11.64-7.64s.19-4.16.79-5.38c1.84-3.76,8.29-9.53,11.61-12.08,2.8-2.15,12-3.32,12.34-6.83,0-.35-1.08-.55-1.09-.9-.09-2.87,5.58-7.16,8.36-7.86a5.38,5.38,0,0,1,3.06.81c.47.31.84,1.74,1.4,1.76,1.18,0,2.21-2.82,3.17-3.52.17-.13.81-.13.78-.34-.12-.87-2.62-.29-3.48-.49s-3-.42-3.52-1.17a4.64,4.64,0,0,1,0-3.41,4.3,4.3,0,0,1,1.87-1.53,10.27,10.27,0,0,1,4.12,0,5.08,5.08,0,0,1,1.89.83c.67.63.82,2.87,1.64,3.3a2.3,2.3,0,0,0,2-.3c0-.05-.06-.25,0-.29s.42.18.58.19c1.46.12,4.68.07,5.78-.89.55-.49.18-2.46.82-2.83s2.77.16,3.29.83a3.94,3.94,0,0,1,0,3.07c-.43.82-3.34,1.22-3.06,2.11h0c.64.56-.11,2.72.44,3.36,1.28,1.52,5.7,1.76,7.6,2.34.72.22,2.39.33,2.89.89,0,0,0,.07,0,.12a2.51,2.51,0,0,0,2.41-.2c.78-.82.76-3.58.16-4.54-.79-1.28-4.67-1.23-5.48-2.5a5.69,5.69,0,0,1,0-4.59c.55-.77,3-.47,3.6-1.23,1-1.32,1.08-5.14.31-6.6-.54-1-2.93-1.78-3.9-2.38-.82-.5-2.8-1.18-3.29-2-1.41-2.4-.47-11.13-.47-11.13s-7.2,4.24-9.88,4.86c-.88.2-3,.67-3.62,0-1.42-1.59,2.17-6.73.94-8.47-2-2.83-10.07-3.88-13.45-3.17a11,11,0,0,0-5.56,4.2c-1.43,2.87,1.89,10.24,0,12.82-1.55,2.12-8,1.45-10,3.17-1.75,1.52-2.15,7-4,8.35-.88.66-3.51,1.42-4.34.7-2-1.73,1.76-8.68,0-10.69-1.56-1.79-9.41-1.3-9.41-1.3l-4.7-3.06S230.31,176,231,174.3c1.84-4.51,12.36-7.9,16.82-9.85,2-.86,6.42-3.65,8.24-2.5,1.18.75-.26,4.65.82,5.53.89.73,3.75.54,4.59-.24.51-.48-.14-2.28.35-2.78.85-.86,4,.2,4.79-.68a1.13,1.13,0,0,0,.08-1c-.29-.48-1.71-.41-2.05-.85s-.93-2.35-.47-2.94c.91-1.16,4.56.14,5.89-.5,1.16-.55,2.73-2.73,3.57-3.71.06-.06.12-.25.2-.27l0,0c.38-.06.73-.95,1.08-1.12,2.79-1.4,9.4-2.46,12.4-1.57,1.72.51,5.67,2.87,5.48,4.66-.44,4-14.89,3.62-14.37,7.65.6,4.66,14.13,6.51,18.29,4.31,1.45-.76,1-5.19,2.36-6.11.32-.22,1.18,0,1.57,0,1.61,0,5,.83,6.43,0s3.44-4,2.83-5.33-4.76-.26-5.66-1.41c-1-1.33.92-5.33,0-6.74-.54-.82-2.7-1.2-3.6-1.59-3.53-1.56-10.3-5.67-14.11-6.25-3-.46-9.3.5-12.24,1.41-1.86.57-5.94,1.92-6.9,3.61-1.09,1.91,2.1,7.3.47,8.78-1.35,1.22-5.88.14-7.21-1.1-.91-.85-1.49-3.67-1.12-4.86.7-2.23,7.71-4.08,6.92-6.28-1.06-3-9.43-1-12.55-.62-.94.11-2.92.45-3.61,1.09s-2.14,3.25-1.57,4.23,4-.19,4.71.79,0,3.91-.95,4.7c-1.51,1.31-6.36-.69-8,.47-.69.49-.57,2.65-1.27,3.13-2.38,1.65-9.46,2.29-11.59.32-1.21-1.12-.34-6.47-.78-6.57,0,0,0,0,0,0h0c.49.08,7.12.65,9.09-.17,2.23-.93,7.28-4.36,6.91-6.75-.16-1-2.73-2-3.78-1.88-1.72.27-3.37,4.26-5,4.87-2,.73-6.5.53-8.33-.47s-3.11-5.94-5-6.91c-2.38-1.21-8.14-.84-10.67,0-3.3,1.09-12.23,5-11.14,8.31.8,2.42,8.15-1.51,10.21,0a3.88,3.88,0,0,1,.93,3c-.23.88-3,1.65-2.66,2.5,1,2.64,9-1.28,11.29.31.91.63,2.35,3.17,1.72,4.07-1.81,2.62-10.29,1.59-12.71-.47-.61-.52-.06-2.57-.62-3.14-1.43-1.46-6.08-1-8-1.72-1.13-.43-3.07-2-4.24-2.35-2-.51-7.68-.08-9.16,0a189,189,0,0,0-63.14,78.86v10.64S133.27,240.84,134.42,242.68Z"/><path class="cls-2" d="M413.91,167.87c-1.12.77-3.29,2.69-3.67,4-.33,1.13.84,4.64.84,4.64s3.6-.07,4.49.63c1.43,1.12,1,6.05,2.71,6.77,1.92.82,5.93-4.17,7.74-3.12,2,1.14,2.78,7.33,1.28,9.06-.38.44-1.75,0-2.34,0-1.6-.12-4.76-1-6.37-.94-1.79,0-5.54.23-7.06,1.18-2.5,1.57-4.31,8.09-6.82,9.64-2.1,1.3-8-.21-9.76,1.53-1.51,1.49-2.58,6.59-1.41,8.36.59.88,3.56.08,4.12,1,.73,1.16,0,4.62-1.18,5.37-2.07,1.35-7.23-2-9.7-1.95-2.28,0-8.9,1.95-8.9,1.95a27.28,27.28,0,0,0-1.88,4.95c-.28,2.61,0,8.28,1.54,10.38.86,1.16,3.81,2.13,5.23,2.44,2.14.47,6.56.05,8.74-.06,1.48-.07,4.72.36,5.9-.54,1-.76,1.81-4.7,1.81-4.7s5.69-10.69,9.24-12c1.46-.54,4.58,1.66,6.08,1.25,1.95-.53,4.05-6,6-5.41,1.05.31.49,3.34,1.12,4.23,2.58,3.62,14,5.56,14.74,9.94.13.74-1.11,2.1-1.79,2.42-1.5.71-5.84-1.81-6.64-.36-.54,1,1.62,3,2.55,3.62a8.53,8.53,0,0,0,4.09.9c1.29-.12,4.07-.91,4.78-2s-.83-4.53-.08-5.76c.31-.51,2-.48,2.13-1.06s-1.22-1.43-1.71-1.81c-2.22-1.73-8-3.33-9.83-5.48-1.25-1.48-3.7-5.7-2.59-7.28s6.29-.78,8.18,0c.85.35,1.93,2,2.61,2.58,1.71,1.58,6,4,7,6.06.8,1.65-.41,5.64.3,7.34,1,2.46,7.29,7.76,7.29,7.76s1-8.47,2.71-10.64c.88-1.14,3.78-3.42,5.05-2.76,1.94,1,0,6.71.94,8.71.75,1.67,3.26,4.69,4.94,5.41,1.94.84,7.82.11,9.42-.11a188.75,188.75,0,0,0-51.12-73.06,14.57,14.57,0,0,1-2.05,3.56C420.85,166,415.84,166.55,413.91,167.87Z"/><path class="cls-2" d="M480.24,249.82c-3.5,1.36-11.47,1.18-15,0-2.72-.9-6.43-6.06-9.18-6.83-2.33-.65-8-.85-9.64.94-1,1.09,1,4.85,0,5.89-.54.54-2.33.23-3.05,0-1-.31-2.38-1.92-3.3-2.35-3.91-1.81-14.06-.83-16.71-4.24-1.66-2.14,2-9,0-10.82-3.9-3.61-16.08.16-21.18,1.65-1.79.52-4.76,3.07-6.57,3.53-2,.51-6.31.1-8.41,0-1-.05-3.11-.62-4.13-.41-2.86.59-8.73,3.16-10.2,5.67-1.36,2.3,1.21,8.29,0,10.66-2.93,5.73-18.72,9-20.87,15.05-.56,1.57.41,5.42,1.73,6.43.84.64,3.55-.81,4.23,0,1,1.19-.1,4.93-1.1,6.12-.51.61-2.53.45-3,1.09-2.3,3.27-.14,16-.14,16l18,20.54s6.23,1.11,7.84,0c.28-.19.2-1.07.48-1.25,2.9-2,10.83,1.29,14.12,0,1.29-.51,2.78-3.26,4.07-3.76a14.56,14.56,0,0,1,8,0c1.43.6,3,3.72,4.39,4.39,2.71,1.29,10-1.08,11.92,1.24,2.52,3.09-1.57,15.85-1.57,15.85l13.25,23.37s-6.22,9.65-7,13.33a13.61,13.61,0,0,0,.47,6.28c.81,1.76,4.76,3.68,5.5,5.48,1.45,3.49,0,15.09,0,15.09s6.25,6.84,7.2,9.7,0,12.55,0,12.55h5.94A188.49,188.49,0,0,0,481,249.2,2.88,2.88,0,0,1,480.24,249.82Z"/><path class="cls-2" d="M390.06,185.19c1,.69,3.57,1.61,4.25,2.67.41.65.83,2.43.39,3.06-.68.95-3.78.08-4.56.95-1.09,1.22-1.72,5.3-.62,6.51.92,1,4.12.07,5.49,0,1.83-.09,5.67.15,7.29-.7,1.29-.68,4.12-3.06,3.76-4.48-.27-1-3.12-.94-4-1.56a13.88,13.88,0,0,1-2.19-2.52,32.82,32.82,0,0,1-3.3-5.33c-.71-1.79,0-6.48-1.56-7.53-1.32-.87-4.89.37-6.19,1.25a6.4,6.4,0,0,0-1.73,2.66,5.38,5.38,0,0,0,0,3C387.5,184,389.31,184.7,390.06,185.19Z"/><path class="cls-2" d="M381.28,195.86c2.26-.72,6.58-3.42,7.76-5.49.5-.89.85-3.2.33-4.07s-2.64-1.48-3.62-1.57a10.17,10.17,0,0,0-5.08,1.18c-1.45,1-3.28,4.33-3.77,6-.27.94-.69,3.23,0,3.92S380.24,196.2,381.28,195.86Z"/><path class="cls-2" d="M230.89,150.16h0S230.85,150.15,230.89,150.16Z"/><circle class="cls-3" cx="300.31" cy="301.69" r="188.25"/><circle class="cls-3" cx="300.31" cy="301.69" r="291.13"/><path class="cls-4" d="M198.92,160.89s-33-38.75-37.25-55.64c-15.76-63.1,92.64-69.13,75.36,1.4C232.92,123.46,198.92,160.89,198.92,160.89Z"/><circle class="cls-5" cx="199.5" cy="100.3" r="13.13"/><path class="cls-4" d="M289.21,349.78S256.19,311,252,294.14c-15.76-63.1,92.64-69.13,75.36,1.4C323.21,312.35,289.21,349.78,289.21,349.78Z"/><circle class="cls-5" cx="289.8" cy="290.19" r="13.13"/><path class="cls-4" d="M437,289.49s-33-38.75-37.25-55.64c-15.76-63.1,92.64-69.13,75.36,1.4C471,252.06,437,289.49,437,289.49Z"/><circle class="cls-5" cx="437.55" cy="228.9" r="13.13"/><path class="cls-3" d="M300.31,533.17c-127.84,0-231.48-103.64-231.48-231.48A230.71,230.71,0,0,1,133.66,141"/></svg>