<svg id="Réteg_1" data-name="Réteg 1" xmlns="http://www.w3.org/2000/svg" viewBox="0 0 600 600"><defs><style>.cls-1{fill:#f2f2f2;}.cls-1,.cls-16,.cls-17,.cls-18,.cls-2,.cls-3,.cls-4{stroke:#000;}.cls-1,.cls-14,.cls-15,.cls-16,.cls-17,.cls-18,.cls-19,.cls-2,.cls-3,.cls-4,.cls-5,.cls-6,.cls-7,.cls-8,.cls-9{stroke-miterlimit:10;}.cls-1,.cls-2,.cls-3,.cls-4,.cls-9{stroke-width:3.4px;}.cls-2{fill:#b3b3b3;opacity:0.6;}.cls-10,.cls-12,.cls-3{fill:#c1172c;}.cls-4,.cls-9{fill:none;}.cls-5{fill:#fff;}.cls-19,.cls-5,.cls-6,.cls-7,.cls-8,.cls-9{stroke:#1a1a1a;}.cls-5,.cls-6{stroke-width:3.57px;}.cls-11,.cls-19,.cls-6,.cls-7,.cls-8{fill:#1a1a1a;}.cls-7{stroke-width:5.88px;}.cls-8{stroke-width:2.53px;}.cls-12{font-size:41.64px;font-family:MyriadPro-Regular, Myriad Pro;}.cls-13{letter-spacing:-0.04em;}.cls-14{fill:#333;stroke:#333;stroke-width:1.23px;}.cls-15{fill:#4d4d4d;stroke:#4d4d4d;}.cls-15,.cls-17,.cls-18{stroke-width:1.39px;}.cls-16{fill:#999;stroke-width:2.26px;}.cls-17{fill:#c8eaf5;}.cls-18{fill:#666;}.cls-19{stroke-width:1.68px;}</style></defs><title>elo-online</title><rect class="cls-1" x="101.26" y="237.62" width="377.2" height="270.72"/><rect class="cls-2" x="101.26" y="441.08" width="377.2" height="65.84"/><polygon class="cls-3" points="262.96 320.87 262.96 377.79 316.48 349.33 262.96 320.87"/><line class="cls-4" x1="126.18" y1="472.94" x2="449.01" y2="472.94"/><circle cx="174.61" cy="472.94" r="11.89"/><rect class="cls-5" x="361.06" y="173.84" width="184.64" height="129.35"/><rect class="cls-6" x="337.94" y="97.59" width="189.58" height="23.7" transform="translate(11.11 255.98) rotate(-33.36)"/><rect class="cls-6" x="361.06" y="187.66" width="184.64" height="20.74"/><polygon class="cls-7" points="440.54 234.21 440.54 269.48 472.14 251.84 440.54 234.21"/><rect class="cls-8" x="271.19" y="29.55" width="36.81" height="78.16" rx="18.41" ry="18.41"/><path class="cls-9" d="M317.91,90a28.32,28.32,0,1,1-56.64,0"/><line class="cls-9" x1="289.59" y1="118.3" x2="289.59" y2="144.35"/><line class="cls-9" x1="268.35" y1="144.35" x2="308" y2="144.35"/><polygon class="cls-10" points="446.97 526.91 446.97 569.74 487.75 548.33 446.97 526.91"/><rect class="cls-11" x="70.43" y="168.63" width="16.42" height="32.92"/><rect class="cls-11" x="92.27" y="150.65" width="16.42" height="51.15"/><rect class="cls-11" x="115.03" y="130.52" width="16.42" height="71.38"/><text class="cls-12" transform="translate(363.3 564.16)">É<tspan class="cls-13" x="20.48" y="0">L</tspan><tspan x="38.51" y="0">Ő</tspan></text><rect class="cls-14" x="208.06" y="257.64" width="49.73" height="6.03" rx="2.66" ry="2.66" transform="translate(339 -72.42) rotate(59.45)"/><rect class="cls-14" x="181.53" y="259.11" width="49.73" height="6.03" rx="2.66" ry="2.66" transform="translate(537.05 217.62) rotate(120.55)"/><rect class="cls-14" x="195.17" y="257.64" width="49.73" height="6.03" rx="2.66" ry="2.66" transform="translate(475.43 34.53) rotate(88.65)"/><rect class="cls-15" x="201.07" y="234.36" width="36.73" height="8.83" rx="4.41" ry="4.41"/><circle class="cls-16" cx="218.68" cy="194.93" r="43.84"/><circle class="cls-17" cx="218.68" cy="194.93" r="36.55"/><circle class="cls-18" cx="219.4" cy="193.9" r="24.62"/><circle class="cls-19" cx="219.4" cy="193.9" r="16.95"/></svg>