<svg id="Réteg_1" data-name="Réteg 1" xmlns="http://www.w3.org/2000/svg" viewBox="0 0 1954.07 1037.79"><defs><style>.cls-1{fill:#00aeef;}.cls-2{fill:#f15a29;}</style></defs><title>htmlcss</title><path class="cls-1" d="M0,177.46,257,1002l354.5,20.83L925.3,856.9,817.3,0Zm717.85,132,13.54,107.65L771.83,739.9,572.73,844.39l-.1.08L348.28,831.81,297.5,669.47,401.18,647l26.36,84.26,121.81,6.08.09-.14,108.44-56.07-15.36-146.5-362.2,79.69L248.78,518.6l380.43-87.25L614.16,324.88,215.09,412.7l-27.86-95.92L446,260.6,704.7,204.42Z"/><path class="cls-2" d="M1135.53,11.1,1012.16,864.69l311.43,173.1,358.29-14.67,272.19-818.38ZM1728,439.16l-391.83-92.69L1320,453.75l374.39,88.57L1590.46,851.7l-222.32,8.17-.14.59-2.33-.55L1169,752l25.44-164.63,101.74,24.07-11.7,83.17,106.66,57.76,121.81-3.71,44.16-129.52L1201.29,535l46.11-316.91,513.93,121.58Z"/></svg>