<svg id="Réteg_1" data-name="Réteg 1" xmlns="http://www.w3.org/2000/svg" viewBox="0 0 1920 400"><defs><style>.cls-1,.cls-10,.cls-11,.cls-12,.cls-15,.cls-16,.cls-17,.cls-18,.cls-19,.cls-20,.cls-21,.cls-22,.cls-23,.cls-24,.cls-25,.cls-26,.cls-27,.cls-28,.cls-29,.cls-3,.cls-30,.cls-31,.cls-32,.cls-33,.cls-36,.cls-4,.cls-5,.cls-6,.cls-7,.cls-8,.cls-9{fill:none;}.cls-1,.cls-10,.cls-3,.cls-4,.cls-5,.cls-6,.cls-7,.cls-9{stroke:#a6a8ab;}.cls-1,.cls-10,.cls-11,.cls-12,.cls-14,.cls-15,.cls-16,.cls-17,.cls-18,.cls-19,.cls-20,.cls-21,.cls-22,.cls-23,.cls-24,.cls-25,.cls-26,.cls-27,.cls-28,.cls-29,.cls-3,.cls-30,.cls-31,.cls-32,.cls-33,.cls-36,.cls-37,.cls-4,.cls-5,.cls-6,.cls-7,.cls-8,.cls-9{stroke-miterlimit:10;}.cls-1{stroke-width:1.62px;}.cls-2{fill:#a6a8ab;}.cls-17,.cls-3,.cls-30{stroke-width:1.95px;}.cls-15,.cls-36,.cls-37,.cls-4{stroke-width:1.69px;}.cls-28,.cls-5{stroke-width:2.93px;}.cls-6{stroke-width:1.82px;}.cls-26,.cls-7{stroke-width:1.13px;}.cls-24,.cls-25,.cls-26,.cls-27,.cls-28,.cls-29,.cls-30,.cls-31,.cls-32,.cls-33,.cls-36,.cls-8{stroke:#000;}.cls-21,.cls-8,.cls-9{stroke-width:2.25px;}.cls-10,.cls-18{stroke-width:1.46px;}.cls-11,.cls-12,.cls-14,.cls-15,.cls-16,.cls-17,.cls-18,.cls-19,.cls-20,.cls-21,.cls-22,.cls-23,.cls-37{stroke:#231f20;}.cls-11{stroke-width:2.34px;}.cls-12{stroke-width:3.32px;}.cls-13{fill:#231f20;}.cls-14{fill:#fff;stroke-width:1.39px;}.cls-16{stroke-width:0.93px;}.cls-19{stroke-width:0.97px;}.cls-20,.cls-25{stroke-width:0.98px;}.cls-22{stroke-width:2.01px;}.cls-23{stroke-width:1.68px;}.cls-24{stroke-width:1.72px;}.cls-27{stroke-width:1.22px;}.cls-29{stroke-width:2.31px;}.cls-31{stroke-width:2.21px;}.cls-32{stroke-width:1.5px;}.cls-33{stroke-width:1.01px;}.cls-34{fill:#25a9e0;}.cls-35{fill:red;}</style></defs><title>footer-xxl</title><polyline class="cls-1" points="937.46 441.36 937.46 377.08 870.53 377.08 870.53 291.05"/><circle class="cls-2" cx="937.46" cy="377.08" r="5.73"/><circle class="cls-2" cx="870.53" cy="291.78" r="5.97"/><circle class="cls-2" cx="870.53" cy="377.08" r="4.56"/><line class="cls-3" x1="830.49" y1="404.89" x2="830.49" y2="258.32"/><circle class="cls-2" cx="830.49" cy="258.32" r="5.54"/><polyline class="cls-4" points="659.03 373.56 376.69 373.56 376.69 333.84 474.36 333.84 474.36 190.61"/><polyline class="cls-4" points="785.89 402.07 785.89 286.31 624.75 286.31"/><circle class="cls-2" cx="624.75" cy="286.31" r="6.19"/><circle class="cls-2" cx="376.69" cy="373.56" r="6.67"/><circle class="cls-2" cx="474.36" cy="190.61" r="10.58"/><circle class="cls-2" cx="624.83" cy="190.69" r="7"/><line class="cls-5" x1="658.61" y1="403.76" x2="658.61" y2="286.96"/><circle class="cls-2" cx="658.61" cy="286.96" r="8.42"/><line class="cls-3" x1="474.68" y1="246.84" x2="426.34" y2="246.84"/><circle class="cls-2" cx="427.8" cy="246.35" r="5.49"/><polyline class="cls-6" points="1327.43 328.57 1148.89 328.57 1148.89 366.57 948.12 366.57 947.59 335.01 1027.61 335.01 1027.61 268.5"/><circle class="cls-2" cx="1148.89" cy="328.57" r="4.11"/><circle class="cls-2" cx="948.12" cy="366.49" r="2.82"/><circle class="cls-2" cx="1027.61" cy="268.51" r="4.51"/><circle class="cls-2" cx="1327.05" cy="328.63" r="5.66"/><circle class="cls-2" cx="1420.04" cy="309.54" r="7"/><circle class="cls-2" cx="1520.36" cy="309.54" r="7"/><circle cx="1714.23" cy="307.29" r="5.07"/><circle class="cls-2" cx="1558.68" cy="271.22" r="5.64"/><circle class="cls-2" cx="1745.61" cy="318.1" r="5.64"/><circle class="cls-2" cx="1885.37" cy="289.92" r="5.64"/><circle class="cls-2" cx="1027.31" cy="334.63" r="3.95"/><circle class="cls-2" cx="523.78" cy="329.37" r="5.64"/><line class="cls-4" x1="1191.61" y1="398.13" x2="1191.08" y2="330.4"/><circle class="cls-2" cx="1191.08" cy="328.14" r="6.2"/><line class="cls-7" x1="1027.44" y1="313.95" x2="991.54" y2="313.59"/><circle class="cls-2" cx="991.54" cy="313.59" r="4.51"/><polyline class="cls-8" points="1714.05 306.83 1803.09 306.83 1803.09 344.02 2120.95 344.02 2120.95 400.38"/><polyline class="cls-9" points="1418.73 402.64 1418.73 309.08 1520.18 309.08"/><polyline class="cls-10" points="725.02 403.76 725.02 328.63 700.93 328.63 700.93 303.89"/><circle class="cls-2" cx="725.02" cy="328.63" r="2.93"/><circle class="cls-2" cx="700.77" cy="304.46" r="3.17"/><line class="cls-3" x1="625.08" y1="284.44" x2="625.08" y2="190.73"/><circle class="cls-2" cx="545.65" cy="373.56" r="5.07"/><line class="cls-3" x1="545.65" y1="373.56" x2="545.19" y2="284.29"/><circle class="cls-2" cx="545.65" cy="288.6" r="5.07"/><polyline class="cls-10" points="406.42 192.88 366.38 192.88 366.38 157.4"/><circle class="cls-2" cx="366.38" cy="156.27" r="4.07"/><circle class="cls-2" cx="406.42" cy="191.76" r="3.09"/><circle class="cls-2" cx="366.38" cy="191.76" r="3.58"/><polyline class="cls-10" points="1120.6 380.09 1120.6 319.79 1092.59 320.31 1092.59 284.82"/><circle class="cls-2" cx="1092.59" cy="284.82" r="4.07"/><circle class="cls-2" cx="1120.23" cy="320.31" r="3.09"/><circle class="cls-2" cx="1092.59" cy="320.31" r="3.58"/><polyline class="cls-7" points="416.08 290.79 361.47 291.05 361.47 318.1 344.56 318.1"/><circle class="cls-2" cx="416.08" cy="290.79" r="4.15"/><circle class="cls-2" cx="343.95" cy="318.97" r="3.38"/><circle class="cls-2" cx="361.47" cy="291.05" r="2.25"/><polyline class="cls-10" points="314.69 336.93 286.89 336.93 286.89 311.05 318.95 311.05 318.95 237.64 273.54 237.64 273.54 162.28"/><circle class="cls-2" cx="286.89" cy="336.93" r="2.12"/><circle class="cls-2" cx="318.95" cy="311.05" r="2.69"/><circle class="cls-2" cx="318.95" cy="237.64" r="2.93"/><circle class="cls-2" cx="273.54" cy="237.64" r="2.6"/><circle class="cls-2" cx="273.54" cy="162.28" r="3.5"/><polyline class="cls-3" points="569.53 404.89 569.99 329.37 524.9 329.37"/><polyline class="cls-3" points="77.42 218.09 214.64 218.09 214.94 154.66 94.33 154.66 94.33 94.92 15.43 94.92 15.43 31.8"/><circle class="cls-2" cx="214.64" cy="218.09" r="4.88"/><circle class="cls-2" cx="15.13" cy="32.11" r="4.88"/><circle class="cls-2" cx="94.03" cy="153.85" r="4.88"/><circle class="cls-2" cx="214.64" cy="153.85" r="3.95"/><circle class="cls-2" cx="72.92" cy="218.09" r="7.49"/><polyline class="cls-3" points="31.63 403.76 31.63 254.74 -15 254.98"/><circle class="cls-2" cx="30.65" cy="254.74" r="7.98"/><polyline class="cls-3" points="244.53 403.76 244.53 306.82 152.73 306.82 133.84 306.82 133.78 399.25"/><line class="cls-3" x1="154.35" y1="233.9" x2="154.35" y2="306.82"/><circle class="cls-2" cx="244.53" cy="306.82" r="7"/><circle class="cls-2" cx="154.19" cy="306.33" r="6.67"/><circle class="cls-2" cx="154.68" cy="232.93" r="6.67"/><line class="cls-11" x1="765.18" y1="400.38" x2="765.18" y2="273.01"/><polyline class="cls-12" points="499.54 407.14 499.1 228.04 416.08 228.04 416.08 153.82"/><circle class="cls-13" cx="499.1" cy="228.04" r="8.31"/><circle class="cls-13" cx="416.08" cy="153.82" r="5.86"/><circle class="cls-14" cx="805.75" cy="289.57" r="7.89"/><polyline class="cls-15" points="890.1 399.25 889.74 358.91 805.75 358.91 805.75 289.57"/><circle cx="888.61" cy="332.98" r="4.31"/><circle class="cls-13" cx="805.75" cy="289.57" r="5.48"/><circle class="cls-13" cx="805.75" cy="358.91" r="4.15"/><circle cx="1249.3" cy="377.73" r="3.91"/><circle class="cls-13" cx="963.06" cy="295.47" r="3.91"/><circle class="cls-16" cx="805.75" cy="358.91" r="6.76"/><polyline class="cls-11" points="601.15 403.76 601.15 215.35 555.25 215.35 555.25 228.04 499.1 228.04"/><circle class="cls-13" cx="600.66" cy="343.28" r="5.49"/><circle class="cls-13" cx="600.18" cy="259.29" r="5.86"/><circle class="cls-17" cx="600.18" cy="259.29" r="13.31"/><line class="cls-12" x1="630.94" y1="403.76" x2="630.94" y2="343.04"/><polyline class="cls-11" points="744.23 401.51 744.23 343.28 600.66 343.28"/><circle class="cls-13" cx="744.21" cy="343.8" r="5.01"/><circle class="cls-13" cx="630.82" cy="344.6" r="8.31"/><circle class="cls-17" cx="630.82" cy="344.6" r="12.45"/><circle class="cls-17" cx="744.23" cy="343.28" r="10.86"/><polyline class="cls-18" points="706.82 379.57 681.91 379.57 681.91 356.13"/><circle class="cls-13" cx="706.82" cy="379.57" r="2.69"/><circle class="cls-13" cx="681.91" cy="356.86" r="3.05"/><circle class="cls-13" cx="681.91" cy="379.57" r="2.77"/><polyline class="cls-11" points="599.69 260.27 462.47 260.27 462.91 407.14"/><line class="cls-11" x1="460.52" y1="318.38" x2="414.62" y2="318.38"/><circle class="cls-13" cx="462.47" cy="260.27" r="4.88"/><circle class="cls-13" cx="462.67" cy="318.19" r="4.39"/><circle class="cls-13" cx="414.62" cy="318.38" r="4.64"/><polyline class="cls-18" points="349.68 406.58 349.68 347.68 400.95 347.68 400.95 261.25 365.79 261.25 365.79 231.46"/><circle class="cls-13" cx="349.92" cy="347.93" r="5.64"/><circle class="cls-13" cx="400.7" cy="347.43" r="5.09"/><circle class="cls-17" cx="349.92" cy="347.93" r="12.25"/><circle class="cls-13" cx="400.95" cy="261.25" r="3.91"/><circle class="cls-13" cx="365.79" cy="231.46" r="4.15"/><circle class="cls-13" cx="339.91" cy="220.72" r="3.3"/><circle class="cls-13" cx="298.03" cy="286.85" r="3.21"/><polyline class="cls-18" points="310.12 404.33 310.12 374.53 327.7 374.53 327.7 353.54 297.43 353.54 297.43 286.64 339.91 286.64 339.91 220.72"/><circle class="cls-13" cx="339.58" cy="286.8" r="3.09"/><circle class="cls-13" cx="327.7" cy="374.53" r="2.44"/><circle class="cls-13" cx="327.7" cy="353.54" r="2.56"/><circle class="cls-13" cx="297.43" cy="353.54" r="3.21"/><circle class="cls-19" cx="298.03" cy="286.85" r="8.45"/><polyline class="cls-17" points="263.73 401.51 263.73 361.35 182.68 361.35 182.68 293.48"/><polyline class="cls-17" points="182.68 361.35 164.12 361.35 164.12 403.76"/><circle class="cls-13" cx="263.73" cy="361.35" r="8.3"/><circle class="cls-13" cx="182.67" cy="361.35" r="4.88"/><circle class="cls-13" cx="182.67" cy="293.48" r="8.06"/><circle class="cls-17" cx="182.67" cy="361.35" r="13.55"/><line class="cls-20" x1="217.76" y1="399.25" x2="217.83" y2="370.87"/><circle class="cls-13" cx="217.83" cy="370.87" r="2.93"/><circle class="cls-17" cx="241.17" cy="267.11" r="14.16"/><circle class="cls-17" cx="415.82" cy="153.78" r="11.72"/><polyline class="cls-15" points="123.1 403.76 123.1 268.08 241.27 268.08 240.86 111.83"/><circle class="cls-13" cx="241.27" cy="268.08" r="5.74"/><circle class="cls-13" cx="121.64" cy="268.57" r="10.25"/><circle class="cls-13" cx="241.11" cy="106.44" r="7.65"/><polyline class="cls-21" points="1040.01 264 1068.19 264 1068.19 359.8 1050.53 359.8 1027.61 359.8 1027.61 404.89"/><circle class="cls-13" cx="1050.65" cy="327" r="4.51"/><circle class="cls-13" cx="1083.11" cy="336.45" r="5.74"/><circle cx="1119.18" cy="290.23" r="5.74"/><circle cx="1219.23" cy="266.25" r="3.38"/><circle cx="1264.58" cy="266.56" r="5.74"/><circle cx="1264.58" cy="348.85" r="5.74"/><circle cx="1358.43" cy="347.97" r="5.07"/><circle cx="1346.03" cy="287.1" r="5.07"/><circle class="cls-13" cx="1008.72" cy="350.28" r="7.65"/><circle class="cls-13" cx="1041.7" cy="264.56" r="6.2"/><circle cx="772.88" cy="297.81" r="3.95"/><circle cx="1599.08" cy="309.08" r="5.64"/><circle cx="1674.6" cy="277.52" r="4.51"/><circle cx="1502.14" cy="292.18" r="4.51"/><circle cx="1380.41" cy="262.87" r="4.51"/><circle cx="1503.27" cy="377.84" r="4.51"/><circle cx="1406.34" cy="331.63" r="4.51"/><circle cx="963.37" cy="350.79" r="5.64"/><circle cx="1675.37" cy="325.46" r="7.65"/><circle cx="1837.68" cy="247.68" r="5.64"/><circle cx="1467.98" cy="284.88" r="7.65"/><line class="cls-9" x1="1745.61" y1="395.87" x2="1745.61" y2="318.1"/><circle class="cls-13" cx="133.36" cy="182.63" r="5.37"/><circle class="cls-17" cx="180.23" cy="182.63" r="13.67"/><circle class="cls-13" cx="316.96" cy="122.57" r="5.21"/><circle cx="301.18" cy="248.81" r="5.21"/><circle cx="384.01" cy="101.69" r="4.51"/><circle cx="254.39" cy="146.77" r="4.51"/><polyline class="cls-11" points="449.78 207.05 316.96 207.05 316.96 122.57 180.23 122.57 180.23 182.63 133.36 182.63 133.36 203.63 122.13 203.63 122.13 266.62"/><circle class="cls-13" cx="449.78" cy="207.05" r="8.67"/><circle class="cls-13" cx="316.96" cy="207.05" r="5.49"/><circle class="cls-13" cx="180.23" cy="122.57" r="5.86"/><circle class="cls-13" cx="180.23" cy="182.63" r="6.19"/><polyline class="cls-22" points="11.16 213.16 11.16 153.69 56.39 153.69 56.39 13.77"/><circle class="cls-13" cx="56.39" cy="13.87" r="4.61"/><circle class="cls-13" cx="56.39" cy="153.69" r="4.82"/><circle class="cls-13" cx="11.16" cy="213.16" r="4.82"/><circle class="cls-23" cx="11.16" cy="213.16" r="10.26"/><polyline class="cls-12" points="74.27 402.64 74.27 293.48 -11.62 293.48"/><circle class="cls-13" cx="74.27" cy="293.48" r="9.28"/><circle class="cls-17" cx="59.62" cy="184.1" r="12.37"/><circle class="cls-13" cx="59.62" cy="270.04" r="5.86"/><circle class="cls-13" cx="112.11" cy="62.8" r="5.7"/><circle class="cls-13" cx="98.19" cy="340.56" r="3.42"/><circle class="cls-13" cx="111.87" cy="184.1" r="3.91"/><polyline class="cls-18" points="97.71 340.64 97.71 270.04 59.62 270.04 59.62 184.09 111.87 184.09 111.8 63.36"/><circle class="cls-13" cx="59.62" cy="184.1" r="4.88"/><circle class="cls-13" cx="97.71" cy="270.04" r="5.54"/><line class="cls-17" x1="383.37" y1="206.07" x2="383.37" y2="101.69"/><polyline class="cls-17" points="1161.74 337.1 1083.11 337.1 1083.11 297.38 1008.89 297.38 1008.89 348.17"/><polyline class="cls-24" points="910.77 432.33 910.39 350.79 963.37 350.79 963.37 295.56"/><polyline class="cls-25" points="903.41 276.43 776.45 276.43 776.45 235.41 688.56 235.41 688.56 274.48 667.07 274.48 667.49 195.24"/><polyline class="cls-26" points="773.76 298.49 740.29 298.49 740.29 251.22 709.76 251.03 709.76 198.06"/><ellipse class="cls-13" cx="947.67" cy="264.27" ry="0.98"/><polyline class="cls-4" points="1639.66 395.87 1639.66 271.89 1559.63 271.89"/><circle cx="948.64" cy="264.27" r="2.93"/><circle class="cls-27" cx="948.64" cy="264.27" r="4.88"/><circle cx="709.85" cy="199.14" r="2.93"/><circle cx="688.43" cy="235.21" r="2.93"/><circle cx="921.14" cy="332.23" r="2.93"/><circle cx="765.11" cy="272.8" r="2.93"/><circle cx="667.63" cy="195.16" r="5.07"/><polyline class="cls-26" points="948.71 264.6 921.98 264.6 921.98 332.96 888.78 332.96 888.78 317.33 859.48 317.33 859.48 398.13"/><circle cx="859.48" cy="317.61" r="3.91"/><circle cx="776.07" cy="235.33" r="3.91"/><circle cx="903.44" cy="275.91" r="3.91"/><circle cx="688.15" cy="274.78" r="3.91"/><polyline class="cls-28" points="1161.18 401.51 1161.24 305.19 1249.13 305.19 1249.13 377.46 1338.98 377.46 1339.27 402.64"/><path class="cls-29" d="M1503.27,377.84V292.18H1838s-1.69-42.27,0-44"/><polyline class="cls-30" points="1557.37 400.38 1557.81 325.71 1675.01 325.71 1674.6 276.39"/><polyline class="cls-8" points="1380.41 260.62 1380.41 347.41 1599.08 347.41 1599.08 309.08"/><line class="cls-8" x1="1468.33" y1="412.78" x2="1468.33" y2="285.41"/><polyline class="cls-31" points="1468.33 385.73 1406.34 385.73 1406.34 330.5"/><circle class="cls-32" cx="1503.27" cy="377.84" r="9.58"/><polyline class="cls-26" points="1118.91 289.92 1161.74 289.92 1161.74 266.25 1219.23 266.81 1219.23 398.13"/><polyline class="cls-26" points="1357.87 412.78 1357.87 349.66 1264.32 349.66 1264.32 266.25"/><polyline class="cls-33" points="301.6 249.34 259.23 249.34 259.23 216.26 307.13 216.26 307.13 146.77 254.63 146.77"/><rect class="cls-34" x="774.74" y="316.18" width="23.93" height="23.93" transform="translate(1573.42 656.29) rotate(-180)"/><rect class="cls-35" x="588.7" y="204.36" width="23.93" height="23.93" transform="translate(1201.33 432.65) rotate(-180)"/><rect class="cls-34" x="354.55" y="248.6" width="23.93" height="23.93" transform="translate(733.02 521.12) rotate(-180)"/><rect class="cls-34" x="230.41" y="183.22" width="23.93" height="23.93" transform="translate(484.74 390.37) rotate(-180)"/><rect class="cls-35" x="1148.78" y="295.46" width="23.93" height="23.93" transform="translate(2321.48 614.86) rotate(-180)"/><rect class="cls-34" x="1368.57" y="277.43" width="23.93" height="23.93" transform="translate(2761.07 578.79) rotate(-180)"/><rect class="cls-35" x="60.84" y="356.67" width="23.93" height="23.93" transform="translate(145.61 737.28) rotate(-180)"/><rect class="cls-34" x="485.75" y="328.9" width="23.93" height="23.93" transform="translate(995.42 681.72) rotate(-180)"/><circle class="cls-2" cx="315.07" cy="336.93" r="2.12"/><line class="cls-21" x1="1050.16" y1="359.8" x2="1050.16" y2="325.99"/><circle class="cls-17" cx="1853.95" cy="371.11" r="12.37"/><circle class="cls-13" cx="1768.01" cy="371.11" r="5.86"/><circle class="cls-13" cx="1697.48" cy="332.54" r="3.42"/><circle class="cls-13" cx="1853.95" cy="318.86" r="3.91"/><polyline class="cls-18" points="1697.4 333.02 1768.01 333.02 1768.01 371.11 1853.95 371.11 1853.95 318.86 1974.68 318.93"/><circle class="cls-13" cx="1853.95" cy="371.11" r="4.88"/><circle class="cls-13" cx="1768.01" cy="333.02" r="5.54"/><circle cx="1616.97" cy="358.94" r="5.54" transform="translate(1097.06 1931.56) rotate(-84.22)"/><circle cx="1720.67" cy="381.49" r="4.51"/><polyline class="cls-18" points="1601.77 382.95 1576.87 382.95 1576.87 359.51"/><circle class="cls-13" cx="1601.77" cy="382.95" r="2.69"/><circle class="cls-13" cx="1576.87" cy="360.24" r="3.05"/><circle class="cls-13" cx="1576.87" cy="382.95" r="2.77"/><polyline class="cls-36" points="1615.98 358.68 1720.81 358.68 1720.81 381.22"/><line class="cls-37" x1="1655.44" y1="347.41" x2="1655.44" y2="400.38"/><circle cx="1655.29" cy="347.67" r="3.38" transform="translate(1142.74 1959.55) rotate(-84.22)"/><polyline class="cls-9" points="1916.93 395.87 1916.93 289.92 1885.37 289.92"/><polyline class="cls-7" points="2021.76 395.87 2021.76 354.17 1894.39 354.17"/><circle class="cls-2" cx="1893.26" cy="354.17" r="3.95"/><rect class="cls-34" x="1545.27" y="315.37" width="23.93" height="23.93" transform="translate(3114.46 654.67) rotate(-180)"/><rect class="cls-35" x="1790.98" y="332.28" width="23.93" height="23.93" transform="translate(3605.9 688.49) rotate(-180)"/><polyline class="cls-26" points="1300.01 349.29 1300.01 287.67 1346.6 287.67"/><circle class="cls-2" cx="1120.23" cy="380.04" r="3.09"/></svg>