<svg id="Réteg_1" data-name="Réteg 1" xmlns="http://www.w3.org/2000/svg" viewBox="0 0 800 200"><defs><style>.cls-1,.cls-12,.cls-13,.cls-14,.cls-15,.cls-16,.cls-17,.cls-18,.cls-19,.cls-20,.cls-21,.cls-22,.cls-23,.cls-24,.cls-25,.cls-26,.cls-27,.cls-28,.cls-3,.cls-4,.cls-5,.cls-6,.cls-7,.cls-8,.cls-9{fill:none;}.cls-1,.cls-3,.cls-4,.cls-5,.cls-6{stroke:#a6a8ab;}.cls-1,.cls-11,.cls-12,.cls-13,.cls-14,.cls-15,.cls-16,.cls-17,.cls-18,.cls-19,.cls-20,.cls-21,.cls-22,.cls-23,.cls-24,.cls-25,.cls-26,.cls-27,.cls-28,.cls-3,.cls-4,.cls-5,.cls-6,.cls-7,.cls-8,.cls-9{stroke-miterlimit:10;}.cls-1,.cls-16,.cls-25{stroke-width:1.28px;}.cls-2{fill:#a6a8ab;}.cls-11,.cls-24,.cls-3,.cls-9{stroke-width:1.11px;}.cls-23,.cls-4{stroke-width:1.66px;}.cls-5{stroke-width:1.03px;}.cls-13,.cls-6{stroke-width:0.83px;}.cls-11,.cls-12,.cls-13,.cls-14,.cls-15,.cls-16,.cls-17,.cls-18,.cls-7,.cls-8,.cls-9{stroke:#231f20;}.cls-7{stroke-width:1.33px;}.cls-8{stroke-width:1.88px;}.cls-10{fill:#231f20;}.cls-11{fill:#fff;}.cls-12{stroke-width:0.96px;}.cls-14{stroke-width:0.55px;}.cls-15,.cls-20{stroke-width:0.55px;}.cls-17{stroke-width:1.14px;}.cls-18{stroke-width:0.95px;}.cls-19,.cls-20,.cls-21,.cls-22,.cls-23,.cls-24,.cls-25,.cls-26,.cls-27,.cls-28{stroke:#000;}.cls-19{stroke-width:0.97px;}.cls-21{stroke-width:0.64px;}.cls-22{stroke-width:0.69px;}.cls-26{stroke-width:1.25px;}.cls-27{stroke-width:0.85px;}.cls-28{stroke-width:0.57px;}.cls-29{fill:#25a9e0;}.cls-30{fill:red;}</style></defs><title>footer-lg</title><polyline class="cls-1" points="532.1 207.35 532.1 156.68 479.35 156.68 479.35 100.37"/><circle class="cls-2" cx="532.1" cy="156.68" r="4.52"/><circle class="cls-2" cx="479.35" cy="100.1" r="4.7"/><circle class="cls-2" cx="479.35" cy="156.68" r="3.6"/><line class="cls-3" x1="471.71" y1="199.8" x2="471.71" y2="127.49"/><circle class="cls-2" cx="471.71" cy="127.49" r="3.14"/><polyline class="cls-4" points="446.44 202.88 446.44 143.35 355.14 143.35 355.14 192.79 214.58 192.79 214.58 170.28 269.92 170.28 269.92 89.12 354.4 89.12"/><circle class="cls-2" cx="355.14" cy="143.35" r="3.5"/><circle class="cls-2" cx="214.58" cy="192.79" r="3.78"/><circle class="cls-2" cx="269.92" cy="89.12" r="5.99"/><circle class="cls-2" cx="355.18" cy="89.17" r="3.97"/><circle class="cls-3" cx="408.44" cy="143.4" r="4.71"/><line class="cls-4" x1="374.32" y1="201.6" x2="374.32" y2="143.72"/><circle class="cls-2" cx="374.32" cy="143.72" r="4.77"/><line class="cls-3" x1="270.1" y1="120.99" x2="242.71" y2="120.99"/><circle class="cls-2" cx="243.54" cy="120.71" r="3.11"/><polyline class="cls-5" points="753.29 167.29 652.12 167.29 652.12 188.83 538.36 188.83 538.06 170.94 583.41 170.94 583.41 133.26"/><circle class="cls-2" cx="652.12" cy="167.3" r="2.33"/><circle class="cls-2" cx="538.36" cy="188.78" r="3.06"/><circle class="cls-2" cx="583.41" cy="133.26" r="2.55"/><circle class="cls-2" cx="753.07" cy="167.33" r="3.21"/><circle class="cls-2" cx="760.42" cy="116.92" r="3.97"/><circle class="cls-2" cx="583.23" cy="170.73" r="2.24"/><circle class="cls-2" cx="312.61" cy="181.8" r="3.19"/><line class="cls-4" x1="676.4" y1="229.57" x2="676.03" y2="168.33"/><circle class="cls-2" cx="676.03" cy="168.33" r="4.77"/><line class="cls-3" x1="583.31" y1="159.01" x2="562.97" y2="158.81"/><circle class="cls-2" cx="562.97" cy="158.81" r="2.55"/><polyline class="cls-1" points="874 163.28 823.54 163.28 823.54 116.66 760.32 116.66"/><polyline class="cls-6" points="411.95 201.92 411.95 167.33 398.3 167.33 398.3 153.31"/><circle class="cls-2" cx="411.95" cy="167.33" r="1.66"/><circle class="cls-2" cx="398.21" cy="153.64" r="1.8"/><line class="cls-3" x1="355.32" y1="142.29" x2="355.32" y2="89.19"/><circle class="cls-2" cx="310.31" cy="192.79" r="2.87"/><line class="cls-3" x1="310.31" y1="192.79" x2="310.31" y2="68.65"/><circle class="cls-2" cx="310.31" cy="68.65" r="3.87"/><circle class="cls-2" cx="623.57" cy="181.08" r="3.87"/><polyline class="cls-6" points="223.12 145.4 223.12 90.41 200.43 90.41 200.43 70.31"/><circle class="cls-2" cx="200.43" cy="70.31" r="2.31"/><circle class="cls-2" cx="223.12" cy="90.41" r="1.75"/><circle class="cls-2" cx="200.43" cy="90.41" r="2.03"/><polyline class="cls-6" points="623.75 181.82 623.75 143.45 601.06 143.45 601.06 123.35"/><circle class="cls-2" cx="601.06" cy="123.35" r="2.31"/><circle class="cls-2" cx="623.75" cy="143.45" r="1.75"/><circle class="cls-2" cx="601.06" cy="143.45" r="2.03"/><polyline class="cls-3" points="236.9 145.89 196.37 145.89 196.37 204.15"/><circle class="cls-2" cx="236.9" cy="145.89" r="2.35"/><polyline class="cls-6" points="179.45 172.03 163.69 172.03 163.69 157.37 181.86 157.37 181.86 115.77 156.13 115.77 156.13 73.07"/><circle class="cls-2" cx="163.69" cy="172.03" r="1.2"/><circle class="cls-2" cx="181.86" cy="157.37" r="1.52"/><circle class="cls-2" cx="181.86" cy="115.77" r="1.66"/><circle class="cls-2" cx="156.13" cy="115.77" r="1.48"/><circle class="cls-2" cx="156.13" cy="73.07" r="1.98"/><line class="cls-3" x1="324.11" y1="154.98" x2="323.84" y2="201.57"/><polyline class="cls-3" points="45.01 104.7 122.76 104.7 122.93 77.06"/><circle class="cls-2" cx="122.76" cy="104.7" r="2.77"/><circle class="cls-2" cx="42.45" cy="104.7" r="4.24"/><line class="cls-3" x1="19.06" y1="204.15" x2="19.06" y2="125.46"/><polyline class="cls-3" points="139.69 203.51 139.69 154.97 87.68 154.97 76.98 154.97 76.98 202.24"/><line class="cls-3" x1="88.6" y1="113.66" x2="88.6" y2="154.97"/><circle class="cls-2" cx="139.69" cy="154.97" r="3.97"/><circle class="cls-2" cx="88.51" cy="154.7" r="3.78"/><circle class="cls-2" cx="88.78" cy="113.1" r="3.78"/><line class="cls-7" x1="434.71" y1="200.32" x2="434.71" y2="135.82"/><polyline class="cls-8" points="283.94 203.51 283.94 110.33 236.9 110.33 236.9 68.28"/><circle class="cls-9" cx="283.94" cy="152.94" r="7.19"/><circle class="cls-10" cx="283.94" cy="110.34" r="4.71"/><circle class="cls-10" cx="236.9" cy="68.28" r="3.32"/><circle class="cls-11" cx="505.28" cy="184.49" r="6.27"/><circle class="cls-11" cx="457.69" cy="145.2" r="6.27"/><polyline class="cls-12" points="505.28 203.51 505.28 184.49 457.69 184.49 457.69 145.2"/><circle class="cls-10" cx="505.28" cy="184.49" r="4.36"/><circle class="cls-10" cx="457.69" cy="145.2" r="4.36"/><circle class="cls-10" cx="457.69" cy="184.49" r="2.35"/><circle cx="747.98" cy="153" r="2.21"/><circle class="cls-10" cx="546.83" cy="148.54" r="2.21"/><circle class="cls-9" cx="457.69" cy="184.49" r="8.02"/><polyline class="cls-7" points="341.76 204.15 341.76 103.14 315.76 103.14 315.76 110.33 283.94 110.33"/><circle class="cls-10" cx="341.49" cy="175.63" r="3.11"/><circle class="cls-10" cx="341.21" cy="128.04" r="3.32"/><circle class="cls-9" cx="341.21" cy="128.04" r="7.54"/><line class="cls-8" x1="358.64" y1="202.88" x2="358.64" y2="175.49"/><polyline class="cls-7" points="422.83 201.78 422.83 175.63 341.49 175.63"/><circle class="cls-10" cx="422.82" cy="175.93" r="2.84"/><circle class="cls-10" cx="358.57" cy="176.38" r="4.71"/><circle class="cls-9" cx="358.57" cy="176.38" r="7.06"/><circle class="cls-9" cx="422.83" cy="175.63" r="6.16"/><polyline class="cls-13" points="394.61 195.55 380.5 195.55 380.5 182.27"/><circle class="cls-10" cx="394.61" cy="195.55" r="1.52"/><circle class="cls-10" cx="380.5" cy="182.69" r="1.73"/><circle class="cls-10" cx="380.5" cy="195.55" r="1.57"/><polyline class="cls-7" points="340.93 128.6 263.19 128.6 263.19 203.51"/><line class="cls-7" x1="262.08" y1="161.52" x2="236.07" y2="161.52"/><circle class="cls-10" cx="263.19" cy="128.6" r="2.77"/><circle class="cls-10" cx="263.3" cy="161.41" r="2.49"/><circle class="cls-10" cx="236.07" cy="161.52" r="2.63"/><polyline class="cls-13" points="199.27 203.51 199.27 178.12 228.32 178.12 228.32 129.15 208.4 129.15 208.4 112.27"/><circle class="cls-10" cx="199.41" cy="178.27" r="3.19"/><circle class="cls-10" cx="228.19" cy="177.98" r="2.88"/><circle class="cls-9" cx="199.41" cy="178.27" r="6.94"/><circle class="cls-10" cx="228.32" cy="129.15" r="2.21"/><circle class="cls-10" cx="208.4" cy="112.27" r="2.35"/><circle class="cls-10" cx="193.74" cy="106.18" r="1.87"/><circle class="cls-10" cx="170.01" cy="143.66" r="1.82"/><polyline class="cls-13" points="176.86 199.15 176.86 193.34 186.82 193.34 186.82 181.44 169.67 181.44 169.67 143.54 193.74 143.54 193.74 106.19"/><circle class="cls-10" cx="193.55" cy="143.63" r="1.75"/><circle class="cls-10" cx="186.82" cy="193.34" r="1.38"/><circle class="cls-10" cx="186.82" cy="181.44" r="1.45"/><circle class="cls-10" cx="169.67" cy="181.44" r="1.82"/><circle class="cls-14" cx="170.01" cy="143.66" r="4.79"/><polyline class="cls-9" points="150.57 198.87 150.57 185.87 104.65 185.87 104.65 147.41"/><polyline class="cls-9" points="104.65 185.87 94.13 185.87 94.13 203.51"/><circle class="cls-10" cx="150.58" cy="185.87" r="4.7"/><circle class="cls-10" cx="104.65" cy="185.87" r="2.77"/><circle class="cls-10" cx="104.65" cy="147.41" r="4.57"/><circle class="cls-9" cx="104.65" cy="185.87" r="7.68"/><line class="cls-15" x1="124.52" y1="201.6" x2="124.57" y2="191.27"/><circle class="cls-10" cx="124.57" cy="191.27" r="1.66"/><circle class="cls-9" cx="137.79" cy="132.47" r="8.02"/><circle class="cls-9" cx="137.76" cy="23.55" r="6.64"/><polyline class="cls-12" points="70.89 202.24 70.89 133.02 137.85 133.02 137.85 22.9"/><circle class="cls-10" cx="137.85" cy="133.02" r="3.25"/><circle class="cls-10" cx="70.06" cy="133.3" r="5.81"/><circle class="cls-10" cx="137.76" cy="23.55" r="4.33"/><polyline class="cls-16" points="590.43 130.71 606.4 130.71 606.4 184.99 596.39 184.99 583.41 184.99 583.41 204.15"/><circle class="cls-10" cx="596.46" cy="166.4" r="2.55"/><circle class="cls-10" cx="614.85" cy="171.76" r="3.25"/><circle cx="635.29" cy="145.57" r="3.25"/><circle cx="717.68" cy="132.16" r="3.25"/><circle cx="717.68" cy="178.78" r="3.25"/><circle cx="770.86" cy="178.29" r="2.87"/><circle class="cls-10" cx="572.7" cy="179.6" r="4.33"/><circle class="cls-10" cx="591.39" cy="131.03" r="3.51"/><circle cx="439.07" cy="149.87" r="2.24"/><circle cx="732.85" cy="148.59" r="3.19"/><circle cx="799.28" cy="101.97" r="2.55"/><circle cx="592.99" cy="141.56" r="2.55"/><circle cx="783.31" cy="91.11" r="2.55"/><circle cx="748.18" cy="106.44" r="2.55"/><circle cx="547" cy="179.88" r="3.19"/><circle cx="799.08" cy="148.29" r="4.33"/><circle class="cls-10" cx="76.7" cy="84.6" r="3.04"/><circle class="cls-9" cx="103.26" cy="84.6" r="7.75"/><circle class="cls-9" cx="103.26" cy="50.57" r="7.38"/><circle class="cls-10" cx="180.73" cy="50.57" r="2.95"/><circle cx="171.79" cy="122.1" r="2.95"/><circle cx="218.73" cy="38.74" r="2.55"/><circle cx="145.28" cy="64.29" r="2.55"/><polyline class="cls-7" points="255.99 98.44 180.73 98.44 180.73 50.57 103.26 50.57 103.26 84.6 76.7 84.6 76.7 96.5 70.34 96.5 70.34 132.19"/><circle class="cls-10" cx="255.99" cy="98.44" r="4.91"/><circle class="cls-10" cx="180.73" cy="98.44" r="3.11"/><circle class="cls-10" cx="103.26" cy="50.57" r="3.32"/><circle class="cls-10" cx="103.26" cy="84.6" r="3.5"/><polyline class="cls-17" points="7.46 101.9 7.46 68.2 33.09 68.2 33.09 27.86"/><circle class="cls-10" cx="33.09" cy="28.58" r="2.61"/><circle class="cls-10" cx="33.09" cy="68.2" r="2.73"/><circle class="cls-10" cx="7.46" cy="101.9" r="2.73"/><circle class="cls-18" cx="7.46" cy="101.9" r="5.81"/><polyline class="cls-8" points="43.22 201.6 43.22 147.41 -5.45 147.41"/><circle class="cls-10" cx="43.22" cy="147.41" r="5.26"/><circle class="cls-9" cx="64.66" cy="34.59" r="8.02"/><circle class="cls-9" cx="34.92" cy="85.43" r="7.01"/><circle class="cls-10" cx="34.92" cy="134.13" r="3.32"/><circle class="cls-10" cx="64.66" cy="34.59" r="3.23"/><circle class="cls-10" cx="56.13" cy="151.1" r="1.94"/><circle class="cls-10" cx="64.53" cy="85.43" r="2.21"/><polyline class="cls-13" points="56.5 150.18 56.5 134.13 34.92 134.13 34.92 85.43 64.53 85.43 64.53 34.27"/><line class="cls-13" x1="63.7" y1="34.8" x2="10.57" y2="34.8"/><circle class="cls-10" cx="34.92" cy="85.43" r="2.77"/><circle class="cls-10" cx="10.57" cy="34.8" r="3.74"/><circle class="cls-10" cx="56.5" cy="134.13" r="3.14"/><line class="cls-9" x1="218.36" y1="97.88" x2="218.36" y2="38.74"/><polyline class="cls-9" points="659.41 172.13 614.85 172.13 614.85 149.62 572.79 149.62 572.79 178.4"/><polyline class="cls-19" points="517.2 226.09 516.99 179.88 547 179.88 547 148.59"/><polyline class="cls-20" points="513.03 137.75 441.09 137.75 441.09 114.51 391.29 114.51 391.29 136.65 379.12 136.65 379.35 91.75"/><polyline class="cls-21" points="439.57 150.25 420.61 150.25 420.61 123.47 403.3 123.36 403.3 93.34"/><ellipse class="cls-10" cx="538.11" cy="130.86" ry="0.55"/><circle cx="538.66" cy="130.86" r="1.66"/><circle class="cls-22" cx="538.66" cy="130.86" r="2.77"/><circle cx="403.35" cy="93.96" r="1.66"/><circle cx="391.22" cy="114.39" r="1.66"/><circle cx="523.08" cy="169.37" r="1.66"/><circle cx="434.67" cy="135.69" r="1.66"/><circle cx="379.43" cy="91.7" r="2.87"/><polyline class="cls-21" points="538.7 131.05 523.55 131.05 523.55 169.78 504.74 169.78 504.74 160.93 488.14 160.93 488.14 199.68"/><circle cx="488.14" cy="161.09" r="2.21"/><circle cx="440.88" cy="114.46" r="2.21"/><circle cx="513.05" cy="137.46" r="2.21"/><circle cx="391.06" cy="136.82" r="2.21"/><polyline class="cls-23" points="659.12 202.24 659.12 154.05 708.92 154.05 708.92 195 759.83 195 759.83 201.92"/><polyline class="cls-24" points="732.47 194.91 732.47 148.43 798.87 148.43 798.87 100.84"/><polyline class="cls-25" points="867.61 177.97 783.31 177.97 783.31 91.11"/><polyline class="cls-26" points="782.99 153.06 747.86 153.06 747.86 106.44"/><circle class="cls-27" cx="748.18" cy="106.44" r="5.43"/><polyline class="cls-21" points="770.54 215.01 770.54 179.25 717.53 179.25 717.53 131.99 659.41 131.99 659.41 145.4 635.14 145.4"/><polyline class="cls-28" points="172.03 122.41 148.02 122.41 148.02 103.66 175.16 103.66 175.16 64.29 145.41 64.29"/><rect class="cls-29" x="440.13" y="160.28" width="13.56" height="13.56" transform="translate(893.81 334.11) rotate(-180)"/><rect class="cls-30" x="334.71" y="96.92" width="13.56" height="13.56" transform="translate(682.97 207.39) rotate(-180)"/><rect class="cls-29" x="202.03" y="123.26" width="13.56" height="13.56" transform="translate(417.62 260.08) rotate(-180)"/><rect class="cls-29" x="131.69" y="84.94" width="13.56" height="13.56" transform="translate(276.94 183.43) rotate(-180)"/><rect class="cls-30" x="564.97" y="140.44" width="13.56" height="13.56" transform="translate(1143.5 294.43) rotate(-180)"/><rect class="cls-29" x="777.88" y="158.76" width="13.56" height="13.56" transform="translate(1569.32 331.07) rotate(-180)"/><rect class="cls-30" x="35.61" y="183.22" width="13.56" height="13.56" transform="translate(84.78 380) rotate(-180)"/><rect class="cls-29" x="276.37" y="167.48" width="13.56" height="13.56" transform="translate(566.3 348.52) rotate(-180)"/><circle class="cls-2" cx="179.66" cy="172.03" r="1.2"/><line class="cls-16" x1="596.18" y1="184.99" x2="596.18" y2="165.83"/></svg>