<svg id="Réteg_1" data-name="Réteg 1" xmlns="http://www.w3.org/2000/svg" viewBox="0 0 650 150"><defs><style>.cls-1,.cls-12,.cls-13,.cls-14,.cls-15,.cls-16,.cls-17,.cls-18,.cls-19,.cls-20,.cls-21,.cls-22,.cls-23,.cls-24,.cls-25,.cls-26,.cls-3,.cls-4,.cls-5,.cls-6,.cls-7,.cls-8,.cls-9{fill:none;}.cls-1,.cls-3,.cls-4,.cls-5,.cls-6{stroke:#a6a8ab;}.cls-1,.cls-11,.cls-12,.cls-13,.cls-14,.cls-15,.cls-16,.cls-17,.cls-18,.cls-19,.cls-20,.cls-21,.cls-22,.cls-23,.cls-24,.cls-25,.cls-26,.cls-3,.cls-4,.cls-5,.cls-6,.cls-7,.cls-8,.cls-9{stroke-miterlimit:10;}.cls-1,.cls-16,.cls-23{stroke-width:1.02px;}.cls-2{fill:#a6a8ab;}.cls-11,.cls-22,.cls-3,.cls-9{stroke-width:0.88px;}.cls-21,.cls-4{stroke-width:1.32px;}.cls-5{stroke-width:0.82px;}.cls-13,.cls-6{stroke-width:0.66px;}.cls-11,.cls-12,.cls-13,.cls-14,.cls-15,.cls-16,.cls-7,.cls-8,.cls-9{stroke:#231f20;}.cls-7{stroke-width:1.06px;}.cls-8{stroke-width:1.5px;}.cls-10{fill:#231f20;}.cls-11{fill:#fff;}.cls-12{stroke-width:0.76px;}.cls-14{stroke-width:0.44px;}.cls-15,.cls-18{stroke-width:0.44px;}.cls-17,.cls-18,.cls-19,.cls-20,.cls-21,.cls-22,.cls-23,.cls-24,.cls-25,.cls-26{stroke:#000;}.cls-17{stroke-width:0.78px;}.cls-19{stroke-width:0.51px;}.cls-20{stroke-width:0.55px;}.cls-24{stroke-width:1px;}.cls-25{stroke-width:0.68px;}.cls-26{stroke-width:0.45px;}.cls-27{fill:#25a9e0;}.cls-28{fill:red;}</style></defs><title>footer-md</title><polyline class="cls-1" points="383.06 157.71 383.06 117.36 341.05 117.36 341.05 72.53"/><circle class="cls-2" cx="383.06" cy="117.36" r="3.6"/><circle class="cls-2" cx="341.05" cy="72.31" r="3.75"/><circle class="cls-2" cx="341.05" cy="117.36" r="2.86"/><line class="cls-3" x1="334.97" y1="151.7" x2="334.97" y2="94.12"/><circle class="cls-2" cx="334.97" cy="94.12" r="2.5"/><polyline class="cls-4" points="314.85 154.15 314.85 106.75 242.14 106.75 242.14 146.12 130.21 146.12 130.21 128.2 174.28 128.2 174.28 63.57 241.55 63.57"/><circle class="cls-2" cx="242.14" cy="106.75" r="2.79"/><circle class="cls-2" cx="130.21" cy="146.12" r="3.01"/><circle class="cls-2" cx="174.28" cy="63.57" r="4.77"/><circle class="cls-2" cx="242.17" cy="63.61" r="3.16"/><circle class="cls-3" cx="284.59" cy="106.79" r="3.75"/><line class="cls-4" x1="257.41" y1="153.14" x2="257.41" y2="107.05"/><circle class="cls-2" cx="257.41" cy="107.05" r="3.8"/><line class="cls-3" x1="174.42" y1="88.94" x2="152.61" y2="88.94"/><circle class="cls-2" cx="153.27" cy="88.72" r="2.48"/><polyline class="cls-5" points="559.2 125.82 478.63 125.82 478.63 142.96 388.05 142.96 387.8 128.72 423.91 128.72 423.91 98.72"/><circle class="cls-2" cx="478.63" cy="125.82" r="1.85"/><circle class="cls-2" cx="388.04" cy="142.93" r="2.44"/><circle class="cls-2" cx="423.91" cy="98.72" r="2.03"/><circle class="cls-2" cx="559.02" cy="125.85" r="2.56"/><circle class="cls-2" cx="607.08" cy="114.69" r="3.16"/><circle class="cls-2" cx="564.87" cy="85.7" r="3.16"/><circle class="cls-2" cx="423.77" cy="128.55" r="1.78"/><circle class="cls-2" cx="208.27" cy="137.37" r="2.54"/><line class="cls-4" x1="497.97" y1="175.41" x2="497.67" y2="126.64"/><circle class="cls-2" cx="497.67" cy="126.64" r="3.8"/><line class="cls-3" x1="423.84" y1="119.22" x2="407.64" y2="119.06"/><circle class="cls-2" cx="407.64" cy="119.06" r="2.03"/><polyline class="cls-1" points="655.32 122.62 615.14 122.62 615.14 85.5 564.79 85.5"/><polyline class="cls-1" points="607 153.14 607 113.97 652.77 113.97"/><polyline class="cls-6" points="287.38 153.39 287.38 125.85 276.51 125.85 276.51 114.69"/><circle class="cls-2" cx="287.38" cy="125.85" r="1.32"/><circle class="cls-2" cx="276.44" cy="114.94" r="1.43"/><line class="cls-3" x1="242.28" y1="105.91" x2="242.28" y2="63.63"/><circle class="cls-2" cx="206.44" cy="146.12" r="2.29"/><line class="cls-3" x1="206.44" y1="146.12" x2="206.44" y2="47.26"/><circle class="cls-2" cx="206.44" cy="47.26" r="3.08"/><circle class="cls-2" cx="455.89" cy="136.8" r="3.08"/><polyline class="cls-6" points="137.01 108.38 137.01 64.6 118.94 64.6 118.94 48.59"/><circle class="cls-2" cx="118.95" cy="48.59" r="1.84"/><circle class="cls-2" cx="137.01" cy="64.6" r="1.4"/><circle class="cls-2" cx="118.95" cy="64.6" r="1.62"/><polyline class="cls-6" points="456.04 137.39 456.04 106.83 437.97 106.83 437.97 90.82"/><circle class="cls-2" cx="437.97" cy="90.82" r="1.84"/><circle class="cls-2" cx="456.04" cy="106.83" r="1.4"/><circle class="cls-2" cx="437.97" cy="106.83" r="1.62"/><polyline class="cls-3" points="147.98 108.77 115.71 108.77 115.71 155.17"/><circle class="cls-2" cx="147.98" cy="108.77" r="1.87"/><polyline class="cls-6" points="102.23 129.59 89.69 129.59 89.69 117.91 104.16 117.91 104.16 84.79 83.67 84.79 83.67 50.79"/><circle class="cls-2" cx="89.69" cy="129.59" r="0.95"/><circle class="cls-2" cx="104.16" cy="117.91" r="1.21"/><circle class="cls-2" cx="104.16" cy="84.79" r="1.32"/><circle class="cls-2" cx="83.67" cy="84.79" r="1.18"/><circle class="cls-2" cx="83.67" cy="50.79" r="1.58"/><line class="cls-3" x1="217.43" y1="116.01" x2="217.22" y2="153.11"/><polyline class="cls-3" points="-4.82 75.97 57.09 75.97 57.23 53.96"/><circle class="cls-2" cx="57.09" cy="75.97" r="2.2"/><polyline class="cls-3" points="70.58 154.66 70.58 116.01 29.15 116.01 20.63 116.01 20.63 153.65"/><line class="cls-3" x1="29.89" y1="83.1" x2="29.89" y2="116.01"/><circle class="cls-2" cx="70.58" cy="116.01" r="3.16"/><circle class="cls-2" cx="29.81" cy="115.79" r="3.01"/><circle class="cls-2" cx="30.04" cy="82.66" r="3.01"/><line class="cls-7" x1="305.5" y1="152.12" x2="305.5" y2="100.75"/><polyline class="cls-8" points="185.44 154.66 185.44 80.46 147.98 80.46 147.98 46.97"/><circle class="cls-9" cx="185.44" cy="114.39" r="5.73"/><circle class="cls-10" cx="185.44" cy="80.46" r="3.75"/><circle class="cls-10" cx="147.98" cy="46.97" r="2.64"/><circle class="cls-11" cx="361.7" cy="139.51" r="5"/><circle class="cls-11" cx="323.81" cy="108.22" r="5"/><polyline class="cls-12" points="361.7 154.66 361.7 139.51 323.81 139.51 323.81 108.22"/><circle class="cls-10" cx="361.7" cy="139.51" r="3.47"/><circle class="cls-10" cx="323.81" cy="108.22" r="3.47"/><circle class="cls-10" cx="323.81" cy="139.51" r="1.87"/><circle cx="554.96" cy="114.43" r="1.76"/><circle class="cls-10" cx="394.79" cy="110.88" r="1.76"/><circle class="cls-9" cx="323.81" cy="139.51" r="6.39"/><polyline class="cls-7" points="231.49 155.17 231.49 74.73 210.78 74.73 210.78 80.46 185.44 80.46"/><circle class="cls-10" cx="231.27" cy="132.46" r="2.48"/><circle class="cls-10" cx="231.05" cy="94.56" r="2.64"/><circle class="cls-9" cx="231.05" cy="94.56" r="6"/><line class="cls-8" x1="244.93" y1="154.15" x2="244.93" y2="132.35"/><polyline class="cls-7" points="296.05 153.28 296.05 132.46 231.27 132.46"/><circle class="cls-10" cx="296.04" cy="132.69" r="2.26"/><circle class="cls-10" cx="244.88" cy="133.05" r="3.75"/><circle class="cls-9" cx="244.88" cy="133.05" r="5.62"/><circle class="cls-9" cx="296.05" cy="132.46" r="4.9"/><polyline class="cls-13" points="273.57 148.32 262.33 148.32 262.33 137.75"/><circle class="cls-10" cx="273.57" cy="148.32" r="1.21"/><circle class="cls-10" cx="262.33" cy="138.08" r="1.38"/><circle class="cls-10" cx="262.33" cy="148.32" r="1.25"/><polyline class="cls-7" points="230.83 95 168.91 95 168.91 154.66"/><line class="cls-7" x1="168.03" y1="121.22" x2="147.32" y2="121.22"/><circle class="cls-10" cx="168.92" cy="95" r="2.2"/><circle class="cls-10" cx="169" cy="121.14" r="1.98"/><circle class="cls-10" cx="147.32" cy="121.22" r="2.09"/><polyline class="cls-13" points="118.02 154.66 118.02 134.44 141.15 134.44 141.15 95.44 125.29 95.44 125.29 82"/><circle class="cls-10" cx="118.13" cy="134.55" r="2.54"/><circle class="cls-10" cx="141.04" cy="134.33" r="2.3"/><circle class="cls-9" cx="118.13" cy="134.55" r="5.53"/><circle class="cls-10" cx="141.15" cy="95.44" r="1.76"/><circle class="cls-10" cx="125.29" cy="82" r="1.87"/><circle class="cls-10" cx="113.61" cy="77.16" r="1.49"/><circle class="cls-10" cx="94.72" cy="107" r="1.45"/><polyline class="cls-13" points="100.17 151.19 100.17 146.56 108.11 146.56 108.11 137.09 94.44 137.09 94.44 106.9 113.61 106.9 113.61 77.16"/><circle class="cls-10" cx="113.47" cy="106.97" r="1.4"/><circle class="cls-10" cx="108.1" cy="146.56" r="1.1"/><circle class="cls-10" cx="108.1" cy="137.09" r="1.16"/><circle class="cls-10" cx="94.44" cy="137.09" r="1.45"/><circle class="cls-14" cx="94.72" cy="107" r="3.81"/><polyline class="cls-9" points="79.24 150.97 79.24 140.61 42.67 140.61 42.67 109.98"/><polyline class="cls-9" points="42.67 140.61 34.3 140.61 34.3 154.66"/><circle class="cls-10" cx="79.24" cy="140.61" r="3.75"/><circle class="cls-10" cx="42.67" cy="140.61" r="2.2"/><circle class="cls-10" cx="42.67" cy="109.98" r="3.64"/><circle class="cls-9" cx="42.67" cy="140.61" r="6.11"/><line class="cls-15" x1="58.5" y1="153.14" x2="58.53" y2="144.91"/><circle class="cls-10" cx="58.53" cy="144.91" r="1.32"/><circle class="cls-9" cx="69.06" cy="98.09" r="6.39"/><circle class="cls-9" cx="69.03" cy="11.35" r="5.29"/><polyline class="cls-12" points="15.79 153.65 15.79 98.53 69.11 98.53 69.11 10.84"/><circle class="cls-10" cx="69.11" cy="98.53" r="2.59"/><circle class="cls-10" cx="15.13" cy="98.75" r="4.63"/><circle class="cls-10" cx="69.03" cy="11.35" r="3.45"/><polyline class="cls-16" points="429.51 96.68 442.22 96.68 442.22 139.91 434.25 139.91 423.91 139.91 423.91 155.17"/><circle class="cls-10" cx="434.31" cy="125.11" r="2.03"/><circle class="cls-10" cx="448.95" cy="129.37" r="2.59"/><circle cx="465.23" cy="108.52" r="2.59"/><circle cx="530.83" cy="97.84" r="2.59"/><circle cx="530.83" cy="134.97" r="2.59"/><circle cx="573.18" cy="134.57" r="2.29"/><circle class="cls-10" cx="415.39" cy="135.62" r="3.45"/><circle class="cls-10" cx="430.27" cy="96.94" r="2.8"/><circle cx="308.97" cy="111.94" r="1.78"/><circle cx="542.92" cy="110.92" r="2.54"/><circle cx="595.81" cy="73.8" r="2.03"/><circle cx="431.54" cy="105.33" r="2.03"/><circle cx="583.1" cy="65.15" r="2.03"/><circle cx="637.01" cy="128.22" r="2.03"/><circle cx="555.13" cy="77.36" r="2.03"/><circle cx="394.92" cy="135.84" r="2.54"/><circle cx="595.65" cy="110.68" r="3.45"/><circle cx="623.12" cy="96.95" r="3.45"/><circle class="cls-10" cx="20.41" cy="59.97" r="2.42"/><circle class="cls-9" cx="41.57" cy="59.97" r="6.17"/><circle class="cls-9" cx="41.57" cy="32.87" r="5.88"/><circle class="cls-10" cx="103.26" cy="32.87" r="2.35"/><circle cx="96.14" cy="89.83" r="2.35"/><circle cx="133.51" cy="23.45" r="2.03"/><circle cx="75.03" cy="43.79" r="2.03"/><polyline class="cls-7" points="163.19 70.99 103.26 70.99 103.26 32.87 41.57 32.87 41.57 59.97 20.41 59.97 20.41 69.44 15.35 69.44 15.35 97.87"/><circle class="cls-10" cx="163.19" cy="70.99" r="3.91"/><circle class="cls-10" cx="103.26" cy="70.99" r="2.48"/><circle class="cls-10" cx="41.57" cy="32.87" r="2.64"/><circle class="cls-10" cx="41.57" cy="59.97" r="2.79"/><circle class="cls-9" cx="10.83" cy="20.14" r="6.39"/><circle class="cls-10" cx="10.83" cy="20.14" r="2.57"/><circle class="cls-10" cx="4.04" cy="112.92" r="1.54"/><circle class="cls-10" cx="10.72" cy="60.63" r="1.76"/><polyline class="cls-13" points="4.33 112.19 4.33 99.41 -12.86 99.41 -12.86 60.63 10.72 60.63 10.72 19.89"/><line class="cls-13" x1="10.06" y1="20.31" x2="-32.24" y2="20.31"/><circle class="cls-10" cx="4.33" cy="99.41" r="2.5"/><line class="cls-9" x1="133.22" y1="70.55" x2="133.22" y2="23.45"/><polyline class="cls-9" points="484.43 129.67 448.95 129.67 448.95 111.75 415.46 111.75 415.46 134.66"/><polyline class="cls-17" points="371.19 172.63 371.02 135.84 394.92 135.84 394.92 110.92"/><polyline class="cls-18" points="367.87 102.29 310.59 102.29 310.59 83.79 270.93 83.79 270.93 101.41 261.23 101.41 261.42 65.66"/><polyline class="cls-19" points="309.37 112.25 294.27 112.25 294.27 90.92 280.49 90.83 280.49 66.93"/><ellipse class="cls-10" cx="387.84" cy="96.81" ry="0.44"/><circle cx="388.28" cy="96.81" r="1.32"/><circle class="cls-20" cx="388.28" cy="96.81" r="2.2"/><circle cx="280.53" cy="67.42" r="1.32"/><circle cx="270.87" cy="83.69" r="1.32"/><circle cx="375.87" cy="127.47" r="1.32"/><circle cx="305.47" cy="100.65" r="1.32"/><circle cx="261.49" cy="65.62" r="2.29"/><polyline class="cls-19" points="388.31 96.95 376.25 96.95 376.25 127.8 361.27 127.8 361.27 120.75 348.05 120.75 348.05 151.61"/><circle cx="348.05" cy="120.88" r="1.76"/><circle cx="310.41" cy="83.75" r="1.76"/><circle cx="367.88" cy="102.06" r="1.76"/><circle cx="270.74" cy="101.55" r="1.76"/><polyline class="cls-21" points="484.21 153.65 484.21 115.27 523.87 115.27 523.87 147.88 564.4 147.88 564.4 153.39"/><polyline class="cls-19" points="651.76 89.56 637.01 89.56 637.01 128.22"/><polyline class="cls-22" points="542.61 147.81 542.61 110.8 595.49 110.8 595.49 72.9"/><polyline class="cls-23" points="650.23 134.32 583.1 134.32 583.1 65.15"/><line class="cls-23" x1="622.77" y1="153.14" x2="622.77" y2="96.68"/><polyline class="cls-24" points="582.85 114.48 554.87 114.48 554.87 77.36"/><circle class="cls-25" cx="555.13" cy="77.36" r="4.32"/><circle class="cls-25" cx="623.28" cy="96.68" r="5.34"/><polyline class="cls-19" points="572.93 163.82 572.93 135.34 530.72 135.34 530.72 97.7 484.43 97.7 484.43 108.38 465.11 108.38"/><polyline class="cls-26" points="96.33 90.07 77.21 90.07 77.21 75.14 98.82 75.14 98.82 43.79 75.13 43.79"/><rect class="cls-27" x="309.82" y="120.23" width="10.8" height="10.8" transform="translate(630.43 251.26) rotate(-180)"/><rect class="cls-28" x="225.87" y="69.77" width="10.8" height="10.8" transform="translate(462.54 150.35) rotate(-180)"/><rect class="cls-27" x="120.22" y="90.75" width="10.8" height="10.8" transform="translate(251.23 192.3) rotate(-180)"/><rect class="cls-27" x="64.2" y="60.24" width="10.8" height="10.8" transform="translate(139.21 131.27) rotate(-180)"/><rect class="cls-28" x="409.23" y="104.43" width="10.8" height="10.8" transform="translate(829.26 219.66) rotate(-180)"/><rect class="cls-27" x="578.77" y="119.02" width="10.8" height="10.8" transform="translate(1168.35 248.83) rotate(-180)"/><rect class="cls-27" x="179.42" y="125.97" width="10.8" height="10.8" transform="translate(369.63 262.73) rotate(-180)"/><circle class="cls-2" cx="102.4" cy="129.59" r="0.95"/><line class="cls-16" x1="434.08" y1="139.91" x2="434.08" y2="124.66"/></svg>