<svg id="Réteg_1" data-name="Réteg 1" xmlns="http://www.w3.org/2000/svg" viewBox="0 0 400 100"><defs><style>.cls-1,.cls-12,.cls-13,.cls-14,.cls-15,.cls-16,.cls-17,.cls-18,.cls-19,.cls-20,.cls-21,.cls-22,.cls-23,.cls-24,.cls-25,.cls-26,.cls-27,.cls-28,.cls-3,.cls-4,.cls-5,.cls-6,.cls-7,.cls-8,.cls-9{fill:none;}.cls-1,.cls-3,.cls-4,.cls-5,.cls-6{stroke:#a6a8ab;}.cls-1,.cls-11,.cls-12,.cls-13,.cls-14,.cls-15,.cls-16,.cls-17,.cls-18,.cls-19,.cls-20,.cls-21,.cls-22,.cls-23,.cls-24,.cls-25,.cls-26,.cls-27,.cls-28,.cls-3,.cls-4,.cls-5,.cls-6,.cls-7,.cls-8,.cls-9{stroke-miterlimit:10;}.cls-1,.cls-16,.cls-25{stroke-width:0.65px;}.cls-2{fill:#a6a8ab;}.cls-11,.cls-24,.cls-3,.cls-9{stroke-width:0.56px;}.cls-23,.cls-4{stroke-width:0.84px;}.cls-5{stroke-width:0.53px;}.cls-13,.cls-6{stroke-width:0.42px;}.cls-11,.cls-12,.cls-13,.cls-14,.cls-15,.cls-16,.cls-17,.cls-18,.cls-7,.cls-8,.cls-9{stroke:#231f20;}.cls-7{stroke-width:0.67px;}.cls-8{stroke-width:0.96px;}.cls-10{fill:#231f20;}.cls-11{fill:#fff;}.cls-12{stroke-width:0.49px;}.cls-14{stroke-width:0.28px;}.cls-15,.cls-20{stroke-width:0.28px;}.cls-17{stroke-width:0.58px;}.cls-18{stroke-width:0.48px;}.cls-19,.cls-20,.cls-21,.cls-22,.cls-23,.cls-24,.cls-25,.cls-26,.cls-27,.cls-28{stroke:#000;}.cls-19{stroke-width:0.49px;}.cls-21{stroke-width:0.32px;}.cls-22{stroke-width:0.35px;}.cls-26{stroke-width:0.64px;}.cls-27{stroke-width:0.43px;}.cls-28{stroke-width:0.29px;}.cls-29{fill:#25a9e0;}.cls-30{fill:red;}</style></defs><title>footer-xs</title><polyline class="cls-1" points="130.88 103.62 130.88 77.89 157.67 77.89 157.67 49.3"/><circle class="cls-2" cx="130.88" cy="77.89" r="2.3"/><circle class="cls-2" cx="157.67" cy="49.16" r="2.39"/><circle class="cls-2" cx="157.67" cy="77.89" r="1.83"/><line class="cls-3" x1="161.54" y1="99.79" x2="161.54" y2="63.07"/><circle class="cls-2" cx="161.54" cy="63.07" r="1.59"/><polyline class="cls-4" points="174.38 101.35 174.38 71.13 220.75 71.13 220.75 96.23 292.13 96.23 292.13 84.8 264.02 84.8 264.02 43.59 221.12 43.59"/><circle class="cls-2" cx="220.75" cy="71.13" r="1.78"/><circle class="cls-2" cx="292.13" cy="96.23" r="1.92"/><circle class="cls-2" cx="264.02" cy="43.58" r="3.04"/><circle class="cls-2" cx="220.72" cy="43.61" r="2.01"/><circle class="cls-3" cx="193.67" cy="71.15" r="2.39"/><line class="cls-4" x1="211" y1="100.71" x2="211" y2="71.31"/><circle class="cls-2" cx="211" cy="71.31" r="2.42"/><line class="cls-3" x1="263.93" y1="59.77" x2="277.84" y2="59.77"/><circle class="cls-2" cx="277.42" cy="59.63" r="1.58"/><polyline class="cls-5" points="18.55 83.28 69.92 83.28 69.92 94.22 127.69 94.22 127.85 85.14 104.82 85.14 104.82 66"/><circle class="cls-2" cx="69.92" cy="83.28" r="1.18"/><circle class="cls-2" cx="127.7" cy="94.2" r="1.55"/><circle class="cls-2" cx="104.82" cy="66" r="1.3"/><circle class="cls-2" cx="18.66" cy="83.3" r="1.63"/><circle class="cls-2" cx="14.93" cy="57.7" r="2.01"/><circle class="cls-2" cx="104.91" cy="85.03" r="1.14"/><circle class="cls-2" cx="242.34" cy="90.65" r="1.62"/><line class="cls-4" x1="57.59" y1="114.91" x2="57.78" y2="83.81"/><circle class="cls-2" cx="57.78" cy="83.81" r="2.42"/><line class="cls-3" x1="104.87" y1="79.08" x2="115.2" y2="78.97"/><circle class="cls-2" cx="115.2" cy="78.97" r="1.3"/><polyline class="cls-1" points="-42.76 81.25 -17.13 81.25 -17.13 57.57 14.98 57.57"/><polyline class="cls-6" points="191.89 100.87 191.89 83.3 198.83 83.3 198.83 76.18"/><circle class="cls-2" cx="191.89" cy="83.3" r="0.84"/><circle class="cls-2" cx="198.87" cy="76.35" r="0.91"/><line class="cls-3" x1="220.65" y1="70.59" x2="220.65" y2="43.62"/><circle class="cls-2" cx="243.51" cy="96.23" r="1.46"/><line class="cls-3" x1="243.51" y1="96.23" x2="243.51" y2="33.19"/><circle class="cls-2" cx="243.51" cy="33.19" r="1.97"/><circle class="cls-2" cx="84.43" cy="90.29" r="1.97"/><polyline class="cls-6" points="287.79 72.16 287.79 44.24 299.31 44.24 299.31 34.03"/><circle class="cls-2" cx="299.31" cy="34.03" r="1.17"/><circle class="cls-2" cx="287.79" cy="44.24" r="0.89"/><circle class="cls-2" cx="299.31" cy="44.24" r="1.03"/><polyline class="cls-6" points="84.33 90.66 84.33 71.18 95.85 71.18 95.85 60.97"/><circle class="cls-2" cx="95.85" cy="60.97" r="1.17"/><circle class="cls-2" cx="84.33" cy="71.18" r="0.89"/><circle class="cls-2" cx="95.85" cy="71.18" r="1.03"/><polyline class="cls-3" points="280.79 72.41 301.38 72.41 301.37 102"/><circle class="cls-2" cx="280.79" cy="72.41" r="1.19"/><polyline class="cls-6" points="309.97 85.69 317.97 85.69 317.97 78.24 308.74 78.24 308.74 57.12 321.81 57.12 321.81 35.43"/><circle class="cls-2" cx="317.97" cy="85.69" r="0.61"/><circle class="cls-2" cx="308.74" cy="78.24" r="0.77"/><circle class="cls-2" cx="308.74" cy="57.12" r="0.84"/><circle class="cls-2" cx="321.81" cy="57.12" r="0.75"/><circle class="cls-2" cx="321.81" cy="35.43" r="1.01"/><line class="cls-3" x1="236.5" y1="77.03" x2="236.64" y2="100.69"/><polyline class="cls-3" points="378.24 51.49 338.76 51.49 338.67 37.46"/><circle class="cls-2" cx="338.76" cy="51.49" r="1.41"/><circle class="cls-2" cx="379.54" cy="51.49" r="2.15"/><line class="cls-3" x1="391.42" y1="102" x2="391.42" y2="62.04"/><polyline class="cls-3" points="330.16 101.68 330.16 77.03 356.57 77.03 362.01 77.03 362.01 101.03"/><line class="cls-3" x1="356.11" y1="56.04" x2="356.11" y2="77.03"/><circle class="cls-2" cx="330.16" cy="77.03" r="2.01"/><circle class="cls-2" cx="356.15" cy="76.89" r="1.92"/><circle class="cls-2" cx="356.01" cy="55.76" r="1.92"/><line class="cls-7" x1="180.34" y1="100.06" x2="180.34" y2="67.3"/><polyline class="cls-8" points="256.9 101.68 256.9 54.36 280.79 54.36 280.79 33"/><circle class="cls-9" cx="256.9" cy="76" r="3.65"/><circle class="cls-10" cx="256.9" cy="54.36" r="2.39"/><circle class="cls-10" cx="280.79" cy="33" r="1.69"/><circle class="cls-11" cx="144.49" cy="92.01" r="3.19"/><circle class="cls-11" cx="168.66" cy="72.06" r="3.19"/><polyline class="cls-12" points="144.49 101.68 144.49 92.02 168.66 92.02 168.66 72.06"/><circle class="cls-10" cx="144.49" cy="92.01" r="2.21"/><circle class="cls-10" cx="168.66" cy="72.06" r="2.21"/><circle class="cls-10" cx="168.66" cy="92.01" r="1.19"/><circle cx="21.24" cy="76.02" r="1.12"/><circle class="cls-10" cx="123.4" cy="73.76" r="1.12"/><circle class="cls-9" cx="168.66" cy="92.01" r="4.07"/><polyline class="cls-7" points="227.54 102 227.54 50.7 240.75 50.7 240.75 54.36 256.9 54.36"/><circle class="cls-10" cx="227.68" cy="87.52" r="1.58"/><circle class="cls-10" cx="227.82" cy="63.35" r="1.69"/><circle class="cls-9" cx="227.82" cy="63.35" r="3.83"/><line class="cls-8" x1="218.97" y1="101.35" x2="218.97" y2="87.45"/><polyline class="cls-7" points="186.37 100.8 186.37 87.52 227.68 87.52"/><circle class="cls-10" cx="186.37" cy="87.67" r="1.44"/><circle class="cls-10" cx="219" cy="87.9" r="2.39"/><circle class="cls-9" cx="219" cy="87.9" r="3.58"/><circle class="cls-9" cx="186.37" cy="87.52" r="3.13"/><polyline class="cls-13" points="200.7 97.64 207.87 97.64 207.87 90.89"/><circle class="cls-10" cx="200.7" cy="97.64" r="0.77"/><circle class="cls-10" cx="207.87" cy="91.1" r="0.88"/><circle class="cls-10" cx="207.87" cy="97.64" r="0.8"/><polyline class="cls-7" points="227.96 63.63 267.44 63.63 267.44 101.68"/><line class="cls-7" x1="268" y1="80.35" x2="281.21" y2="80.35"/><circle class="cls-10" cx="267.44" cy="63.63" r="1.41"/><circle class="cls-10" cx="267.39" cy="80.3" r="1.26"/><circle class="cls-10" cx="281.21" cy="80.35" r="1.33"/><polyline class="cls-13" points="299.9 101.68 299.9 88.78 285.15 88.78 285.15 63.91 295.26 63.91 295.26 55.34"/><circle class="cls-10" cx="299.83" cy="88.86" r="1.62"/><circle class="cls-10" cx="285.22" cy="88.71" r="1.46"/><circle class="cls-9" cx="299.83" cy="88.86" r="3.52"/><circle class="cls-10" cx="285.15" cy="63.91" r="1.12"/><circle class="cls-10" cx="295.26" cy="55.34" r="1.19"/><circle class="cls-10" cx="302.71" cy="52.25" r="0.95"/><circle class="cls-10" cx="314.76" cy="71.28" r="0.93"/><polyline class="cls-13" points="311.28 99.46 311.28 96.51 306.22 96.51 306.22 90.47 314.94 90.47 314.94 71.22 302.71 71.22 302.71 52.25"/><circle class="cls-10" cx="302.81" cy="71.27" r="0.89"/><circle class="cls-10" cx="306.22" cy="96.51" r="0.7"/><circle class="cls-10" cx="306.22" cy="90.47" r="0.74"/><circle class="cls-10" cx="314.94" cy="90.47" r="0.93"/><circle class="cls-14" cx="314.76" cy="71.28" r="2.43"/><polyline class="cls-9" points="324.63 99.32 324.63 92.72 347.96 92.72 347.96 73.19"/><polyline class="cls-9" points="347.96 92.72 353.3 92.72 353.3 101.68"/><circle class="cls-10" cx="324.63" cy="92.72" r="2.39"/><circle class="cls-10" cx="347.96" cy="92.72" r="1.41"/><circle class="cls-10" cx="347.96" cy="73.19" r="2.32"/><circle class="cls-9" cx="347.96" cy="92.72" r="3.9"/><line class="cls-15" x1="337.86" y1="100.71" x2="337.84" y2="95.46"/><circle class="cls-10" cx="337.84" cy="95.46" r="0.84"/><circle class="cls-9" cx="331.12" cy="65.6" r="4.07"/><circle class="cls-9" cx="331.14" cy="10.28" r="3.37"/><polyline class="cls-12" points="365.1 101.03 365.1 65.88 331.1 65.88 331.1 9.96"/><circle class="cls-10" cx="331.1" cy="65.88" r="1.65"/><circle class="cls-10" cx="365.52" cy="66.02" r="2.95"/><circle class="cls-10" cx="331.14" cy="10.28" r="2.2"/><polyline class="cls-16" points="101.25 64.7 93.14 64.7 93.14 92.27 98.23 92.27 104.82 92.27 104.82 102"/><circle class="cls-10" cx="98.19" cy="82.83" r="1.3"/><circle class="cls-10" cx="88.85" cy="85.55" r="1.65"/><circle cx="78.47" cy="72.25" r="1.65"/><circle cx="36.63" cy="65.44" r="1.65"/><circle cx="36.63" cy="89.12" r="1.65"/><circle cx="9.63" cy="88.87" r="1.46"/><circle class="cls-10" cx="110.26" cy="89.53" r="2.2"/><circle class="cls-10" cx="100.77" cy="64.87" r="1.78"/><circle cx="178.12" cy="74.43" r="1.14"/><circle cx="28.92" cy="73.78" r="1.62"/><circle cx="99.96" cy="70.22" r="1.3"/><circle cx="3.3" cy="44.59" r="1.3"/><circle cx="21.14" cy="52.38" r="1.3"/><circle cx="123.31" cy="89.68" r="1.62"/><circle class="cls-10" cx="362.15" cy="41.29" r="1.55"/><circle class="cls-9" cx="348.66" cy="41.29" r="3.93"/><circle class="cls-9" cx="348.66" cy="24.01" r="3.75"/><circle class="cls-10" cx="309.32" cy="24.01" r="1.5"/><circle cx="313.86" cy="60.33" r="1.5"/><circle cx="290.02" cy="18" r="1.3"/><circle cx="327.32" cy="30.97" r="1.3"/><polyline class="cls-7" points="271.1 48.31 309.32 48.31 309.32 24.01 348.66 24.01 348.66 41.29 362.15 41.29 362.15 47.33 365.38 47.33 365.38 65.46"/><circle class="cls-10" cx="271.1" cy="48.32" r="2.49"/><circle class="cls-10" cx="309.32" cy="48.32" r="1.58"/><circle class="cls-10" cx="348.66" cy="24.01" r="1.69"/><circle class="cls-10" cx="348.66" cy="41.29" r="1.78"/><polyline class="cls-17" points="397.31 50.07 397.31 32.96 384.3 32.96 384.3 12.47"/><circle class="cls-10" cx="384.29" cy="12.84" r="1.33"/><circle class="cls-10" cx="384.29" cy="32.96" r="1.39"/><circle class="cls-10" cx="397.31" cy="50.07" r="1.39"/><circle class="cls-18" cx="397.31" cy="50.07" r="2.95"/><polyline class="cls-8" points="379.15 100.7 379.15 73.19 403.87 73.19"/><circle class="cls-10" cx="379.15" cy="73.19" r="2.67"/><circle class="cls-9" cx="368.26" cy="15.89" r="4.07"/><circle class="cls-9" cx="383.37" cy="41.71" r="3.56"/><circle class="cls-10" cx="383.37" cy="66.44" r="1.69"/><circle class="cls-10" cx="368.26" cy="15.89" r="1.64"/><circle class="cls-10" cx="372.59" cy="75.06" r="0.98"/><circle class="cls-10" cx="368.33" cy="41.71" r="1.12"/><polyline class="cls-13" points="372.41 74.59 372.41 66.44 383.37 66.44 383.37 41.71 368.33 41.71 368.33 15.73"/><line class="cls-13" x1="368.75" y1="16" x2="395.73" y2="16"/><circle class="cls-10" cx="383.37" cy="41.71" r="1.41"/><circle class="cls-10" cx="395.73" cy="16" r="1.9"/><circle class="cls-10" cx="372.41" cy="66.44" r="1.59"/><line class="cls-9" x1="290.21" y1="48.03" x2="290.21" y2="18"/><polyline class="cls-9" points="66.22 85.74 88.85 85.74 88.85 74.31 110.21 74.31 110.21 88.92"/><polyline class="cls-19" points="138.44 113.14 138.55 89.68 123.31 89.68 123.31 73.78"/><polyline class="cls-20" points="140.56 68.28 177.09 68.28 177.09 56.48 202.39 56.48 202.39 67.72 208.57 67.72 208.45 44.92"/><polyline class="cls-21" points="177.87 74.63 187.5 74.63 187.5 61.03 196.29 60.97 196.29 45.73"/><circle cx="127.55" cy="64.78" r="0.84"/><circle class="cls-22" cx="127.55" cy="64.78" r="1.41"/><circle cx="196.26" cy="46.04" r="0.84"/><circle cx="202.42" cy="56.42" r="0.84"/><circle cx="135.46" cy="84.34" r="0.84"/><circle cx="180.36" cy="67.24" r="0.84"/><circle cx="208.41" cy="44.9" r="1.46"/><polyline class="cls-21" points="127.53 64.88 135.22 64.88 135.22 84.55 144.77 84.55 144.77 80.05 153.2 80.05 153.2 99.73"/><circle cx="153.2" cy="80.13" r="1.12"/><circle cx="177.2" cy="56.45" r="1.12"/><circle cx="140.55" cy="68.13" r="1.12"/><circle cx="202.5" cy="67.81" r="1.12"/><polyline class="cls-23" points="66.37 101.03 66.37 76.56 41.08 76.56 41.08 97.35 15.22 97.35 15.22 100.87"/><polyline class="cls-24" points="29.12 97.31 29.12 73.7 -4.6 73.7 -4.6 49.54"/><polyline class="cls-25" points="-39.51 88.7 3.3 88.7 3.3 44.59"/><polyline class="cls-26" points="3.46 76.06 21.3 76.06 21.3 52.38"/><circle class="cls-27" cx="21.14" cy="52.38" r="2.76"/><polyline class="cls-21" points="9.79 107.52 9.79 89.35 36.71 89.35 36.71 65.35 66.22 65.35 66.22 72.16 78.55 72.16"/><polyline class="cls-28" points="313.74 60.49 325.93 60.49 325.93 50.97 312.14 50.97 312.14 30.97 327.25 30.97"/><rect class="cls-29" x="170.7" y="79.72" width="6.89" height="6.89"/><rect class="cls-30" x="224.24" y="47.54" width="6.89" height="6.89"/><rect class="cls-29" x="291.61" y="60.92" width="6.89" height="6.89"/><rect class="cls-29" x="327.34" y="41.46" width="6.89" height="6.89"/><rect class="cls-30" x="107.3" y="69.64" width="6.89" height="6.89"/><rect class="cls-29" x="-0.83" y="78.95" width="6.89" height="6.89"/><rect class="cls-30" x="376.13" y="91.37" width="6.89" height="6.89"/><rect class="cls-29" x="253.86" y="83.38" width="6.89" height="6.89"/><circle class="cls-2" cx="309.86" cy="85.69" r="0.61"/><line class="cls-16" x1="98.33" y1="92.27" x2="98.33" y2="82.54"/></svg>