<svg id="Réteg_1" data-name="Réteg 1" xmlns="http://www.w3.org/2000/svg" viewBox="0 0 200 200"><defs><style>.cls-1{fill:#fff;}</style></defs><title>harom</title><path class="cls-1" d="M29.71,117.58h51v2.8q.8,6.8,4.8,10.5a14.42,14.42,0,0,0,10.2,3.7,12.9,12.9,0,0,0,8.8-3.15,12.5,12.5,0,0,0,4.2-8.27,12.08,12.08,0,0,0-2.5-8.67,14.8,14.8,0,0,0-8.5-5.12,19.23,19.23,0,0,0-4.6-.59h-3.8V79l2.6.2q7.8,0,10.6-4.8a9.2,9.2,0,0,0,1.6-5.2,8.41,8.41,0,0,0-2.86-6.3,9.25,9.25,0,0,0-6.53-2.7,10.68,10.68,0,0,0-3.27.6q-5.1,1.8-7.14,7.6v2.2H35.91a37.22,37.22,0,0,1,.9-8.2,54,54,0,0,1,2.9-8.8A45,45,0,0,1,56.21,34q11.1-7.4,28.7-9.6a88.93,88.93,0,0,1,10.2-.6,45.33,45.33,0,0,1,5.2.3q2.6.3,5.4.5a88.65,88.65,0,0,1,15.5,3.1,60.91,60.91,0,0,1,12.5,5.3,41.53,41.53,0,0,1,15.4,14.3,33.54,33.54,0,0,1,5.4,17.9q0,13.2-9.6,21.4l-1.4,1.2-2,1.4-2.2,1.4-2,1.2a33.64,33.64,0,0,1,14,8.6q9.4,9.8,9.4,25.4a51.86,51.86,0,0,1-1,9.2q-3.2,15-16.2,25.3t-34.8,13.3q-2.8.4-5.2.6t-5.8.2a69.26,69.26,0,0,1-12.8-1.2q-27-4.2-41.2-17.9A44.52,44.52,0,0,1,29.51,122,37.44,37.44,0,0,1,29.71,117.58Z"/></svg>