<svg id="Réteg_1" data-name="Réteg 1" xmlns="http://www.w3.org/2000/svg" viewBox="0 0 1920 400"><defs><style>.cls-1,.cls-10,.cls-11,.cls-12,.cls-15,.cls-16,.cls-17,.cls-18,.cls-19,.cls-20,.cls-21,.cls-22,.cls-23,.cls-24,.cls-25,.cls-26,.cls-27,.cls-28,.cls-29,.cls-3,.cls-30,.cls-31,.cls-32,.cls-33,.cls-36,.cls-4,.cls-5,.cls-6,.cls-7,.cls-8,.cls-9{fill:none;}.cls-1,.cls-10,.cls-3,.cls-4,.cls-5,.cls-6,.cls-7,.cls-9{stroke:#a6a8ab;}.cls-1,.cls-10,.cls-11,.cls-12,.cls-14,.cls-15,.cls-16,.cls-17,.cls-18,.cls-19,.cls-20,.cls-21,.cls-22,.cls-23,.cls-24,.cls-25,.cls-26,.cls-27,.cls-28,.cls-29,.cls-3,.cls-30,.cls-31,.cls-32,.cls-33,.cls-36,.cls-37,.cls-4,.cls-5,.cls-6,.cls-7,.cls-8,.cls-9{stroke-miterlimit:10;}.cls-1{stroke-width:1.62px;}.cls-2{fill:#a6a8ab;}.cls-17,.cls-3,.cls-30{stroke-width:1.95px;}.cls-15,.cls-36,.cls-37,.cls-4{stroke-width:1.69px;}.cls-28,.cls-5{stroke-width:2.93px;}.cls-6{stroke-width:1.82px;}.cls-26,.cls-7{stroke-width:1.13px;}.cls-24,.cls-25,.cls-26,.cls-27,.cls-28,.cls-29,.cls-30,.cls-31,.cls-32,.cls-33,.cls-36,.cls-8{stroke:#000;}.cls-21,.cls-8,.cls-9{stroke-width:2.25px;}.cls-10,.cls-18{stroke-width:1.46px;}.cls-11,.cls-12,.cls-14,.cls-15,.cls-16,.cls-17,.cls-18,.cls-19,.cls-20,.cls-21,.cls-22,.cls-23,.cls-37{stroke:#231f20;}.cls-11{stroke-width:2.34px;}.cls-12{stroke-width:3.32px;}.cls-13{fill:#231f20;}.cls-14{fill:#fff;stroke-width:1.39px;}.cls-16{stroke-width:0.93px;}.cls-19{stroke-width:0.97px;}.cls-20,.cls-25{stroke-width:0.98px;}.cls-22{stroke-width:2.01px;}.cls-23{stroke-width:1.68px;}.cls-24{stroke-width:1.72px;}.cls-27{stroke-width:1.22px;}.cls-29{stroke-width:2.31px;}.cls-31{stroke-width:2.21px;}.cls-32{stroke-width:1.5px;}.cls-33{stroke-width:1.01px;}.cls-34{fill:#25a9e0;}.cls-35{fill:red;}</style></defs><title>header-xxl</title><polyline class="cls-1" points="1002.54 -48.74 1002.54 15.54 1069.47 15.54 1069.47 101.57"/><circle class="cls-2" cx="1002.54" cy="15.54" r="5.73"/><circle class="cls-2" cx="1069.47" cy="100.84" r="5.97"/><circle class="cls-2" cx="1069.47" cy="15.54" r="4.56"/><line class="cls-3" x1="1109.51" y1="-12.27" x2="1109.51" y2="134.3"/><circle class="cls-2" cx="1109.51" cy="134.3" r="5.54"/><polyline class="cls-4" points="1280.96 19.07 1563.31 19.07 1563.31 58.78 1465.64 58.78 1465.64 202.02"/><polyline class="cls-4" points="1154.11 -9.45 1154.11 106.31 1315.25 106.31"/><circle class="cls-2" cx="1315.25" cy="106.31" r="6.19"/><circle class="cls-2" cx="1563.31" cy="19.06" r="6.67"/><circle class="cls-2" cx="1465.64" cy="202.02" r="10.58"/><circle class="cls-2" cx="1315.17" cy="201.93" r="7"/><line class="cls-5" x1="1281.39" y1="-11.14" x2="1281.39" y2="105.66"/><circle class="cls-2" cx="1281.39" cy="105.66" r="8.42"/><line class="cls-3" x1="1465.32" y1="145.78" x2="1513.66" y2="145.78"/><circle class="cls-2" cx="1512.2" cy="146.27" r="5.49"/><polyline class="cls-6" points="612.57 64.05 791.11 64.05 791.11 26.05 991.88 26.05 992.41 57.62 912.39 57.62 912.39 124.12"/><circle class="cls-2" cx="791.11" cy="64.05" r="4.11"/><circle class="cls-2" cx="991.88" cy="26.13" r="2.82"/><circle class="cls-2" cx="912.39" cy="124.12" r="4.51"/><circle class="cls-2" cx="612.95" cy="63.99" r="5.66"/><circle class="cls-2" cx="519.96" cy="83.08" r="7"/><circle class="cls-2" cx="419.64" cy="83.08" r="7"/><circle cx="225.77" cy="85.34" r="5.07"/><circle class="cls-2" cx="381.32" cy="121.41" r="5.64"/><circle class="cls-2" cx="194.39" cy="74.52" r="5.64"/><circle class="cls-2" cx="54.63" cy="102.7" r="5.64"/><circle class="cls-2" cx="912.69" cy="57.99" r="3.95"/><circle class="cls-2" cx="1416.22" cy="63.25" r="5.64"/><line class="cls-4" x1="748.39" y1="-5.51" x2="748.92" y2="62.22"/><circle class="cls-2" cx="748.92" cy="64.48" r="6.2"/><line class="cls-7" x1="912.56" y1="78.68" x2="948.46" y2="79.03"/><circle class="cls-2" cx="948.46" cy="79.03" r="4.51"/><polyline class="cls-8" points="225.95 85.79 136.91 85.79 136.91 48.6 -180.95 48.6 -180.95 -7.76"/><polyline class="cls-9" points="521.27 -10.01 521.27 83.54 419.82 83.54"/><polyline class="cls-10" points="1214.98 -11.14 1214.98 63.99 1239.07 63.99 1239.07 88.73"/><circle class="cls-2" cx="1214.98" cy="63.99" r="2.93"/><circle class="cls-2" cx="1239.23" cy="88.16" r="3.17"/><line class="cls-3" x1="1314.92" y1="108.18" x2="1314.92" y2="201.89"/><circle class="cls-2" cx="1394.35" cy="19.06" r="5.07"/><line class="cls-3" x1="1394.35" y1="19.06" x2="1394.81" y2="108.34"/><circle class="cls-2" cx="1394.35" cy="104.02" r="5.07"/><polyline class="cls-10" points="1533.58 199.74 1573.62 199.74 1573.62 235.22"/><circle class="cls-2" cx="1573.62" cy="236.35" r="4.07"/><circle class="cls-2" cx="1533.58" cy="200.86" r="3.09"/><circle class="cls-2" cx="1573.62" cy="200.86" r="3.58"/><polyline class="cls-10" points="819.4 12.53 819.4 72.83 847.41 72.32 847.41 107.8"/><circle class="cls-2" cx="847.41" cy="107.8" r="4.07"/><circle class="cls-2" cx="819.77" cy="72.32" r="3.09"/><circle class="cls-2" cx="847.41" cy="72.32" r="3.58"/><polyline class="cls-7" points="1523.92 101.83 1578.53 101.57 1578.53 74.52 1595.44 74.52"/><circle class="cls-2" cx="1523.92" cy="101.83" r="4.15"/><circle class="cls-2" cx="1596.05" cy="73.65" r="3.38"/><circle class="cls-2" cx="1578.53" cy="101.57" r="2.25"/><polyline class="cls-10" points="1625.31 55.7 1653.11 55.7 1653.11 81.58 1621.05 81.58 1621.05 154.99 1666.46 154.99 1666.46 230.35"/><circle class="cls-2" cx="1653.11" cy="55.7" r="2.12"/><circle class="cls-2" cx="1621.05" cy="81.58" r="2.69"/><circle class="cls-2" cx="1621.05" cy="154.98" r="2.93"/><circle class="cls-2" cx="1666.46" cy="154.98" r="2.6"/><circle class="cls-2" cx="1666.46" cy="230.35" r="3.5"/><polyline class="cls-3" points="1370.47 -12.27 1370.01 63.25 1415.1 63.25"/><polyline class="cls-3" points="1862.58 174.53 1725.36 174.53 1725.06 237.96 1845.67 237.96 1845.67 297.7 1924.57 297.7 1924.57 360.82"/><circle class="cls-2" cx="1725.36" cy="174.53" r="4.88"/><circle class="cls-2" cx="1924.87" cy="360.51" r="4.88"/><circle class="cls-2" cx="1845.97" cy="238.78" r="4.88"/><circle class="cls-2" cx="1725.36" cy="238.78" r="3.95"/><circle class="cls-2" cx="1867.08" cy="174.53" r="7.49"/><polyline class="cls-3" points="1908.37 -11.14 1908.37 137.89 1955 137.64"/><circle class="cls-2" cx="1909.35" cy="137.89" r="7.98"/><polyline class="cls-3" points="1695.47 -11.14 1695.47 85.8 1787.27 85.8 1806.16 85.8 1806.22 -6.63"/><line class="cls-3" x1="1785.65" y1="158.72" x2="1785.65" y2="85.8"/><circle class="cls-2" cx="1695.47" cy="85.8" r="7"/><circle class="cls-2" cx="1785.81" cy="86.29" r="6.67"/><circle class="cls-2" cx="1785.32" cy="159.7" r="6.67"/><line class="cls-11" x1="1174.82" y1="-7.76" x2="1174.82" y2="119.61"/><polyline class="cls-12" points="1440.46 -14.52 1440.9 164.58 1523.92 164.58 1523.92 238.8"/><circle class="cls-13" cx="1440.9" cy="164.58" r="8.31"/><circle class="cls-13" cx="1523.92" cy="238.8" r="5.86"/><circle class="cls-14" cx="1134.25" cy="103.05" r="7.89"/><polyline class="cls-15" points="1049.9 -6.63 1050.26 33.71 1134.25 33.71 1134.25 103.05"/><circle cx="1051.39" cy="59.64" r="4.31"/><circle class="cls-13" cx="1134.25" cy="103.05" r="5.48"/><circle class="cls-13" cx="1134.25" cy="33.71" r="4.15"/><circle cx="690.7" cy="14.89" r="3.91"/><circle class="cls-13" cx="976.94" cy="97.16" r="3.91"/><circle class="cls-16" cx="1134.25" cy="33.71" r="6.76"/><polyline class="cls-11" points="1338.85 -11.14 1338.85 177.28 1384.75 177.28 1384.75 164.58 1440.9 164.58"/><circle class="cls-13" cx="1339.34" cy="49.34" r="5.49"/><circle class="cls-13" cx="1339.82" cy="133.33" r="5.86"/><circle class="cls-17" cx="1339.82" cy="133.33" r="13.31"/><line class="cls-12" x1="1309.06" y1="-11.14" x2="1309.06" y2="49.58"/><polyline class="cls-11" points="1195.78 -8.89 1195.78 49.34 1339.34 49.34"/><circle class="cls-13" cx="1195.79" cy="48.82" r="5.01"/><circle class="cls-13" cx="1309.18" cy="48.02" r="8.31"/><circle class="cls-17" cx="1309.18" cy="48.02" r="12.45"/><circle class="cls-17" cx="1195.77" cy="49.34" r="10.86"/><polyline class="cls-18" points="1233.18 13.05 1258.09 13.05 1258.09 36.49"/><circle class="cls-13" cx="1233.18" cy="13.05" r="2.69"/><circle class="cls-13" cx="1258.09" cy="35.76" r="3.05"/><circle class="cls-13" cx="1258.09" cy="13.05" r="2.77"/><polyline class="cls-11" points="1340.31 132.35 1477.53 132.35 1477.09 -14.52"/><line class="cls-11" x1="1479.48" y1="74.24" x2="1525.38" y2="74.24"/><circle class="cls-13" cx="1477.53" cy="132.35" r="4.88"/><circle class="cls-13" cx="1477.33" cy="74.43" r="4.39"/><circle class="cls-13" cx="1525.38" cy="74.24" r="4.64"/><polyline class="cls-18" points="1590.33 -13.96 1590.33 44.95 1539.05 44.95 1539.05 131.38 1574.21 131.38 1574.21 161.16"/><circle class="cls-13" cx="1590.08" cy="44.69" r="5.64"/><circle class="cls-13" cx="1539.3" cy="45.19" r="5.09"/><circle class="cls-17" cx="1590.08" cy="44.69" r="12.25"/><circle class="cls-13" cx="1539.05" cy="131.37" r="3.91"/><circle class="cls-13" cx="1574.21" cy="161.16" r="4.15"/><circle class="cls-13" cx="1600.09" cy="171.9" r="3.3"/><circle class="cls-13" cx="1641.97" cy="105.77" r="3.21"/><polyline class="cls-18" points="1629.88 -11.7 1629.88 18.09 1612.3 18.09 1612.3 39.09 1642.57 39.09 1642.57 105.98 1600.09 105.98 1600.09 171.9"/><circle class="cls-13" cx="1600.42" cy="105.82" r="3.09"/><circle class="cls-13" cx="1612.3" cy="18.09" r="2.44"/><circle class="cls-13" cx="1612.3" cy="39.09" r="2.56"/><circle class="cls-13" cx="1642.57" cy="39.09" r="3.21"/><circle class="cls-19" cx="1641.97" cy="105.77" r="8.45"/><polyline class="cls-17" points="1676.27 -8.89 1676.27 31.27 1757.33 31.27 1757.33 99.15"/><polyline class="cls-17" points="1757.33 31.27 1775.88 31.27 1775.88 -11.14"/><circle class="cls-13" cx="1676.27" cy="31.27" r="8.3"/><circle class="cls-13" cx="1757.33" cy="31.27" r="4.88"/><circle class="cls-13" cx="1757.33" cy="99.15" r="8.06"/><circle class="cls-17" cx="1757.33" cy="31.27" r="13.55"/><line class="cls-20" x1="1722.24" y1="-6.63" x2="1722.17" y2="21.75"/><circle class="cls-13" cx="1722.17" cy="21.75" r="2.93"/><circle class="cls-17" cx="1698.83" cy="125.52" r="14.16"/><circle class="cls-17" cx="1524.18" cy="238.84" r="11.72"/><polyline class="cls-15" points="1816.9 -11.14 1816.9 124.54 1698.73 124.54 1699.14 280.79"/><circle class="cls-13" cx="1698.73" cy="124.54" r="5.74"/><circle class="cls-13" cx="1818.36" cy="124.05" r="10.25"/><circle class="cls-13" cx="1698.89" cy="286.18" r="7.65"/><polyline class="cls-21" points="899.99 128.63 871.81 128.63 871.81 32.82 889.47 32.82 912.39 32.82 912.39 -12.27"/><circle class="cls-13" cx="889.35" cy="65.63" r="4.51"/><circle class="cls-13" cx="856.89" cy="56.18" r="5.74"/><circle cx="820.82" cy="102.39" r="5.74"/><circle cx="720.77" cy="126.37" r="3.38"/><circle cx="675.42" cy="126.06" r="5.74"/><circle cx="675.42" cy="43.78" r="5.74"/><circle cx="581.57" cy="44.65" r="5.07"/><circle cx="593.97" cy="105.52" r="5.07"/><circle class="cls-13" cx="931.28" cy="42.34" r="7.65"/><circle class="cls-13" cx="898.3" cy="128.06" r="6.2"/><circle cx="1167.12" cy="94.81" r="3.95"/><circle cx="340.92" cy="83.54" r="5.64"/><circle cx="265.4" cy="115.1" r="4.51"/><circle cx="437.86" cy="100.45" r="4.51"/><circle cx="559.59" cy="129.75" r="4.51"/><circle cx="436.73" cy="14.78" r="4.51"/><circle cx="533.66" cy="61" r="4.51"/><circle cx="976.63" cy="41.84" r="5.64"/><circle cx="264.63" cy="67.17" r="7.65"/><circle cx="102.32" cy="144.94" r="5.64"/><circle cx="472.02" cy="107.74" r="7.65"/><line class="cls-9" x1="194.39" y1="-3.25" x2="194.39" y2="74.52"/><circle class="cls-13" cx="1806.64" cy="209.99" r="5.37"/><circle class="cls-17" cx="1759.77" cy="209.99" r="13.67"/><circle class="cls-13" cx="1623.04" cy="270.05" r="5.21"/><circle cx="1638.82" cy="143.81" r="5.21"/><circle cx="1555.99" cy="290.94" r="4.51"/><circle cx="1685.61" cy="245.85" r="4.51"/><polyline class="cls-11" points="1490.22 185.58 1623.04 185.58 1623.04 270.05 1759.77 270.05 1759.77 209.99 1806.64 209.99 1806.64 189 1817.88 189 1817.88 126"/><circle class="cls-13" cx="1490.22" cy="185.58" r="8.67"/><circle class="cls-13" cx="1623.04" cy="185.58" r="5.49"/><circle class="cls-13" cx="1759.77" cy="270.05" r="5.86"/><circle class="cls-13" cx="1759.77" cy="209.99" r="6.19"/><polyline class="cls-22" points="1928.84 179.47 1928.84 238.93 1883.61 238.93 1883.61 378.85"/><circle class="cls-13" cx="1883.61" cy="378.76" r="4.61"/><circle class="cls-13" cx="1883.61" cy="238.93" r="4.82"/><circle class="cls-23" cx="1928.84" cy="179.46" r="10.26"/><polyline class="cls-12" points="1865.73 -10.01 1865.73 99.15 1951.62 99.15"/><circle class="cls-13" cx="1865.73" cy="99.15" r="9.28"/><circle class="cls-17" cx="1880.38" cy="208.53" r="12.37"/><circle class="cls-13" cx="1880.38" cy="122.59" r="5.86"/><circle class="cls-13" cx="1827.89" cy="329.82" r="5.7"/><circle class="cls-13" cx="1841.81" cy="52.06" r="3.42"/><circle class="cls-13" cx="1828.13" cy="208.53" r="3.91"/><polyline class="cls-18" points="1842.29 51.98 1842.29 122.58 1880.38 122.58 1880.38 208.53 1828.13 208.53 1828.2 329.26"/><circle class="cls-13" cx="1880.38" cy="208.53" r="4.88"/><circle class="cls-13" cx="1842.29" cy="122.59" r="5.54"/><line class="cls-17" x1="1556.63" y1="186.55" x2="1556.63" y2="290.94"/><polyline class="cls-17" points="778.26 55.52 856.89 55.52 856.89 95.24 931.11 95.24 931.11 44.46"/><polyline class="cls-24" points="1029.23 -39.7 1029.61 41.84 976.63 41.84 976.63 97.06"/><polyline class="cls-25" points="1036.59 116.19 1163.55 116.19 1163.55 157.21 1251.44 157.21 1251.44 118.15 1272.93 118.15 1272.51 197.38"/><polyline class="cls-26" points="1166.24 94.14 1199.71 94.14 1199.71 141.4 1230.24 141.59 1230.24 194.56"/><polyline class="cls-4" points="300.34 -3.25 300.34 120.74 380.37 120.74"/><circle cx="991.36" cy="128.35" r="2.93"/><circle class="cls-27" cx="991.36" cy="128.35" r="4.88"/><circle cx="1230.15" cy="193.48" r="2.93"/><circle cx="1251.57" cy="157.42" r="2.93"/><circle cx="1018.86" cy="60.4" r="2.93"/><circle cx="1174.89" cy="119.83" r="2.93"/><circle cx="1272.37" cy="197.46" r="5.07"/><polyline class="cls-26" points="991.29 128.03 1018.02 128.03 1018.02 59.66 1051.22 59.66 1051.22 75.29 1080.52 75.29 1080.52 -5.5"/><circle cx="1080.52" cy="75.01" r="3.91"/><circle cx="1163.93" cy="157.29" r="3.91"/><circle cx="1036.56" cy="116.71" r="3.91"/><circle cx="1251.85" cy="117.84" r="3.91"/><polyline class="cls-28" points="778.82 -8.89 778.76 87.43 690.87 87.43 690.87 15.16 601.02 15.16 600.73 -10.01"/><path class="cls-29" d="M436.73,14.78v85.66H102s1.69,42.27,0,44"/><polyline class="cls-30" points="382.63 -7.76 382.19 66.91 264.99 66.91 265.4 116.23"/><polyline class="cls-8" points="559.59 132.01 559.59 45.22 340.92 45.22 340.92 83.54"/><line class="cls-8" x1="471.67" y1="-20.16" x2="471.67" y2="107.21"/><polyline class="cls-31" points="471.67 6.89 533.66 6.89 533.66 62.12"/><circle class="cls-32" cx="436.73" cy="14.78" r="9.58"/><polyline class="cls-26" points="821.09 102.7 778.26 102.7 778.26 126.37 720.77 125.81 720.77 -5.5"/><polyline class="cls-26" points="582.13 -20.16 582.13 42.96 675.68 42.96 675.68 126.37"/><polyline class="cls-33" points="1638.4 143.28 1680.77 143.28 1680.77 176.37 1632.87 176.37 1632.87 245.85 1685.38 245.85"/><rect class="cls-34" x="1141.33" y="52.51" width="23.93" height="23.93"/><rect class="cls-35" x="1327.37" y="164.34" width="23.93" height="23.93"/><rect class="cls-34" x="1561.53" y="120.1" width="23.93" height="23.93"/><rect class="cls-34" x="1685.67" y="185.48" width="23.93" height="23.93"/><rect class="cls-35" x="767.29" y="73.23" width="23.93" height="23.93"/><rect class="cls-34" x="547.5" y="91.27" width="23.93" height="23.93"/><rect class="cls-35" x="1855.23" y="12.02" width="23.93" height="23.93"/><rect class="cls-34" x="1430.33" y="39.8" width="23.93" height="23.93"/><circle class="cls-2" cx="1624.93" cy="55.7" r="2.12"/><line class="cls-21" x1="889.84" y1="32.82" x2="889.84" y2="66.63"/><circle class="cls-17" cx="86.05" cy="21.51" r="12.37"/><circle class="cls-13" cx="171.99" cy="21.51" r="5.86"/><circle class="cls-13" cx="242.52" cy="60.08" r="3.42"/><circle class="cls-13" cx="86.05" cy="73.76" r="3.91"/><polyline class="cls-18" points="242.6 59.6 171.99 59.6 171.99 21.52 86.05 21.52 86.05 73.76 -34.68 73.7"/><circle class="cls-13" cx="86.05" cy="21.51" r="4.88"/><circle class="cls-13" cx="171.99" cy="59.6" r="5.54"/><circle cx="323.03" cy="33.68" r="5.54" transform="translate(257 351.68) rotate(-84.22)"/><circle cx="219.33" cy="11.13" r="4.51"/><polyline class="cls-18" points="338.23 9.67 363.13 9.67 363.13 33.11"/><circle class="cls-13" cx="338.23" cy="9.67" r="2.69"/><circle class="cls-13" cx="363.13" cy="32.38" r="3.05"/><circle class="cls-13" cx="363.13" cy="9.67" r="2.77"/><polyline class="cls-36" points="324.01 33.95 219.19 33.95 219.19 11.4"/><line class="cls-37" x1="284.56" y1="45.22" x2="284.56" y2="-7.76"/><circle cx="284.71" cy="44.95" r="3.38" transform="translate(211.32 323.68) rotate(-84.22)"/><polyline class="cls-9" points="23.07 -3.25 23.07 102.7 54.63 102.7"/><polyline class="cls-7" points="-81.76 -3.25 -81.76 38.45 45.61 38.45"/><circle class="cls-2" cx="46.74" cy="38.45" r="3.95"/><rect class="cls-34" x="370.81" y="53.32" width="23.93" height="23.93"/><rect class="cls-35" x="125.09" y="36.42" width="23.93" height="23.93"/><polyline class="cls-26" points="639.99 43.33 639.99 104.96 593.4 104.96"/><circle class="cls-2" cx="819.77" cy="12.58" r="3.09"/></svg>