<svg id="Réteg_1" data-name="Réteg 1" xmlns="http://www.w3.org/2000/svg" viewBox="0 0 500 120"><defs><style>.cls-1,.cls-12,.cls-13,.cls-14,.cls-15,.cls-16,.cls-17,.cls-18,.cls-19,.cls-20,.cls-21,.cls-22,.cls-23,.cls-24,.cls-25,.cls-26,.cls-27,.cls-28,.cls-3,.cls-4,.cls-5,.cls-6,.cls-7,.cls-8,.cls-9{fill:none;}.cls-1,.cls-3,.cls-4,.cls-5,.cls-6{stroke:#a6a8ab;}.cls-1,.cls-11,.cls-12,.cls-13,.cls-14,.cls-15,.cls-16,.cls-17,.cls-18,.cls-19,.cls-20,.cls-21,.cls-22,.cls-23,.cls-24,.cls-25,.cls-26,.cls-27,.cls-28,.cls-3,.cls-4,.cls-5,.cls-6,.cls-7,.cls-8,.cls-9{stroke-miterlimit:10;}.cls-1,.cls-16,.cls-25{stroke-width:0.73px;}.cls-2{fill:#a6a8ab;}.cls-11,.cls-24,.cls-3,.cls-9{stroke-width:0.63px;}.cls-23,.cls-4{stroke-width:0.95px;}.cls-5{stroke-width:0.59px;}.cls-13,.cls-6{stroke-width:0.48px;}.cls-11,.cls-12,.cls-13,.cls-14,.cls-15,.cls-16,.cls-17,.cls-18,.cls-7,.cls-8,.cls-9{stroke:#231f20;}.cls-7{stroke-width:0.76px;}.cls-8{stroke-width:1.08px;}.cls-10{fill:#231f20;}.cls-11{fill:#fff;}.cls-12{stroke-width:0.55px;}.cls-14{stroke-width:0.31px;}.cls-15,.cls-20{stroke-width:0.32px;}.cls-17{stroke-width:0.65px;}.cls-18{stroke-width:0.54px;}.cls-19,.cls-20,.cls-21,.cls-22,.cls-23,.cls-24,.cls-25,.cls-26,.cls-27,.cls-28{stroke:#000;}.cls-19{stroke-width:0.56px;}.cls-21{stroke-width:0.37px;}.cls-22{stroke-width:0.4px;}.cls-26{stroke-width:0.72px;}.cls-27{stroke-width:0.49px;}.cls-28{stroke-width:0.33px;}.cls-29{fill:#25a9e0;}.cls-30{fill:red;}</style></defs><title>header-sm</title><polyline class="cls-1" points="195.44 -6.34 195.44 22.73 225.7 22.73 225.7 55.03"/><circle class="cls-2" cx="195.44" cy="22.73" r="2.59"/><circle class="cls-2" cx="225.7" cy="55.18" r="2.7"/><circle class="cls-2" cx="225.7" cy="22.73" r="2.06"/><line class="cls-3" x1="230.08" y1="-2.01" x2="230.08" y2="39.47"/><circle class="cls-2" cx="230.08" cy="39.47" r="1.8"/><polyline class="cls-4" points="244.58 -3.77 244.58 30.37 296.96 30.37 296.96 2.01 377.59 2.01 377.59 14.92 345.84 14.92 345.84 61.48 297.38 61.48"/><circle class="cls-2" cx="296.96" cy="30.37" r="2.01"/><circle class="cls-2" cx="377.59" cy="2.01" r="2.17"/><circle class="cls-2" cx="345.84" cy="61.48" r="3.44"/><circle class="cls-2" cx="296.93" cy="61.46" r="2.28"/><circle class="cls-3" cx="266.37" cy="30.35" r="2.7"/><line class="cls-4" x1="285.95" y1="-3.04" x2="285.95" y2="30.16"/><circle class="cls-2" cx="285.95" cy="30.16" r="2.74"/><line class="cls-3" x1="345.74" y1="43.2" x2="361.45" y2="43.2"/><circle class="cls-2" cx="360.98" cy="43.36" r="1.79"/><polyline class="cls-5" points="68.54 16.64 126.58 16.64 126.58 4.29 191.84 4.29 192.02 14.54 166 14.54 166 36.16"/><circle class="cls-2" cx="126.58" cy="16.64" r="1.33"/><circle class="cls-2" cx="191.84" cy="4.31" r="1.76"/><circle class="cls-2" cx="166" cy="36.16" r="1.47"/><circle class="cls-2" cx="68.67" cy="16.62" r="1.84"/><circle class="cls-2" cx="34.04" cy="24.65" r="2.28"/><circle class="cls-2" cx="64.46" cy="45.54" r="2.28"/><circle class="cls-2" cx="166.1" cy="14.67" r="1.28"/><circle class="cls-2" cx="321.35" cy="8.32" r="1.83"/><line class="cls-4" x1="112.66" y1="-19.09" x2="112.87" y2="16.04"/><circle class="cls-2" cx="112.87" cy="16.04" r="2.74"/><line class="cls-3" x1="166.06" y1="21.39" x2="177.73" y2="21.51"/><circle class="cls-2" cx="177.73" cy="21.51" r="1.47"/><polyline class="cls-1" points="-0.7 18.94 28.24 18.94 28.24 45.69 64.51 45.69"/><polyline class="cls-1" points="34.1 -3.04 34.1 25.17 1.13 25.17"/><polyline class="cls-6" points="264.36 -3.23 264.36 16.62 272.19 16.62 272.19 24.66"/><circle class="cls-2" cx="264.36" cy="16.62" r="0.95"/><circle class="cls-2" cx="272.25" cy="24.47" r="1.03"/><line class="cls-3" x1="296.85" y1="30.98" x2="296.85" y2="61.44"/><circle class="cls-2" cx="322.67" cy="2.01" r="1.65"/><line class="cls-3" x1="322.67" y1="2.01" x2="322.67" y2="73.23"/><circle class="cls-2" cx="322.67" cy="73.23" r="2.22"/><circle class="cls-2" cx="142.96" cy="8.73" r="2.22"/><polyline class="cls-6" points="372.69 29.2 372.69 60.74 385.7 60.74 385.7 72.28"/><circle class="cls-2" cx="385.71" cy="72.28" r="1.32"/><circle class="cls-2" cx="372.69" cy="60.74" r="1.01"/><circle class="cls-2" cx="385.71" cy="60.74" r="1.16"/><polyline class="cls-6" points="142.86 8.3 142.86 30.32 155.87 30.32 155.87 41.85"/><circle class="cls-2" cx="155.87" cy="41.85" r="1.32"/><circle class="cls-2" cx="142.86" cy="30.31" r="1.01"/><circle class="cls-2" cx="155.87" cy="30.31" r="1.16"/><polyline class="cls-3" points="364.79 28.92 388.04 28.92 388.03 -4.51"/><circle class="cls-2" cx="364.79" cy="28.92" r="1.35"/><polyline class="cls-6" points="397.74 13.92 406.78 13.92 406.78 22.33 396.36 22.33 396.36 46.2 411.12 46.2 411.12 70.69"/><circle class="cls-2" cx="406.78" cy="13.92" r="0.69"/><circle class="cls-2" cx="396.36" cy="22.33" r="0.87"/><circle class="cls-2" cx="396.36" cy="46.2" r="0.95"/><circle class="cls-2" cx="411.12" cy="46.2" r="0.85"/><circle class="cls-2" cx="411.12" cy="70.69" r="1.14"/><line class="cls-3" x1="314.76" y1="23.7" x2="314.91" y2="-3.03"/><polyline class="cls-3" points="474.87 52.55 430.27 52.55 430.17 68.4"/><circle class="cls-2" cx="430.27" cy="52.55" r="1.59"/><circle class="cls-2" cx="476.33" cy="52.55" r="2.43"/><line class="cls-3" x1="489.76" y1="-4.51" x2="489.76" y2="40.64"/><polyline class="cls-3" points="420.55 -4.14 420.55 23.71 450.39 23.71 456.53 23.71 456.53 -3.41"/><line class="cls-3" x1="449.86" y1="47.41" x2="449.86" y2="23.71"/><circle class="cls-2" cx="420.55" cy="23.71" r="2.28"/><circle class="cls-2" cx="449.92" cy="23.86" r="2.17"/><circle class="cls-2" cx="449.76" cy="47.73" r="2.17"/><line class="cls-7" x1="251.31" y1="-2.31" x2="251.31" y2="34.7"/><polyline class="cls-8" points="337.8 -4.14 337.8 49.31 364.79 49.31 364.79 73.44"/><circle class="cls-9" cx="337.8" cy="24.87" r="4.13"/><circle class="cls-10" cx="337.8" cy="49.31" r="2.7"/><circle class="cls-10" cx="364.79" cy="73.44" r="1.9"/><circle class="cls-11" cx="210.82" cy="6.78" r="3.6"/><circle class="cls-11" cx="238.12" cy="29.31" r="3.6"/><polyline class="cls-12" points="210.82 -4.14 210.82 6.78 238.12 6.78 238.12 29.31"/><circle class="cls-10" cx="210.82" cy="6.78" r="2.5"/><circle class="cls-10" cx="238.12" cy="29.31" r="2.5"/><circle class="cls-10" cx="238.12" cy="6.78" r="1.35"/><circle cx="71.59" cy="24.84" r="1.27"/><circle class="cls-10" cx="186.99" cy="27.4" r="1.27"/><circle class="cls-9" cx="238.12" cy="6.78" r="4.6"/><polyline class="cls-7" points="304.63 -4.51 304.63 53.44 319.55 53.44 319.55 49.31 337.8 49.31"/><circle class="cls-10" cx="304.79" cy="11.85" r="1.79"/><circle class="cls-10" cx="304.95" cy="39.16" r="1.9"/><circle class="cls-9" cx="304.95" cy="39.16" r="4.33"/><line class="cls-8" x1="294.95" y1="-3.77" x2="294.95" y2="11.93"/><polyline class="cls-7" points="258.12 -3.15 258.12 11.85 304.79 11.85"/><circle class="cls-10" cx="258.13" cy="11.69" r="1.63"/><circle class="cls-10" cx="294.98" cy="11.43" r="2.7"/><circle class="cls-9" cx="294.98" cy="11.43" r="4.05"/><circle class="cls-9" cx="258.12" cy="11.85" r="3.53"/><polyline class="cls-13" points="274.31 0.43 282.41 0.43 282.41 8.04"/><circle class="cls-10" cx="274.31" cy="0.43" r="0.87"/><circle class="cls-10" cx="282.41" cy="7.81" r="0.99"/><circle class="cls-10" cx="282.41" cy="0.43" r="0.9"/><polyline class="cls-7" points="305.1 38.84 349.71 38.84 349.71 -4.14"/><line class="cls-7" x1="350.34" y1="19.95" x2="365.26" y2="19.95"/><circle class="cls-10" cx="349.71" cy="38.84" r="1.59"/><circle class="cls-10" cx="349.64" cy="20.01" r="1.43"/><circle class="cls-10" cx="365.26" cy="19.95" r="1.51"/><polyline class="cls-13" points="386.37 -4.14 386.37 10.43 369.71 10.43 369.71 38.52 381.13 38.52 381.13 48.2"/><circle class="cls-10" cx="386.29" cy="10.34" r="1.83"/><circle class="cls-10" cx="369.79" cy="10.51" r="1.65"/><circle class="cls-9" cx="386.29" cy="10.34" r="3.98"/><circle class="cls-10" cx="369.71" cy="38.52" r="1.27"/><circle class="cls-10" cx="381.13" cy="48.2" r="1.35"/><circle class="cls-10" cx="389.55" cy="51.69" r="1.07"/><circle class="cls-10" cx="403.16" cy="30.2" r="1.04"/><polyline class="cls-13" points="399.23 -1.64 399.23 1.7 393.51 1.7 393.51 8.52 403.36 8.52 403.36 30.27 389.55 30.27 389.55 51.7"/><circle class="cls-10" cx="389.65" cy="30.21" r="1.01"/><circle class="cls-10" cx="393.51" cy="1.7" r="0.79"/><circle class="cls-10" cx="393.51" cy="8.52" r="0.83"/><circle class="cls-10" cx="403.36" cy="8.52" r="1.04"/><circle class="cls-14" cx="403.16" cy="30.2" r="2.75"/><polyline class="cls-9" points="414.31 -1.48 414.31 5.98 440.66 5.98 440.66 28.05"/><polyline class="cls-9" points="440.66 5.98 446.69 5.98 446.69 -4.14"/><circle class="cls-10" cx="414.31" cy="5.98" r="2.7"/><circle class="cls-10" cx="440.66" cy="5.98" r="1.59"/><circle class="cls-10" cx="440.66" cy="28.04" r="2.62"/><circle class="cls-9" cx="440.66" cy="5.98" r="4.4"/><line class="cls-15" x1="429.25" y1="-3.04" x2="429.23" y2="2.89"/><circle class="cls-10" cx="429.23" cy="2.89" r="0.95"/><circle class="cls-9" cx="421.64" cy="36.62" r="4.6"/><circle class="cls-9" cx="421.66" cy="99.1" r="3.81"/><polyline class="cls-12" points="460.02 -3.41 460.02 36.3 421.61 36.3 421.61 99.47"/><circle class="cls-10" cx="421.61" cy="36.3" r="1.87"/><circle class="cls-10" cx="460.5" cy="36.14" r="3.33"/><circle class="cls-10" cx="421.66" cy="99.1" r="2.49"/><polyline class="cls-16" points="161.97 37.63 152.81 37.63 152.81 6.48 158.55 6.48 166 6.48 166 -4.51"/><circle class="cls-10" cx="158.52" cy="17.15" r="1.47"/><circle class="cls-10" cx="147.96" cy="14.08" r="1.87"/><circle cx="136.24" cy="29.1" r="1.87"/><circle cx="88.98" cy="36.79" r="1.87"/><circle cx="88.98" cy="10.05" r="1.87"/><circle cx="58.47" cy="10.33" r="1.65"/><circle class="cls-10" cx="172.14" cy="9.58" r="2.49"/><circle class="cls-10" cx="161.42" cy="37.44" r="2.02"/><circle cx="248.81" cy="26.64" r="1.28"/><circle cx="80.27" cy="27.37" r="1.83"/><circle cx="42.16" cy="54.11" r="1.47"/><circle cx="160.51" cy="31.4" r="1.47"/><circle cx="51.32" cy="60.34" r="1.47"/><circle cx="12.49" cy="14.91" r="1.47"/><circle cx="71.48" cy="51.55" r="1.47"/><circle cx="186.89" cy="9.42" r="1.83"/><circle cx="42.28" cy="27.54" r="2.49"/><circle cx="22.49" cy="37.43" r="2.49"/><circle class="cls-10" cx="456.69" cy="64.08" r="1.75"/><circle class="cls-9" cx="441.45" cy="64.08" r="4.44"/><circle class="cls-9" cx="441.45" cy="83.6" r="4.23"/><circle class="cls-10" cx="397.01" cy="83.6" r="1.69"/><circle cx="402.14" cy="42.56" r="1.69"/><circle cx="375.21" cy="90.39" r="1.47"/><circle cx="417.35" cy="75.73" r="1.47"/><polyline class="cls-7" points="353.83 56.14 397.01 56.14 397.01 83.6 441.45 83.6 441.45 64.08 456.69 64.08 456.69 57.25 460.34 57.25 460.34 36.77"/><circle class="cls-10" cx="353.83" cy="56.14" r="2.82"/><circle class="cls-10" cx="397.01" cy="56.14" r="1.79"/><circle class="cls-10" cx="441.45" cy="83.6" r="1.9"/><circle class="cls-10" cx="441.45" cy="64.08" r="2.01"/><polyline class="cls-17" points="496.41 54.15 496.41 73.48 481.7 73.48 481.7 96.63"/><circle class="cls-10" cx="481.71" cy="96.22" r="1.5"/><circle class="cls-10" cx="481.71" cy="73.48" r="1.57"/><circle class="cls-10" cx="496.41" cy="54.15" r="1.57"/><circle class="cls-18" cx="496.41" cy="54.15" r="3.34"/><polyline class="cls-8" points="475.89 -3.04 475.89 28.05 503.81 28.05"/><circle class="cls-10" cx="475.89" cy="28.04" r="3.02"/><circle class="cls-9" cx="463.59" cy="92.77" r="4.6"/><circle class="cls-9" cx="480.66" cy="63.6" r="4.02"/><circle class="cls-10" cx="480.66" cy="35.66" r="1.9"/><circle class="cls-10" cx="463.59" cy="92.77" r="1.85"/><circle class="cls-10" cx="468.49" cy="25.93" r="1.11"/><circle class="cls-10" cx="463.67" cy="63.6" r="1.27"/><polyline class="cls-13" points="468.27 26.46 468.27 35.66 480.66 35.66 480.66 63.6 463.67 63.6 463.67 92.95"/><line class="cls-13" x1="464.15" y1="92.65" x2="494.62" y2="92.65"/><circle class="cls-10" cx="480.66" cy="63.6" r="1.59"/><circle class="cls-10" cx="494.62" cy="92.65" r="2.14"/><circle class="cls-10" cx="468.28" cy="35.66" r="1.8"/><line class="cls-9" x1="375.42" y1="56.46" x2="375.42" y2="90.39"/><polyline class="cls-9" points="122.4 13.87 147.96 13.87 147.96 26.77 172.09 26.77 172.09 10.27"/><polyline class="cls-19" points="203.98 -17.09 204.11 9.41 186.89 9.41 186.89 27.37"/><polyline class="cls-20" points="206.38 33.59 247.65 33.59 247.65 46.92 276.21 46.92 276.21 34.22 283.2 34.22 283.06 59.98"/><polyline class="cls-21" points="248.52 26.42 259.4 26.42 259.4 41.78 269.32 41.84 269.32 59.06"/><circle cx="191.67" cy="37.54" r="0.95"/><circle class="cls-22" cx="191.67" cy="37.54" r="1.59"/><circle cx="269.3" cy="58.71" r="0.95"/><circle cx="276.26" cy="46.99" r="0.95"/><circle cx="200.61" cy="15.45" r="0.95"/><circle cx="251.33" cy="34.77" r="0.95"/><circle cx="283.02" cy="60" r="1.65"/><polyline class="cls-21" points="191.65 37.43 200.34 37.43 200.34 15.21 211.13 15.21 211.13 20.29 220.66 20.29 220.66 -1.94"/><circle cx="220.66" cy="20.2" r="1.27"/><circle cx="247.77" cy="46.95" r="1.27"/><circle cx="206.37" cy="33.76" r="1.27"/><circle cx="276.35" cy="34.12" r="1.27"/><polyline class="cls-23" points="122.57 -3.41 122.57 24.23 94 24.23 94 0.74 64.79 0.74 64.79 -3.23"/><polyline class="cls-21" points="1.86 42.76 12.49 42.76 12.49 14.91"/><polyline class="cls-24" points="80.49 0.79 80.49 27.46 42.4 27.46 42.4 54.76"/><polyline class="cls-25" points="2.96 10.51 51.32 10.51 51.32 60.34"/><line class="cls-25" x1="22.75" y1="-3.04" x2="22.75" y2="37.63"/><polyline class="cls-26" points="51.51 24.8 71.66 24.8 71.66 51.55"/><circle class="cls-27" cx="71.48" cy="51.55" r="3.11"/><circle class="cls-27" cx="22.38" cy="37.63" r="3.85"/><polyline class="cls-21" points="58.65 -10.74 58.65 9.78 89.06 9.78 89.06 36.89 122.4 36.89 122.4 29.2 136.33 29.2"/><polyline class="cls-28" points="402 42.39 415.77 42.39 415.77 53.15 400.2 53.15 400.2 75.73 417.27 75.73"/><rect class="cls-29" x="240.42" y="12.89" width="7.78" height="7.78"/><rect class="cls-30" x="300.9" y="49.23" width="7.78" height="7.78"/><rect class="cls-29" x="377.01" y="34.12" width="7.78" height="7.78"/><rect class="cls-29" x="417.36" y="56.11" width="7.78" height="7.78"/><rect class="cls-30" x="168.8" y="24.27" width="7.78" height="7.78"/><rect class="cls-29" x="46.66" y="13.76" width="7.78" height="7.78"/><rect class="cls-30" x="472.48" y="-0.28" width="7.78" height="7.78"/><rect class="cls-29" x="334.36" y="8.75" width="7.78" height="7.78"/><circle class="cls-2" cx="397.62" cy="13.92" r="0.69"/><line class="cls-16" x1="158.68" y1="6.48" x2="158.68" y2="17.48"/></svg>