<svg id="Réteg_1" data-name="Réteg 1" xmlns="http://www.w3.org/2000/svg" viewBox="0 0 800 200"><defs><style>.cls-1,.cls-12,.cls-13,.cls-14,.cls-15,.cls-16,.cls-17,.cls-18,.cls-19,.cls-20,.cls-21,.cls-22,.cls-23,.cls-24,.cls-25,.cls-26,.cls-27,.cls-28,.cls-3,.cls-4,.cls-5,.cls-6,.cls-7,.cls-8,.cls-9{fill:none;}.cls-1,.cls-3,.cls-4,.cls-5,.cls-6{stroke:#a6a8ab;}.cls-1,.cls-11,.cls-12,.cls-13,.cls-14,.cls-15,.cls-16,.cls-17,.cls-18,.cls-19,.cls-20,.cls-21,.cls-22,.cls-23,.cls-24,.cls-25,.cls-26,.cls-27,.cls-28,.cls-3,.cls-4,.cls-5,.cls-6,.cls-7,.cls-8,.cls-9{stroke-miterlimit:10;}.cls-1,.cls-16,.cls-25{stroke-width:1.28px;}.cls-2{fill:#a6a8ab;}.cls-11,.cls-24,.cls-3,.cls-9{stroke-width:1.11px;}.cls-23,.cls-4{stroke-width:1.66px;}.cls-5{stroke-width:1.03px;}.cls-13,.cls-6{stroke-width:0.83px;}.cls-11,.cls-12,.cls-13,.cls-14,.cls-15,.cls-16,.cls-17,.cls-18,.cls-7,.cls-8,.cls-9{stroke:#231f20;}.cls-7{stroke-width:1.33px;}.cls-8{stroke-width:1.88px;}.cls-10{fill:#231f20;}.cls-11{fill:#fff;}.cls-12{stroke-width:0.96px;}.cls-14{stroke-width:0.55px;}.cls-15,.cls-20{stroke-width:0.55px;}.cls-17{stroke-width:1.14px;}.cls-18{stroke-width:0.95px;}.cls-19,.cls-20,.cls-21,.cls-22,.cls-23,.cls-24,.cls-25,.cls-26,.cls-27,.cls-28{stroke:#000;}.cls-19{stroke-width:0.97px;}.cls-21{stroke-width:0.64px;}.cls-22{stroke-width:0.69px;}.cls-26{stroke-width:1.25px;}.cls-27{stroke-width:0.85px;}.cls-28{stroke-width:0.57px;}.cls-29{fill:#25a9e0;}.cls-30{fill:red;}</style></defs><title>header-lg</title><polyline class="cls-1" points="269.45 -3.87 269.45 46.8 322.21 46.8 322.21 103.11"/><circle class="cls-2" cx="269.46" cy="46.8" r="4.52"/><circle class="cls-2" cx="322.21" cy="103.38" r="4.7"/><circle class="cls-2" cx="322.21" cy="46.8" r="3.6"/><line class="cls-3" x1="329.84" y1="3.68" x2="329.84" y2="75.99"/><circle class="cls-2" cx="329.84" cy="75.99" r="3.14"/><polyline class="cls-4" points="355.11 0.6 355.11 60.13 446.42 60.13 446.42 10.69 586.97 10.69 586.97 33.2 531.64 33.2 531.64 114.36 447.16 114.36"/><circle class="cls-2" cx="446.42" cy="60.13" r="3.5"/><circle class="cls-2" cx="586.97" cy="10.69" r="3.78"/><circle class="cls-2" cx="531.64" cy="114.36" r="5.99"/><circle class="cls-2" cx="446.37" cy="114.31" r="3.97"/><circle class="cls-3" cx="393.11" cy="60.08" r="4.71"/><line class="cls-4" x1="427.23" y1="1.88" x2="427.23" y2="59.76"/><circle class="cls-2" cx="427.23" cy="59.76" r="4.77"/><line class="cls-3" x1="531.45" y1="82.49" x2="558.84" y2="82.49"/><circle class="cls-2" cx="558.01" cy="82.77" r="3.11"/><polyline class="cls-5" points="48.26 36.19 149.43 36.19 149.43 14.65 263.19 14.65 263.49 32.54 218.15 32.54 218.15 70.22"/><circle class="cls-2" cx="149.43" cy="36.18" r="2.33"/><circle class="cls-2" cx="263.19" cy="14.7" r="3.06"/><circle class="cls-2" cx="218.15" cy="70.22" r="2.55"/><circle class="cls-2" cx="48.48" cy="36.15" r="3.21"/><circle class="cls-2" cx="41.14" cy="86.56" r="3.97"/><circle class="cls-2" cx="218.32" cy="32.75" r="2.24"/><circle class="cls-2" cx="488.94" cy="21.68" r="3.19"/><line class="cls-4" x1="125.15" y1="-26.09" x2="125.52" y2="35.15"/><circle class="cls-2" cx="125.52" cy="35.15" r="4.77"/><line class="cls-3" x1="218.25" y1="44.47" x2="238.59" y2="44.67"/><circle class="cls-2" cx="238.59" cy="44.67" r="2.55"/><polyline class="cls-1" points="-72.44 40.2 -21.99 40.2 -21.99 86.82 41.24 86.82"/><polyline class="cls-6" points="389.61 1.56 389.61 36.15 403.25 36.15 403.25 50.17"/><circle class="cls-2" cx="389.61" cy="36.15" r="1.66"/><circle class="cls-2" cx="403.35" cy="49.84" r="1.8"/><line class="cls-3" x1="446.23" y1="61.19" x2="446.23" y2="114.29"/><circle class="cls-2" cx="491.24" cy="10.69" r="2.87"/><line class="cls-3" x1="491.24" y1="10.69" x2="491.24" y2="134.83"/><circle class="cls-2" cx="491.24" cy="134.83" r="3.87"/><circle class="cls-2" cx="177.99" cy="22.4" r="3.87"/><polyline class="cls-6" points="578.43 58.08 578.43 113.07 601.12 113.07 601.12 133.17"/><circle class="cls-2" cx="601.12" cy="133.17" r="2.31"/><circle class="cls-2" cx="578.43" cy="113.07" r="1.75"/><circle class="cls-2" cx="601.12" cy="113.07" r="2.03"/><polyline class="cls-6" points="177.8 21.66 177.8 60.03 200.49 60.03 200.49 80.13"/><circle class="cls-2" cx="200.49" cy="80.13" r="2.31"/><circle class="cls-2" cx="177.8" cy="60.03" r="1.75"/><circle class="cls-2" cx="200.49" cy="60.03" r="2.03"/><polyline class="cls-3" points="564.65 57.59 605.19 57.59 605.18 -0.67"/><circle class="cls-2" cx="564.65" cy="57.59" r="2.35"/><polyline class="cls-6" points="622.11 31.45 637.86 31.45 637.86 46.11 619.69 46.11 619.69 87.71 645.42 87.71 645.42 130.41"/><circle class="cls-2" cx="637.86" cy="31.45" r="1.2"/><circle class="cls-2" cx="619.69" cy="46.11" r="1.52"/><circle class="cls-2" cx="619.69" cy="87.71" r="1.66"/><circle class="cls-2" cx="645.42" cy="87.71" r="1.48"/><circle class="cls-2" cx="645.42" cy="130.41" r="1.98"/><line class="cls-3" x1="477.45" y1="48.5" x2="477.71" y2="1.91"/><polyline class="cls-3" points="756.55 98.78 678.8 98.78 678.63 126.42"/><circle class="cls-2" cx="678.8" cy="98.78" r="2.77"/><circle class="cls-2" cx="759.1" cy="98.78" r="4.24"/><line class="cls-3" x1="782.5" y1="-0.67" x2="782.5" y2="78.02"/><polyline class="cls-3" points="661.86 -0.04 661.86 48.51 713.88 48.51 724.58 48.51 724.58 1.24"/><line class="cls-3" x1="712.96" y1="89.82" x2="712.96" y2="48.51"/><circle class="cls-2" cx="661.86" cy="48.51" r="3.97"/><circle class="cls-2" cx="713.05" cy="48.78" r="3.78"/><circle class="cls-2" cx="712.77" cy="90.38" r="3.78"/><line class="cls-7" x1="366.85" y1="3.16" x2="366.85" y2="67.66"/><polyline class="cls-8" points="517.62 -0.04 517.62 93.14 564.65 93.14 564.65 135.2"/><circle class="cls-9" cx="517.62" cy="50.54" r="7.19"/><circle class="cls-10" cx="517.62" cy="93.14" r="4.71"/><circle class="cls-10" cx="564.65" cy="135.2" r="3.32"/><circle class="cls-11" cx="296.27" cy="18.99" r="6.27"/><circle class="cls-11" cx="343.86" cy="58.28" r="6.27"/><polyline class="cls-12" points="296.27 -0.04 296.27 18.99 343.86 18.99 343.86 58.28"/><circle class="cls-10" cx="296.27" cy="18.99" r="4.36"/><circle class="cls-10" cx="343.86" cy="58.28" r="4.36"/><circle class="cls-10" cx="343.86" cy="18.99" r="2.35"/><circle cx="53.58" cy="50.48" r="2.21"/><circle class="cls-10" cx="254.73" cy="54.94" r="2.21"/><circle class="cls-9" cx="343.86" cy="18.99" r="8.02"/><polyline class="cls-7" points="459.79 -0.67 459.79 100.34 485.8 100.34 485.8 93.14 517.62 93.14"/><circle class="cls-10" cx="460.07" cy="27.85" r="3.11"/><circle class="cls-10" cx="460.34" cy="75.44" r="3.32"/><circle class="cls-9" cx="460.34" cy="75.44" r="7.54"/><line class="cls-8" x1="442.91" y1="0.6" x2="442.91" y2="27.99"/><polyline class="cls-7" points="378.72 1.7 378.72 27.85 460.07 27.85"/><circle class="cls-10" cx="378.73" cy="27.55" r="2.84"/><circle class="cls-10" cx="442.98" cy="27.1" r="4.71"/><circle class="cls-9" cx="442.98" cy="27.1" r="7.06"/><circle class="cls-9" cx="378.72" cy="27.85" r="6.16"/><polyline class="cls-13" points="406.94 7.93 421.06 7.93 421.06 21.21"/><circle class="cls-10" cx="406.94" cy="7.93" r="1.52"/><circle class="cls-10" cx="421.06" cy="20.79" r="1.73"/><circle class="cls-10" cx="421.06" cy="7.93" r="1.57"/><polyline class="cls-7" points="460.62 74.88 538.37 74.88 538.37 -0.04"/><line class="cls-7" x1="539.48" y1="41.96" x2="565.48" y2="41.96"/><circle class="cls-10" cx="538.37" cy="74.88" r="2.77"/><circle class="cls-10" cx="538.26" cy="42.07" r="2.49"/><circle class="cls-10" cx="565.48" cy="41.96" r="2.63"/><polyline class="cls-13" points="602.28 -0.04 602.28 25.36 573.23 25.36 573.23 74.33 593.15 74.33 593.15 91.21"/><circle class="cls-10" cx="602.15" cy="25.21" r="3.19"/><circle class="cls-10" cx="573.37" cy="25.5" r="2.88"/><circle class="cls-9" cx="602.15" cy="25.21" r="6.94"/><circle class="cls-10" cx="573.23" cy="74.33" r="2.21"/><circle class="cls-10" cx="593.15" cy="91.21" r="2.35"/><circle class="cls-10" cx="607.82" cy="97.29" r="1.87"/><circle class="cls-10" cx="631.55" cy="59.82" r="1.82"/><polyline class="cls-13" points="624.7 4.33 624.7 10.14 614.73 10.14 614.73 22.04 631.89 22.04 631.89 59.94 607.82 59.94 607.82 97.3"/><circle class="cls-10" cx="608" cy="59.85" r="1.75"/><circle class="cls-10" cx="614.73" cy="10.14" r="1.38"/><circle class="cls-10" cx="614.73" cy="22.04" r="1.45"/><circle class="cls-10" cx="631.89" cy="22.04" r="1.82"/><circle class="cls-14" cx="631.55" cy="59.82" r="4.79"/><polyline class="cls-9" points="650.98 4.61 650.98 17.61 696.91 17.61 696.91 56.07"/><polyline class="cls-9" points="696.91 17.61 707.42 17.61 707.42 -0.04"/><circle class="cls-10" cx="650.98" cy="17.61" r="4.7"/><circle class="cls-10" cx="696.91" cy="17.61" r="2.77"/><circle class="cls-10" cx="696.91" cy="56.07" r="4.57"/><circle class="cls-9" cx="696.91" cy="17.61" r="7.68"/><line class="cls-15" x1="677.03" y1="1.88" x2="676.99" y2="12.21"/><circle class="cls-10" cx="676.99" cy="12.21" r="1.66"/><circle class="cls-9" cx="663.77" cy="71.01" r="8.02"/><circle class="cls-9" cx="663.8" cy="179.93" r="6.64"/><polyline class="cls-12" points="730.66 1.24 730.66 70.46 663.71 70.46 663.71 180.58"/><circle class="cls-10" cx="663.71" cy="70.46" r="3.25"/><circle class="cls-10" cx="731.49" cy="70.18" r="5.81"/><circle class="cls-10" cx="663.8" cy="179.93" r="4.33"/><polyline class="cls-16" points="211.12 72.77 195.16 72.77 195.16 18.49 205.16 18.49 218.15 18.49 218.15 -0.67"/><circle class="cls-10" cx="205.1" cy="37.08" r="2.55"/><circle class="cls-10" cx="186.7" cy="31.72" r="3.25"/><circle cx="166.27" cy="57.91" r="3.25"/><circle cx="83.88" cy="71.32" r="3.25"/><circle cx="83.88" cy="24.7" r="3.25"/><circle cx="30.7" cy="25.19" r="2.87"/><circle class="cls-10" cx="228.85" cy="23.88" r="4.33"/><circle class="cls-10" cx="210.17" cy="72.45" r="3.51"/><circle cx="362.49" cy="53.61" r="2.24"/><circle cx="68.7" cy="54.89" r="3.19"/><circle cx="2.28" cy="101.51" r="2.55"/><circle cx="208.57" cy="61.91" r="2.55"/><circle cx="18.25" cy="112.37" r="2.55"/><circle cx="53.37" cy="97.04" r="2.55"/><circle cx="254.55" cy="23.59" r="3.19"/><circle cx="2.48" cy="55.19" r="4.33"/><circle class="cls-10" cx="724.85" cy="118.88" r="3.04"/><circle class="cls-9" cx="698.29" cy="118.88" r="7.75"/><circle class="cls-9" cx="698.29" cy="152.91" r="7.38"/><circle class="cls-10" cx="620.82" cy="152.91" r="2.95"/><circle cx="629.76" cy="81.38" r="2.95"/><circle cx="582.83" cy="164.74" r="2.55"/><circle cx="656.27" cy="139.19" r="2.55"/><polyline class="cls-7" points="545.56 105.04 620.82 105.04 620.82 152.91 698.29 152.91 698.29 118.88 724.85 118.88 724.85 106.98 731.22 106.98 731.22 71.29"/><circle class="cls-10" cx="545.56" cy="105.04" r="4.91"/><circle class="cls-10" cx="620.82" cy="105.04" r="3.11"/><circle class="cls-10" cx="698.29" cy="152.91" r="3.32"/><circle class="cls-10" cx="698.29" cy="118.88" r="3.5"/><polyline class="cls-17" points="794.09 101.58 794.09 135.28 768.46 135.28 768.46 175.62"/><circle class="cls-10" cx="768.46" cy="174.9" r="2.61"/><circle class="cls-10" cx="768.46" cy="135.28" r="2.73"/><circle class="cls-10" cx="794.09" cy="101.58" r="2.73"/><circle class="cls-18" cx="794.09" cy="101.58" r="5.81"/><polyline class="cls-8" points="758.33 1.88 758.33 56.07 807 56.07"/><circle class="cls-10" cx="758.33" cy="56.07" r="5.26"/><circle class="cls-9" cx="736.89" cy="168.89" r="8.02"/><circle class="cls-9" cx="766.63" cy="118.05" r="7.01"/><circle class="cls-10" cx="766.63" cy="69.35" r="3.32"/><circle class="cls-10" cx="736.89" cy="168.89" r="3.23"/><circle class="cls-10" cx="745.42" cy="52.38" r="1.94"/><circle class="cls-10" cx="737.03" cy="118.05" r="2.21"/><polyline class="cls-13" points="745.05 53.3 745.05 69.35 766.63 69.35 766.63 118.05 737.03 118.05 737.03 169.21"/><line class="cls-13" x1="737.86" y1="168.68" x2="790.98" y2="168.68"/><circle class="cls-10" cx="766.63" cy="118.05" r="2.77"/><circle class="cls-10" cx="790.98" cy="168.68" r="3.74"/><circle class="cls-10" cx="745.05" cy="69.35" r="3.14"/><line class="cls-9" x1="583.19" y1="105.6" x2="583.19" y2="164.74"/><polyline class="cls-9" points="142.15 31.35 186.7 31.35 186.7 53.85 228.76 53.85 228.76 25.08"/><polyline class="cls-19" points="284.35 -22.61 284.57 23.59 254.55 23.59 254.55 54.89"/><polyline class="cls-20" points="288.52 65.73 360.46 65.73 360.46 88.97 410.26 88.97 410.26 66.83 422.44 66.83 422.2 111.73"/><polyline class="cls-21" points="361.99 53.23 380.95 53.23 380.95 80.01 398.25 80.12 398.25 110.13"/><ellipse class="cls-10" cx="263.45" cy="72.62" ry="0.55"/><circle cx="262.9" cy="72.62" r="1.66"/><circle class="cls-22" cx="262.9" cy="72.62" r="2.77"/><circle cx="398.2" cy="109.52" r="1.66"/><circle cx="410.34" cy="89.09" r="1.66"/><circle cx="278.48" cy="34.11" r="1.66"/><circle cx="366.89" cy="67.79" r="1.66"/><circle cx="422.12" cy="111.78" r="2.87"/><polyline class="cls-21" points="262.86 72.43 278 72.43 278 33.7 296.81 33.7 296.81 42.55 313.42 42.55 313.42 3.8"/><circle cx="313.42" cy="42.39" r="2.21"/><circle cx="360.68" cy="89.02" r="2.21"/><circle cx="288.51" cy="66.02" r="2.21"/><circle cx="410.49" cy="66.66" r="2.21"/><polyline class="cls-23" points="142.43 1.24 142.43 49.43 92.63 49.43 92.63 8.48 41.72 8.48 41.72 1.56"/><polyline class="cls-24" points="69.09 8.56 69.09 55.05 2.69 55.05 2.69 102.64"/><polyline class="cls-25" points="-66.06 25.51 18.25 25.51 18.25 112.37"/><polyline class="cls-26" points="18.57 50.42 53.69 50.42 53.69 97.04"/><circle class="cls-27" cx="53.37" cy="97.04" r="5.43"/><polyline class="cls-21" points="31.02 -11.53 31.02 24.23 84.03 24.23 84.03 71.5 142.15 71.5 142.15 58.08 166.42 58.08"/><polyline class="cls-28" points="629.52 81.08 653.53 81.08 653.53 99.82 626.39 99.82 626.39 139.19 656.14 139.19"/><rect class="cls-29" x="347.87" y="29.65" width="13.56" height="13.56"/><rect class="cls-30" x="453.29" y="93.01" width="13.56" height="13.56"/><rect class="cls-29" x="585.96" y="66.66" width="13.56" height="13.56"/><rect class="cls-29" x="656.31" y="104.98" width="13.56" height="13.56"/><rect class="cls-30" x="223.03" y="49.49" width="13.56" height="13.56"/><rect class="cls-29" x="10.12" y="31.17" width="13.56" height="13.56"/><rect class="cls-30" x="752.38" y="6.7" width="13.56" height="13.56"/><rect class="cls-29" x="511.63" y="22.44" width="13.56" height="13.56"/><circle class="cls-2" cx="621.89" cy="31.45" r="1.2"/><line class="cls-16" x1="205.38" y1="18.49" x2="205.38" y2="37.65"/></svg>