<svg xmlns="http://www.w3.org/2000/svg" xmlns:xlink="http://www.w3.org/1999/xlink" viewBox="0 0 200 200"><defs><style>.cls-1{isolation:isolate;}.cls-2{fill:#fff;}.cls-3{fill:url(#radial-gradient);}.cls-4{fill:#0080b8;}.cls-5{mix-blend-mode:screen;}.cls-6{fill:url(#linear-gradient);}.cls-7{fill:url(#linear-gradient-2);}.cls-8{fill:url(#linear-gradient-3);}.cls-9{fill:#15272a;}</style><radialGradient id="radial-gradient" cx="-8201.05" cy="-8072.92" r="24.41" gradientTransform="translate(25898.38 25552.44) scale(3.15 3.15)" gradientUnits="userSpaceOnUse"><stop offset="0" stop-color="#d1edfb"/><stop offset="1" stop-color="#3da3db"/></radialGradient><linearGradient id="linear-gradient" x1="100.5" y1="25.82" x2="100.5" y2="126.44" gradientUnits="userSpaceOnUse"><stop offset="0" stop-color="#fff"/><stop offset="1"/></linearGradient><linearGradient id="linear-gradient-2" y1="26.85" y2="127.43" xlink:href="#linear-gradient"/><linearGradient id="linear-gradient-3" x1="473.33" y1="-467.48" x2="473.33" y2="-414.2" gradientTransform="translate(-333.84 -371.83) rotate(90)" gradientUnits="userSpaceOnUse"><stop offset="0" stop-color="#706f71"/><stop offset="1" stop-color="#050607"/></linearGradient></defs><title>play_1</title><g class="cls-1"><g id="Réteg_1" data-name="Réteg 1"><g id="Icon_3_-_Check" data-name="Icon 3 - Check"><ellipse class="cls-2" cx="100.5" cy="100" rx="99.5" ry="100"/><g id="Bullet_4_-_Next" data-name="Bullet 4 - Next"><path class="cls-3" d="M100.5,175.43a73.93,73.93,0,1,1,73.93-73.93A74,74,0,0,1,100.5,175.43Z"/><path class="cls-4" d="M100.5,28.19A73.31,73.31,0,1,1,27.19,101.5,73.4,73.4,0,0,1,100.5,28.19m0-3.19A76.5,76.5,0,1,0,177,101.5,76.5,76.5,0,0,0,100.5,25Z"/><g class="cls-5"><path class="cls-6" d="M100.5,38.59a69.29,69.29,0,0,1,69.12,66.06c0-1.05.08-2.09.08-3.15a69.2,69.2,0,1,0-138.4,0c0,1.06,0,2.1.08,3.15A69.29,69.29,0,0,1,100.5,38.59Z"/></g><g class="cls-5"><path class="cls-7" d="M100.5,108.89c26.23,0,50.29-6.14,68.93-16.28a69.18,69.18,0,0,0-137.87,0C50.21,102.75,74.26,108.89,100.5,108.89Z"/></g><polygon class="cls-8" points="79.93 68.22 137.57 101.5 79.93 134.78 79.93 68.22"/><path class="cls-9" d="M80.72,69.58,136,101.5,80.72,133.42V69.58m-1.58-2.72v69.28l60-34.64-60-34.64Z"/></g></g></g></g></svg>